<?xml version="1.0" standalone="no"?>
<!DOCTYPE svg PUBLIC "-//W3C//DTD SVG 1.1//EN" "http://www.w3.org/Graphics/SVG/1.1/DTD/svg11.dtd" >
<svg>
<metadata>
Created by FontForge 20090914 at Tue Jan 24 13:00:13 2017
 By www-data
&#194;&#169; 2015 Microsoft Corporation. All Rights Reserved.
</metadata>
<defs>
<font id="FluentSitkaSmall" horiz-adv-x="0" >
  <font-face 
    font-family="Fluent Sitka Small"
    font-weight="400"
    font-variant="small-caps"
    font-stretch="normal"
    units-per-em="2200"
    panose-1="2 0 5 5 0 0 0 2 0 4"
    ascent="1665"
    descent="-535"
    x-height="1108"
    cap-height="1451"
    bbox="-1192 -665 3188.99 2516"
    underline-thickness="102"
    underline-position="-103"
    unicode-range="U+000D-U+FB04"
  />
<missing-glyph horiz-adv-x="1365" 
d="M0 1466h1024v-1466h-1024v1466zM83 80h858v1306h-858v-1306z" />
    <glyph glyph-name=".notdef" horiz-adv-x="1365" 
d="M0 1466h1024v-1466h-1024v1466zM83 80h858v1306h-858v-1306z" />
    <glyph glyph-name="glyph1" 
 />
    <glyph glyph-name="glyph1" 
 />
    <glyph glyph-name="uni000D" unicode="&#xd;" 
 />
    <glyph glyph-name="space" unicode=" " horiz-adv-x="2040" 
 />
    <glyph glyph-name="space" unicode="&#xa0;" horiz-adv-x="2040" 
 />
    <glyph glyph-name="exclam" unicode="!" horiz-adv-x="1153" 
d="M271 1411v40h271v-40l-77 -935h-117zM249 131c0 22 4.16699 42.833 12.5 62.5s19.666 36.667 33.999 51s31.166 25.666 50.499 33.999s40 12.5 62 12.5s42.833 -4.16699 62.5 -12.5s36.667 -19.666 51 -33.999s25.666 -31.333 33.999 -51s12.5 -40.5 12.5 -62.5
s-4.16699 -42.5 -12.5 -61.5s-19.666 -35.5 -33.999 -49.5s-31.333 -25 -51 -33s-40.5 -12 -62.5 -12s-42.667 4 -62 12s-36.166 19 -50.499 33s-25.666 30.5 -33.999 49.5s-12.5 39.5 -12.5 61.5z" />
    <glyph glyph-name="quotedbl" unicode="&#x22;" horiz-adv-x="1526" 
d="M696 1529v29h275v-29l-82 -639h-110zM214 1529v29h275v-29l-82 -639h-110z" />
    <glyph glyph-name="numbersign" unicode="#" horiz-adv-x="1896" 
d="M437 416h-240v137h279l82 281h-293v138h331l118 406h124l-117 -406h273l117 406h124l-117 -406h240v-138h-279l-81 -281h292v-137h-331l-120 -416h-124l120 416h-274l-119 -416h-125zM875 551l84 286h-279l-83 -286h278z" />
    <glyph glyph-name="dollar" unicode="$" horiz-adv-x="1588" 
d="M152 289l46.0039 -0.00585938c16 -10 38.667 -23.333 68 -40s62.166 -33.167 98.499 -49.5s74.666 -30.666 114.999 -42.999s79.5 -19.166 117.5 -20.499v415c-24.667 5.33301 -49.334 10.333 -74.001 15s-49.667 10.667 -75 18c-95.333 26 -167.333 64.5 -216 115.5
s-73 115.5 -73 193.5c0 48 11.333 92.833 34 134.5s53.667 78.667 93 111s85.666 59 138.999 80s110.666 34.5 171.999 40.5v133h98v-130h6c2 0 3.66699 -0.333008 5 -1c46 -2 88.333 -6.83301 127 -14.5s73.334 -16.167 104.001 -25.5s57.5 -18.666 80.5 -27.999
s41.833 -16.666 56.5 -21.999v-214h-45l-56.5 35c-23.667 14.667 -50.167 29.5 -79.5 44.5s-61 29 -95 42s-68.333 22.5 -103 28.5v-381c19.333 -5.33301 38.333 -10 57 -14s41.334 -9.33301 68.001 -16c58.667 -15.333 108.334 -33.166 149.001 -53.499
s73.667 -43.166 99 -68.499s43.666 -52.5 54.999 -81.5s17 -59.5 17 -91.5c0 -56 -12.5 -106.5 -37.5 -151.5s-58.167 -84.333 -99.5 -118s-88.833 -61.5 -142.5 -83.5s-108.834 -38.333 -165.501 -49v-264h-98v252c-7.33301 -0.666992 -14.5 -1.16699 -21.5 -1.5
s-14.167 -0.5 -21.5 -0.5c-50 0 -96 3.16699 -138 9.5s-80 13.833 -114 22.5s-63.667 17.667 -89 27l-61 23v222zM597.004 1113.99c-37.333 -0.666992 -70.667 -3.83105 -100 -9.49805s-54.5 -15.167 -75.5 -28.5s-37 -31.333 -48 -54s-16.5 -51 -16.5 -85
c0 -28.667 5.83301 -53.834 17.5 -75.501s28 -40.167 49 -55.5s46.167 -28.333 75.5 -39s62 -19.334 98 -26.001v373zM695.003 138.997c40 3.33301 75.332 9.83398 105.999 19.501s56.334 23 77.001 40s36.334 37.667 47.001 62s16 53.166 16 86.499
c0 27.333 -5.83301 50.833 -17.5 70.5s-28.334 36.667 -50.001 51s-47.667 26.333 -78 36s-63.833 18.5 -100.5 26.5v-392z" />
    <glyph glyph-name="percent" unicode="%" horiz-adv-x="2696" 
d="M531 524c-68.667 0 -128.5 13.001 -179.5 39.001s-93.167 62.5 -126.5 109.5s-58.333 102.833 -75 167.5s-25 135.667 -25 213c0 71.333 8.16699 138.833 24.5 202.5s41.166 119.5 74.499 167.5s75.5 86.167 126.5 114.5s111.167 42.5 180.5 42.5
c74.667 0 137.834 -14.5 189.501 -43.5s93.667 -67.667 126 -116s55.666 -104.333 69.999 -168s21.5 -130.167 21.5 -199.5c0 -85.333 -9.66699 -160.833 -29 -226.5s-46.666 -120.834 -81.999 -165.501s-78 -78.667 -128 -102s-106 -35 -168 -35zM531 614.001
c40 0 73.998 9.66895 101.998 29.002s50.833 47.5 68.5 84.5s30.334 82.833 38.001 137.5s11.5 117.334 11.5 188.001c0 64.667 -3.5 123.667 -10.5 177s-19 99.166 -36 137.499s-39.333 68 -67 89s-62.5 31.5 -104.5 31.5s-77.167 -10.333 -105.5 -31
s-51 -49.834 -68 -87.501s-29.167 -83.334 -36.5 -137.001s-11 -113.5 -11 -179.5c0 -63.333 3.33301 -121.833 10 -175.5s18.334 -100 35.001 -139s39.167 -69.5 67.5 -91.5s63.833 -33 106.5 -33zM1620 1558h148l-1032 -1659h-149zM1823 -121.997
c-68.667 0 -128.5 13.001 -179.5 39.001s-93.167 62.5 -126.5 109.5s-58.333 102.833 -75 167.5s-25 135.667 -25 213c0 71.333 8.16699 138.833 24.5 202.5s41.166 119.5 74.499 167.5s75.5 86.167 126.5 114.5s111.167 42.5 180.5 42.5
c74.667 0 137.834 -14.5 189.501 -43.5s93.667 -67.667 126 -116s55.666 -104.333 70 -168c14.333 -63.667 21.5 -130.167 21.5 -199.5c0 -85.333 -9.66699 -160.833 -29 -226.5s-46.666 -120.834 -82 -165.501c-35.333 -44.667 -78 -78.667 -128 -102s-106 -35 -168 -35z
M1823 -31.9961c40 0 73.998 9.66895 101.998 29.002s50.833 47.5 68.5 84.5s30.334 82.833 38.001 137.5s11.5 117.334 11.5 188.001c0 64.667 -3.5 123.667 -10.5 177s-19 99.166 -36 137.499s-39.333 68 -67 89s-62.5 31.5 -104.5 31.5s-77.167 -10.333 -105.5 -31
s-51 -49.834 -68 -87.501s-29.167 -83.334 -36.5 -137.001s-11 -113.5 -11 -179.5c0 -63.333 3.33301 -121.833 10 -175.5s18.334 -100 35.001 -139s39.167 -69.5 67.5 -91.5s63.833 -33 106.5 -33z" />
    <glyph glyph-name="ampersand" unicode="&#x26;" horiz-adv-x="1961" 
d="M471 791c-44 42 -79.6641 79.835 -106.997 113.502s-48.333 64.834 -63 93.501s-24.5 56.167 -29.5 82.5s-7.5 53.5 -7.5 81.5c0 51.333 12.167 97 36.5 137s55.5 73.833 93.5 101.5s80.333 48.667 127 63s92 21.5 136 21.5c54 0 104.167 -7.33301 150.5 -22
s86.333 -34.834 120 -60.501s60 -56.167 79 -91.5s28.5 -73.666 28.5 -114.999c0 -52.667 -8.5 -101.5 -25.5 -146.5s-38.167 -83.833 -63.5 -116.5l-220 -138l370 -370c22 32 39.833 61.5 53.5 88.5s24.667 51.5 33 73.5s14.666 41.833 18.999 59.5
s7.83301 33.167 10.5 46.5l-179 61v81h530v-81l-127 -50c-13.333 -5.33301 -27.166 -13.833 -41.499 -25.5s-26.5 -26.167 -36.5 -43.5l-39.5 -67l-44.5 -72l-48.5 -74.5c-17 -25 -34.5 -49.5 -52.5 -73.5l152 -151c6 -6 12.333 -12 19 -18s13.667 -11.833 21 -17.5
s15.166 -10.834 23.499 -15.501s16.5 -8.33398 24.5 -11.001l168 -52v-83h-222c-32 0 -57.667 1.83301 -77 5.5s-36.833 10.5 -52.5 20.5s-31.667 23.333 -48 40l-62.5 64l-75 77c-32 -34.667 -66.167 -66.667 -102.5 -96s-74.5 -54.5 -114.5 -75.5
s-81.833 -37.333 -125.5 -49s-88.834 -17.5 -135.501 -17.5c-58 0 -113.167 9 -165.5 27s-98.333 43.667 -138 77s-71.167 74.166 -94.5 122.499s-35 102.833 -35 163.5c0 23.333 3 48 9 74s14.167 51.667 24.5 77s22.666 49.833 36.999 73.5s29.833 45.167 46.5 64.5z
M651.003 872.002c36 19.333 65.668 40.4971 89.001 63.4971s42 47.333 56 73s23.833 52.834 29.5 81.501s8.5 58 8.5 88c0 58 -16.5 103.333 -49.5 136s-76.5 49 -130.5 49c-26 0 -50.167 -4.83301 -72.5 -14.5s-41.833 -23 -58.5 -40s-29.667 -37 -39 -60
s-14 -47.833 -14 -74.5s3.16699 -51.667 9.5 -75s16.666 -46.666 30.999 -69.999s33 -47.666 56 -72.999s51.167 -53.333 84.5 -84zM547.004 710.999c-29.333 -18 -55.832 -36.667 -79.499 -56s-44 -41.5 -61 -66.5s-30.167 -53.667 -39.5 -86s-14 -70.833 -14 -115.5
c0 -38 7 -72.167 21 -102.5s32.833 -56 56.5 -77s50.667 -37 81 -48s62.166 -16.5 95.499 -16.5c35.333 0 69.5 3 102.5 9s64.667 15 95 27s59 26.833 86 44.5s52.167 38.167 75.5 61.5z" />
    <glyph glyph-name="quotesingle" unicode="'" horiz-adv-x="1044" 
d="M214 1529v29h275v-29l-82 -639h-110z" />
    <glyph glyph-name="parenleft" unicode="(" horiz-adv-x="1365" 
d="M846 -355c-93.333 10.667 -178.667 39.333 -256 86s-143.833 110 -199.5 190s-99 176.333 -130 289s-46.5 240.667 -46.5 384c0 142.667 15 271 45 385s72.667 211.833 128 293.5s121.833 146.667 199.5 195s164.167 78.5 259.5 90.5v-128
c-73.333 -14 -136.333 -43 -189 -87s-96 -101.667 -130 -173s-59 -155.666 -75 -252.999s-24 -206 -24 -326c0 -119.333 8.33301 -226.833 25 -322.5s42.167 -178.334 76.5 -248.001s77.833 -125.5 130.5 -167.5s114.667 -69 186 -81v-127z" />
    <glyph glyph-name="parenright" unicode=")" horiz-adv-x="1365" 
d="M178 -228c71.333 12 133.335 39.001 186.002 81.001s96.167 97.833 130.5 167.5s59.833 152.334 76.5 248.001s25 203.167 25 322.5c0 120 -8 228.667 -24 326s-41 181.666 -75 252.999s-77.333 129 -130 173s-115.667 73 -189 87v128
c95.333 -12 181.833 -42.167 259.5 -90.5s144.167 -113.333 199.5 -195s98 -179.5 128 -293.5s45 -242.333 45 -385c0 -143.333 -15.5 -271.333 -46.5 -384s-74.333 -209 -130 -289s-122.334 -143.333 -200.001 -190s-162.834 -75.334 -255.501 -86.001v127z" />
    <glyph glyph-name="asterisk" unicode="*" horiz-adv-x="1607" 
d="M1115 1118l-381 -74l-7 -19l264 -279l12 -20l-159 -114l-13 16l-186 339h-22l-188 -339l-15 -16l-159 114l12 20l268 283l-7 15l-381 74l-19 8l61 186l22 -5l350 -167l18 14l-49 385v19h197v-19l-47 -385l16 -14l353 167l19 5l61 -184z" />
    <glyph glyph-name="plus" unicode="+" horiz-adv-x="1896" 
d="M201 704h498v498h157v-498h498v-154h-498v-498h-157v498h-498v154z" />
    <glyph glyph-name="comma" unicode="," horiz-adv-x="1056" 
d="M135 -317c26.667 20.667 52.168 42.332 76.501 64.999s46.5 45.834 66.5 69.501s36.833 47.5 50.5 71.5s23.167 47.333 28.5 70l-73.5 47c-20.333 13.333 -37 26.833 -50 40.5s-22.5 28.334 -28.5 44.001s-9 34.834 -9 57.501c0 13.333 3.16699 27.666 9.5 42.999
s15.5 29.5 27.5 42.5s26.667 23.667 44 32s37 12.5 59 12.5c34 0 63 -5.66699 87 -17s43.5 -27.5 58.5 -48.5s26 -46 33 -75s10.5 -61.5 10.5 -97.5c0 -51.333 -11.5 -99.833 -34.5 -145.5s-50.833 -87.667 -83.5 -126s-66.834 -72.333 -102.501 -102
s-66.5 -53.834 -92.5 -72.501z" />
    <glyph glyph-name="hyphen" unicode="-" horiz-adv-x="1244" 
d="M145 685h616v-182h-616v182z" />
    <glyph glyph-name="hyphen" unicode="&#x2010;" horiz-adv-x="1244" 
d="M145 685h616v-182h-616v182z" />
    <glyph glyph-name="hyphen" unicode="&#xad;" horiz-adv-x="1244" 
d="M145 685h616v-182h-616v182z" />
    <glyph glyph-name="period" unicode="." horiz-adv-x="1056" 
d="M199 133c0 22.667 4.16699 43.667 12.5 63s19.666 36.333 33.999 51s31.166 26.167 50.499 34.5s40.333 12.5 63 12.5s43.834 -4.16699 63.501 -12.5s36.834 -19.833 51.501 -34.5s26.167 -31.667 34.5 -51s12.5 -40.333 12.5 -63s-4.16699 -43.667 -12.5 -63
s-19.833 -36 -34.5 -50s-31.834 -25 -51.501 -33s-40.834 -12 -63.501 -12s-43.667 4 -63 12s-36.166 19 -50.499 33s-25.666 30.667 -33.999 50s-12.5 40.333 -12.5 63z" />
    <glyph glyph-name="slash" unicode="/" horiz-adv-x="1455" 
d="M776 1558h166l-713 -1992h-163z" />
    <glyph glyph-name="zero" unicode="0" horiz-adv-x="1861" 
d="M755 -31c-90.667 0 -173.497 14.6689 -248.497 44.002s-139.333 71.5 -193 126.5s-95.334 121.833 -125.001 200.5s-44.5 167.334 -44.5 266.001c0 90.667 14.5 175 43.5 253s70.5 145.667 124.5 203s119.167 102.5 195.5 135.5s162.166 49.5 257.499 49.5
c103.333 0 193.333 -17.333 270 -52s140.167 -81.334 190.5 -140.001s88 -126.334 113 -203.001s37.5 -157.334 37.5 -242.001c0 -90 -14.5 -174 -43.5 -252s-70.333 -145.833 -124 -203.5s-118.834 -103 -195.501 -136s-162.667 -49.5 -258 -49.5zM771.003 93.002
c48 0 90.5 6.83203 127.5 20.499s69.333 32.334 97 56.001s51 51.5 70 83.5s34.333 66 46 102s20 73.333 25 112s7.5 76.667 7.5 114c0 45.333 -3.16699 90.333 -9.5 135s-16.333 87 -30 127s-31 77.167 -52 111.5s-46.167 64 -75.5 89s-62.833 44.5 -100.5 58.5
s-80.167 21 -127.5 21c-48 0 -90.5 -7 -127.5 -21s-69.333 -33.167 -97 -57.5s-51 -52.666 -70 -84.999s-34.333 -66.666 -46 -102.999s-20 -73.833 -25 -112.5s-7.5 -76.334 -7.5 -113.001c0 -41.333 2.83301 -83.333 8.5 -126s14.834 -83.834 27.501 -123.501
s29.167 -77.167 49.5 -112.5s45.166 -66 74.499 -92s63.333 -46.5 102 -61.5s83 -22.5 133 -22.5z" />
    <glyph glyph-name="one" unicode="1" horiz-adv-x="1449" 
d="M207 83l259 61.998c11.333 3.33301 20.833 8.83301 28.5 16.5s11.5 19.167 11.5 34.5v655l16 151h-22l-316 -58v97l446 198h96c-1.33301 -24 -2.5 -50.167 -3.5 -78.5s-1.83301 -57.166 -2.5 -86.499s-1.16699 -58.666 -1.5 -87.999s-0.5 -57.333 -0.5 -84v-706
c0 -15.333 3.33301 -26.833 10 -34.5s15.667 -13.167 27 -16.5l248 -62v-83h-796v83z" />
    <glyph glyph-name="two" unicode="2" horiz-adv-x="1691" 
d="M123 132l205.504 132.496l184 124c57 40.333 109 80.333 156 120s87.167 79.667 120.5 120s59.166 81.666 77.499 123.999s27.5 86.5 27.5 132.5c0 42 -4.83301 78.5 -14.5 109.5s-24.334 56.667 -44.001 77s-44.334 35.5 -74.001 45.5s-64.5 15 -104.5 15
c-42 0 -85 -7.66699 -129 -23s-85.833 -33.166 -125.5 -53.499s-75.334 -41 -107.001 -62l-74.5 -49.5h-53v221l70.5 29.5c28.333 11.667 61.333 22.834 99 33.501s79.5 19.834 125.5 27.501s96 11.5 150 11.5c72.667 0 140.5 -7.83301 203.5 -23.5
s117.833 -38.667 164.5 -69s83.167 -68.166 109.5 -113.499s39.5 -97.666 39.5 -156.999c0 -48.667 -8.66699 -94.5 -26 -137.5s-41.833 -84.167 -73.5 -123.5s-69.5 -77.5 -113.5 -114.5s-92.833 -74.167 -146.5 -111.5s-111.167 -75.166 -172.5 -113.499l-191 -120.5v-20
l185 23h418c14.667 0 26.167 3.16699 34.5 9.5s13.5 16.166 15.5 29.499l23 146h116v-371h-1076v132z" />
    <glyph glyph-name="three" unicode="3" horiz-adv-x="1668" 
d="M113 -41l52.999 -0.00585938c18.667 -12 45.167 -28 79.5 -48s73 -39.667 116 -59s89 -36.166 138 -50.499s97.833 -21.5 146.5 -21.5c50 0 94.333 7.66699 133 23s71.334 36.833 98.001 64.5s47 60.834 61 99.501s21 81.334 21 128.001c0 44 -6 84.667 -18 122
s-31.667 69.833 -59 97.5s-63.666 49.334 -108.999 65.001s-101.333 23.5 -168 23.5h-149v163h128c105.333 0 184.5 23.5 237.5 70.5s79.5 120.833 79.5 221.5c0 36.667 -3.66699 70.5 -11 101.5s-20.166 57.833 -38.499 80.5s-42.833 40.334 -73.5 53.001
s-69.334 19 -116.001 19c-40 0 -81 -6.66699 -123 -20s-82.167 -29.166 -120.5 -47.499s-73.166 -37 -104.499 -56l-75 -46.5h-53v219c17.333 6 38.5 13.833 63.5 23.5s54.5 19.167 88.5 28.5s72.667 17.333 116 24s92 10 146 10c70.667 0 138.167 -7.83301 202.5 -23.5
s121 -38.667 170 -69s88.167 -67.666 117.5 -111.999s44 -95.5 44 -153.5c0 -32 -5.33301 -66.167 -16 -102.5s-29.334 -72 -56.001 -107s-62.5 -67.333 -107.5 -97s-101.5 -53.5 -169.5 -71.5v-16c28 -3.33301 57.5 -8.66602 88.5 -15.999s61.333 -17.5 91 -30.5
s58 -29.167 85 -48.5s50.833 -42.666 71.5 -69.999s37 -59.333 49 -96s18 -78.334 18 -125.001c0 -50.667 -8.66699 -97.334 -26 -140.001s-41 -81.334 -71 -116.001s-65.333 -65.167 -106 -91.5s-84.334 -48.5 -131.001 -66.5s-95 -31.5 -145 -40.5
s-99.667 -13.5 -149 -13.5c-54 0 -104.333 3.33301 -151 10s-89 14.667 -127 24s-71.167 19 -99.5 29l-69.5 25v230z" />
    <glyph glyph-name="four" unicode="4" horiz-adv-x="1771" 
d="M80 268l809 971h161v-968h285v-145h-285l-1 -301c0 -14.667 3.16699 -25.334 9.5 -32.001s15.833 -12 28.5 -16l147 -46v-82h-581v82l147 46c12.667 4 22.167 9.33301 28.5 16s9.5 17.334 9.5 32.001v301h-758v142zM387 271h451v542l21 166h-22l-582 -701v-21z" />
    <glyph glyph-name="five" unicode="5" horiz-adv-x="1679" 
d="M131 -42l52.998 0.000976562c18.667 -12 45 -28 79 -48s72.5 -39.667 115.5 -59s88.833 -36 137.5 -50s97.334 -21 146.001 -21c50 0 94.167 8.66699 132.5 26s70.5 41 96.5 71s45.667 65.167 59 105.5s20 83.833 20 130.5c0 61.333 -9.33301 114.833 -28 160.5
s-46 83.667 -82 114s-80.333 53 -133 68s-113 22.5 -181 22.5c-28 0 -56 -1.66699 -84 -5s-54.5 -7.16602 -79.5 -11.499s-47.5 -9 -67.5 -14s-35.333 -9.16699 -46 -12.5h-57l64 775h877v-199h-761l-34 -379c14.667 4 32.167 7.66699 52.5 11s41.333 6.33301 63 9
s43.334 4.66699 65.001 6s41.834 2 60.501 2c86.667 0 166.334 -10.5 239.001 -31.5s135.334 -52.333 188.001 -94s93.667 -93.834 123 -156.501s44 -135.334 44 -218.001c0 -52.667 -8.33301 -102.167 -25 -148.5s-39.667 -88.833 -69 -127.5s-63.833 -73 -103.5 -103
s-82.334 -55.333 -128.001 -76s-93.334 -36.5 -143.001 -47.5s-99.167 -16.5 -148.5 -16.5c-54 0 -104.333 3.33301 -151 10s-88.834 14.667 -126.501 24s-70.5 18.833 -98.5 28.5l-69 24.5v230z" />
    <glyph glyph-name="six" unicode="6" horiz-adv-x="1772" 
d="M386 792c36.667 42 72.6689 75.9971 108.002 101.997s70.333 46 105 60s69.167 23.333 103.5 28s68.5 7 102.5 7c67.333 0 130.333 -11.5 189 -34.5s109.667 -55.5 153 -97.5s77.5 -92.833 102.5 -152.5s37.5 -126.167 37.5 -199.5c0 -74 -13.5 -143.667 -40.5 -209
s-65.5 -122.166 -115.5 -170.499s-110.333 -86.5 -181 -114.5s-149.334 -42 -236.001 -42c-95.333 0 -178 16.833 -248 50.5s-128 80.667 -174 141s-80.167 132 -102.5 215s-33.5 174.167 -33.5 273.5c0 91.333 7.66699 174.333 23 249s36.666 142 63.999 202
s59.5 113.333 96.5 160s77.167 87.667 120.5 123c29.333 24 60.166 46.333 92.499 67s66.333 38.5 102 53.5s73.334 26.833 113.001 35.5s81.5 13 125.5 13c32 0 62.667 -1.5 92 -4.5s56.666 -6.83301 81.999 -11.5s48.5 -9.5 69.5 -14.5s38.833 -9.5 53.5 -13.5v-212h-53
l-66 28c-26 10.667 -55.167 20.667 -87.5 30s-67.166 17.166 -104.499 23.499s-76 9.5 -116 9.5c-24 0 -46 -2.16699 -66 -6.5s-38.167 -10.166 -54.5 -17.499s-31 -15.666 -44 -24.999s-24.833 -18.666 -35.5 -27.999c-12 -10.667 -26.167 -26 -42.5 -46
s-32.833 -47.167 -49.5 -81.5s-32.5 -77.333 -47.5 -129s-26.5 -114.167 -34.5 -187.5l-15 -68zM385.002 706.997c-2 -13.333 -3.66797 -28.498 -5.00098 -45.498s-2 -35.833 -2 -56.5c0 -90 9.66699 -167.167 29 -231.5s45.333 -117.333 78 -159
s70.5 -72.334 113.5 -92.001s88.167 -29.5 135.5 -29.5c51.333 0 97.333 8.5 138 25.5s75.334 41.167 104.001 72.5s50.5 69.166 65.5 113.499s22.5 93.5 22.5 147.5c0 119.333 -30.5 210.333 -91.5 273s-148.167 94 -261.5 94c-33.333 0 -65.333 -2.66699 -96 -8
s-59.667 -12.833 -87 -22.5s-53 -21.5 -77 -35.5s-46 -29.333 -66 -46z" />
    <glyph glyph-name="seven" unicode="7" horiz-adv-x="1669" 
d="M1062 1019v24l-135 -21h-572c-14 0 -24.5 -3.16699 -31.5 -9.5s-11.5 -15.833 -13.5 -28.5l-33 -228h-124v454h1116v-93l-776 -1491h-203z" />
    <glyph glyph-name="eight" unicode="8" horiz-adv-x="1822" 
d="M540 768c-104.667 44.667 -181.996 99.8311 -231.996 165.498s-75 137.834 -75 216.501c0 55.333 13 108 39 158s62.667 93.833 110 131.5s104 67.667 170 90s139.333 33.5 220 33.5c78 0 147.667 -9.66699 209 -29s113.166 -46.166 155.499 -80.499
s74.666 -75.166 96.999 -122.499s33.5 -99.333 33.5 -156c0 -37.333 -5.83301 -73.5 -17.5 -108.5s-29.5 -68 -53.5 -99s-54.5 -59.5 -91.5 -85.5s-80.833 -49 -131.5 -69c120.667 -44.667 208.667 -100 264 -166s83 -144.333 83 -235c0 -58.667 -13.5 -115 -40.5 -169
s-66.167 -101.5 -117.5 -142.5s-114 -73.833 -188 -98.5s-157.667 -37 -251 -37c-89.333 0 -168.333 10.5 -237 31.5s-126.334 50.333 -173.001 88s-81.834 82.167 -105.501 133.5s-35.5 107.333 -35.5 168c0 44.667 7.66699 86.167 23 124.5s38.5 73.333 69.5 105
s69.333 60.167 115 85.5s99.167 47.666 160.5 66.999zM904.004 836.997c19.333 16.667 38.0029 34.999 56.0029 54.999s33.833 42.333 47.5 67s24.667 52.334 33 83.001s12.5 65.334 12.5 104.001c0 42 -6.33301 81 -19 117s-31.834 67 -57.501 93
s-57.834 46.333 -96.501 61s-84.334 22 -137.001 22c-44 0 -84 -6.5 -120 -19.5s-66.833 -31.167 -92.5 -54.5s-45.667 -50.833 -60 -82.5s-21.5 -65.834 -21.5 -102.501c0 -39.333 8 -74 24 -104s42 -58 78 -84s82.833 -51.333 140.5 -76s128.5 -51 212.5 -79z
M609.007 743.996c-32 -18.667 -61.3311 -39.332 -87.998 -61.999s-49.834 -47.334 -69.501 -74.001s-34.834 -55.167 -45.501 -85.5s-16 -62.5 -16 -96.5c0 -51.333 8.66699 -97.833 26 -139.5s42 -77.167 74 -106.5s70.667 -51.833 116 -67.5s95.666 -23.5 150.999 -23.5
c54 0 102.5 7.33301 145.5 22s79.667 35.167 110 61.5s53.5 57.333 69.5 93s24 74.5 24 116.5c0 44 -10.333 82.167 -31 114.5s-51.667 62 -93 89s-93.166 52.833 -155.499 77.5s-134.833 51.667 -217.5 81z" />
    <glyph glyph-name="nine" unicode="9" horiz-adv-x="1772" 
d="M240 -101l54.999 0.00195312c16.667 -8.66699 39 -18.334 67 -29.001s58.833 -20.667 92.5 -30s68.834 -17.166 105.501 -23.499s71.667 -9.5 105 -9.5c24.667 0 46.834 2.16699 66.501 6.5s37.5 10.166 53.5 17.499s30.667 15.833 44 25.5s26 19.834 38 30.501
c12 10 26.5 27 43.5 51s33.833 55.167 50.5 93.5s32.167 84 46.5 137s25.166 113.5 32.499 181.5l14 66l-11 6c-36.667 -42 -72.667 -76 -108 -102s-70.333 -46 -105 -60s-69.167 -23.333 -103.5 -28s-68.5 -7 -102.5 -7c-67.333 0 -130.333 11.5 -189 34.5
s-109.667 55.5 -153 97.5s-77.5 92.833 -102.5 152.5s-37.5 126.167 -37.5 199.5c0 74 13.5 143.667 40.5 209s65.5 122.333 115.5 171s110.167 87.167 180.5 115.5s149.166 42.5 236.499 42.5c95.333 0 178 -17.167 248 -51.5s128 -81.833 174 -142.5
s80.167 -133 102.5 -217s33.5 -175.333 33.5 -274c0 -89.333 -7.83301 -171.833 -23.5 -247.5s-37 -144.834 -64 -207.501s-59 -118.5 -96 -167.5s-76.833 -91.5 -119.5 -127.5c-29.333 -24.667 -60 -47.334 -92 -68.001s-66 -38.5 -102 -53.5s-73.833 -26.667 -113.5 -35
s-81.5 -12.5 -125.5 -12.5c-31.333 0 -61.666 1.5 -90.999 4.5s-56.833 6.5 -82.5 10.5s-49 8.5 -70 13.5s-38.833 9.5 -53.5 13.5v214zM1044 507.002c2 14.667 3.66797 31.498 5.00098 50.498s2 36.167 2 51.5c0 90 -9.66699 167.333 -29 232s-45.333 117.834 -78 159.501
s-70.5 72.5 -113.5 92.5s-88.167 30 -135.5 30c-51.333 0 -97.333 -8.5 -138 -25.5s-75.334 -41.333 -104.001 -73s-50.5 -69.667 -65.5 -114s-22.5 -93.833 -22.5 -148.5c0 -119.333 30.5 -210.333 91.5 -273s148.167 -94 261.5 -94c33.333 0 65.333 2.66699 96 8
s59.667 12.833 87 22.5s53 21.334 77 35.001s46 29.167 66 46.5z" />
    <glyph glyph-name="colon" unicode=":" horiz-adv-x="1198" 
d="M427 801c-22 0 -42.667 4 -62 12s-36.166 19 -50.499 33s-25.666 30.5 -33.999 49.5s-12.5 39.833 -12.5 62.5c0 22 4.16699 42.5 12.5 61.5s19.666 35.667 33.999 50s31.166 25.5 50.499 33.5s40 12 62 12c22.667 0 43.667 -4.16699 63 -12.5s36.166 -19.5 50.499 -33.5
s25.666 -30.5 33.999 -49.5s12.5 -39.5 12.5 -61.5c0 -22.667 -4.16699 -43.5 -12.5 -62.5s-19.666 -35.5 -33.999 -49.5s-31.166 -25 -50.499 -33s-40.333 -12 -63 -12zM427 -7c-22 0 -42.667 4 -62 12s-36.166 19 -50.499 33s-25.666 30.5 -33.999 49.5
s-12.5 39.5 -12.5 61.5s4.16699 42.667 12.5 62s19.666 36.166 33.999 50.499s31.166 25.666 50.499 33.999s40 12.5 62 12.5c22.667 0 43.667 -4.16699 63 -12.5s36.166 -19.666 50.499 -33.999s25.666 -31.166 33.999 -50.499s12.5 -40 12.5 -62
s-4.16699 -42.5 -12.5 -61.5s-19.666 -35.5 -33.999 -49.5s-31.166 -25 -50.499 -33s-40.333 -12 -63 -12z" />
    <glyph glyph-name="semicolon" unicode=";" horiz-adv-x="1198" 
d="M427 801c-22 0 -42.667 4 -62 12s-36.166 19 -50.499 33s-25.666 30.5 -33.999 49.5s-12.5 39.833 -12.5 62.5c0 22 4.16699 42.5 12.5 61.5s19.666 35.667 33.999 50s31.166 25.5 50.499 33.5s40 12 62 12c22.667 0 43.667 -4.16699 63 -12.5s36.166 -19.5 50.499 -33.5
s25.666 -30.5 33.999 -49.5s12.5 -39.5 12.5 -61.5c0 -22.667 -4.16699 -43.5 -12.5 -62.5s-19.666 -35.5 -33.999 -49.5s-31.166 -25 -50.499 -33s-40.333 -12 -63 -12zM207 -313c26 20 50.832 41.166 74.499 63.499s45.167 45.333 64.5 69s35.833 47.334 49.5 71.001
s23.167 46.5 28.5 68.5l-72 47c-20 13.333 -36.5 26.833 -49.5 40.5s-22.5 28.167 -28.5 43.5s-9 34 -9 56c0 13.333 3.16699 27.5 9.5 42.5s15.333 28.833 27 41.5s26.167 23.167 43.5 31.5s37 12.5 59 12.5c34 0 62.833 -5.5 86.5 -16.5s43 -26.833 58 -47.5
s25.833 -45.334 32.5 -74.001s10 -60.667 10 -96c0 -34 -5.33301 -66.667 -16 -98s-24.667 -61.333 -42 -90s-37.166 -55.5 -59.499 -80.5s-45 -48.167 -68 -69.5s-45.5 -40.666 -67.5 -57.999l-58 -45z" />
    <glyph glyph-name="less" unicode="&#x3c;" horiz-adv-x="1896" 
d="M256 697l1036 540v-176l-839 -434l839 -435v-175l-1036 539v141z" />
    <glyph glyph-name="equal" unicode="=" horiz-adv-x="1896" 
d="M222 912h1111v-154h-1111v154zM222 495h1111v-154h-1111v154z" />
    <glyph glyph-name="greater" unicode="&#x3e;" horiz-adv-x="1896" 
d="M263 192l839 435l-839 434v176l1036 -540v-141l-1036 -539v175z" />
    <glyph glyph-name="question" unicode="?" horiz-adv-x="1489" 
d="M400 781c42 4.66699 86.501 13.1689 133.501 25.502s90.5 30.5 130.5 54.5s73 55.5 99 94.5s39 87.5 39 145.5c0 42 -4.16699 78.333 -12.5 109s-21.166 56.334 -38.499 77.001s-39.666 36 -66.999 46s-60 15 -98 15c-35.333 0 -71.333 -6 -108 -18
s-71.334 -26.333 -104.001 -43s-62.334 -33.5 -89.001 -50.5s-47.667 -30.833 -63 -41.5h-43v212c14.667 6 33.334 14.167 56.001 24.5s49 20.5 79 30.5s63.167 18.667 99.5 26s75.5 11 117.5 11c60 0 118 -9.33301 174 -28s105.833 -45.834 149.5 -81.501
s78.667 -79.5 105 -131.5s39.5 -111 39.5 -177c0 -66.667 -11.833 -125.334 -35.5 -176.001s-55.834 -94.834 -96.501 -132.501s-87.834 -69.167 -141.501 -94.5s-110.5 -46 -170.5 -62v-188h-155v353zM316.001 131.002c0 22 4.16699 42.833 12.5 62.5s19.5 36.667 33.5 51
s30.667 25.666 50 33.999s40 12.5 62 12.5s42.833 -4.16699 62.5 -12.5s36.834 -19.666 51.501 -33.999s26.167 -31.333 34.5 -51s12.5 -40.5 12.5 -62.5s-4.16699 -42.5 -12.5 -61.5s-19.833 -35.5 -34.5 -49.5s-31.834 -25 -51.501 -33s-40.5 -12 -62.5 -12
s-42.667 4 -62 12s-36 19 -50 33s-25.167 30.5 -33.5 49.5s-12.5 39.5 -12.5 61.5z" />
    <glyph glyph-name="at" unicode="@" horiz-adv-x="2628" 
d="M1292 180c-32.667 -37.333 -63.6719 -66.5029 -93.0049 -87.5029s-56.666 -36.667 -81.999 -47s-48.5 -16.666 -69.5 -18.999s-39.167 -3.5 -54.5 -3.5c-48.667 0 -91.5 9 -128.5 27s-68 43 -93 75s-44 70 -57 114s-19.5 92 -19.5 144s5.66699 103.667 17 155
s27.5 100.166 48.5 146.499s46.833 89.333 77.5 129s65.334 74 104.001 103s81 51.667 127 68s95.333 24.5 148 24.5c50.667 0 93.667 -8.66699 129 -26s62.666 -37 81.999 -59l40 77h179l-136 -598c-4 -16.667 -7.83301 -34 -11.5 -52l-10 -51
c-3 -16 -5.33301 -30.333 -7 -43s-2.5 -22 -2.5 -28c0 -8 1 -16.5 3 -25.5s6 -17.167 12 -24.5s14.667 -13.5 26 -18.5s26 -7.5 44 -7.5c32.667 0 63.667 7 93 21s56.333 33 81 57s46.834 52.5 66.501 85.5s36.167 68.5 49.5 106.5s23.666 77.833 30.999 119.5
s11 83.167 11 124.5c0 118.667 -17.5 220.834 -52.5 306.501s-83.5 156 -145.5 211s-135.167 95.5 -219.5 121.5s-175.5 39 -273.5 39c-66.667 0 -132.667 -9.83301 -198 -29.5s-127.333 -47.667 -186 -84s-112.834 -80.666 -162.501 -132.999s-92.667 -111 -129 -176
s-64.833 -135.833 -85.5 -212.5s-31 -157.667 -31 -243c0 -132.667 19.5 -248.167 58.5 -346.5s91.333 -180 157 -245s141.834 -113.667 228.501 -146s177.667 -48.5 273 -48.5c55.333 0 112.833 4.66699 172.5 14s118.834 24 177.501 44s115.834 46 171.501 78
s107.167 70.667 154.5 116l71 -106c-46 -40 -98 -76.167 -156 -108.5s-121 -60 -189 -83s-140.333 -40.667 -217 -53s-157 -18.5 -241 -18.5c-82 0 -160 9.5 -234 28.5s-142.5 46.167 -205.5 81.5s-119.833 78.5 -170.5 129.5s-93.834 108.167 -129.501 171.5
s-63 132.5 -82 207.5s-28.5 154.5 -28.5 238.5c0 103.333 12.5 201 37.5 293s60.333 176.667 106 254s100.334 146.833 164.001 208.5s134.334 114 212.001 157s161.167 76 250.5 99s182.333 34.5 279 34.5c116.667 0 223.167 -17.167 319.5 -51.5
s178.833 -83.666 247.5 -147.999s121.834 -142.833 159.501 -235.5s56.5 -197 56.5 -313c0 -69.333 -8.33301 -134.5 -25 -195.5s-38 -116.5 -64 -166.5s-54.667 -93.667 -86 -131s-61.333 -66.666 -90 -87.999c-30 -22.667 -60.5 -41.5 -91.5 -56.5
s-61.5 -26.833 -91.5 -35.5s-58.667 -14.834 -86 -18.501s-52.333 -5.5 -75 -5.5c-27.333 0 -50.5 5.16699 -69.5 15.5s-34.667 23.166 -47 38.499s-21.5 32.333 -27.5 51s-9.33301 36.334 -10 53.001h-2zM1421 837.997c-11.333 4.66699 -25.833 9.16797 -43.5 13.501
s-36 8.16602 -55 11.499s-37.5 6 -55.5 8s-32.333 3 -43 3c-57.333 0 -106.5 -13.5 -147.5 -40.5s-74.667 -62.167 -101 -105.5s-45.833 -91.833 -58.5 -145.5s-19 -107.167 -19 -160.5c0 -37.333 3.83301 -71.833 11.5 -103.5s19.834 -59 36.501 -82
s38.167 -40.833 64.5 -53.5s58.166 -19 95.499 -19c28 0 58.667 8 92 24s64.333 40 93 72z" />
    <glyph glyph-name="A" unicode="A" horiz-adv-x="1856" 
d="M16 83l107 52c11.333 5.33301 21.333 13 30 23s15 20.333 19 31l410 1042l116 242h136l510 -1289c4 -10 9.83301 -20.333 17.5 -31s16.5 -18 26.5 -22l112 -48v-83h-543v83l167 66l-138 351h-543l-130 -345l170 -72v-83h-467v83zM932 659l-165 403l-36 135h-22l-211 -538
h434z" />
    <glyph glyph-name="B" unicode="B" horiz-adv-x="1827" 
d="M131 83l161.998 56c10.667 3.33301 19.167 8.5 25.5 15.5s9.5 17.833 9.5 32.5v1080c0 13.333 -3.5 23.333 -10.5 30s-15.167 11.667 -24.5 15l-162 58v81h601c106.667 0 194.334 -9 263.001 -27s122.667 -42 162 -72s66.5 -64.333 81.5 -103s22.5 -78.667 22.5 -120
c0 -46 -7.16699 -88 -21.5 -126s-34.666 -71.833 -60.999 -101.5s-58.5 -55 -96.5 -76s-80.667 -37.167 -128 -48.5v-8c58.667 -3.33301 112.667 -13.833 162 -31.5s91.833 -41.5 127.5 -71.5s63.5 -65.833 83.5 -107.5s30 -87.834 30 -138.501
c0 -55.333 -7.66699 -104.333 -23 -147s-36.5 -79.5 -63.5 -110.5s-59.333 -57 -97 -78s-78.5 -37.667 -122.5 -50s-90.5 -21.166 -139.5 -26.499s-98.833 -8 -149.5 -8h-631v83zM653.998 810c70.667 0 130.004 5.33301 178.004 16s86.667 26 116 46
s50.166 44.333 62.499 73s18.5 61 18.5 97c0 48 -6.33301 89.333 -19 124s-32.334 63.167 -59.001 85.5s-60.834 38.833 -102.501 49.5s-91.834 16 -150.501 16h-151v-507h107zM780.002 134c113.333 0 197.498 20.167 252.498 60.5s82.5 105.833 82.5 196.5
c0 53.333 -6.66699 98.333 -20 135s-35.166 66.5 -65.499 89.5s-69.666 39.5 -117.999 49.5s-107.5 15 -177.5 15h-187v-546h233z" />
    <glyph glyph-name="C" unicode="C" horiz-adv-x="1823" 
d="M1370 335l0.00195312 -148c-29.333 -24 -63.333 -48.833 -102 -74.5s-80.5 -49.167 -125.5 -70.5s-93 -38.833 -144 -52.5s-103.5 -20.5 -157.5 -20.5c-108 0 -206.5 16.667 -295.5 50s-165.167 82 -228.5 146s-112.333 142.833 -147 236.5s-52 200.834 -52 321.501
c0 116 18 220.833 54 314.5s86.333 173.5 151 239.5s141.5 116.833 230.5 152.5s186.167 53.5 291.5 53.5c38 0 79.667 -2.5 125 -7.5s90.666 -11.333 135.999 -19s88.666 -15.667 129.999 -24s77 -15.833 107 -22.5v-380h-136l-31 214
c-1.33301 9.33301 -7.33301 17.833 -18 25.5s-20 13.5 -28 17.5c-22.667 10.667 -45.167 20 -67.5 28s-45.333 14.667 -69 20s-48.167 9.16602 -73.5 11.499s-52.333 3.5 -81 3.5c-71.333 0 -136.5 -11.833 -195.5 -35.5s-109.5 -59.5 -151.5 -107.5
s-74.667 -108.333 -98 -181s-35 -158 -35 -256c0 -208.667 46.5 -366.5 139.5 -473.5s227.5 -160.5 403.5 -160.5c48 0 92.5 7.5 133.5 22.5s78.5 33 112.5 54s64.5 42.833 91.5 65.5l69.5 57h61z" />
    <glyph glyph-name="D" unicode="D" horiz-adv-x="2000" 
d="M131 83l161.996 56c9.33301 3.33301 17.5 8.5 24.5 15.5s10.5 17.833 10.5 32.5v1080c0 13.333 -3.5 23.333 -10.5 30s-15.167 11.667 -24.5 15l-162 58v81h681c48.667 0 100.334 -4.5 155.001 -13.5s109.167 -24.5 163.5 -46.5s106.333 -51 156 -87
s93.334 -81.167 131.001 -135.5s67.834 -118.5 90.501 -192.5s34 -159.667 34 -257c0 -124 -19.167 -231.167 -57.5 -321.5s-90.666 -165 -156.999 -224s-144 -102.667 -233 -131s-184.5 -42.5 -286.5 -42.5h-677v83zM809.996 134c84.667 0 157.833 12.332 219.5 36.999
s112.5 60.667 152.5 108s69.5 105.5 88.5 174.5s28.5 147.5 28.5 235.5c0 96.667 -13 183.834 -39 261.501s-63 143.667 -111 198s-106 96 -174 125s-144 43.5 -228 43.5h-200v-1183h263z" />
    <glyph glyph-name="E" unicode="E" horiz-adv-x="1829" 
d="M131 83l162.001 56c10 3.33301 18.333 8.5 25 15.5s10 17.833 10 32.5v1080c0 13.333 -3.5 23.333 -10.5 30s-15.167 11.667 -24.5 15l-162 58v81h1146v-366h-137l-30 192c-2 12.667 -7 22.167 -15 28.5s-17.333 9.5 -28 9.5h-520v-493h304c14 0 24 3 30 9
s10.333 15.667 13 29l30 156h110v-524h-110l-30 155c-2.66699 13.333 -7 23.166 -13 29.499s-16 9.5 -30 9.5h-304v-550h595c9.33301 0 18.166 3.33301 26.499 10s13.5 16.334 15.5 29.001l31 214h136v-389h-1220v83z" />
    <glyph glyph-name="F" unicode="F" horiz-adv-x="1712" 
d="M131 83l162 56c10.667 3.33301 19.167 8.5 25.5 15.5s9.5 17.833 9.5 32.5v1080c0 13.333 -3.5 23.333 -10.5 30s-15.167 11.667 -24.5 15l-162 58v81h1150v-366h-137l-30 192c-2 12.667 -7 22.167 -15 28.5s-17.333 9.5 -28 9.5h-524v-511h320c14 0 24 3 30 9
s10.333 15.333 13 28l30 157h109v-524h-109l-30 155c-2.66699 12.667 -7 22.167 -13 28.5s-16 9.5 -30 9.5h-320v-480c0 -14.667 3.66699 -25.5 11 -32.5s16 -12.167 26 -15.5l169 -56v-83h-622v83z" />
    <glyph glyph-name="G" unicode="G" horiz-adv-x="1977" 
d="M1168 509c0 13.333 -3.34082 23.1689 -10.0078 29.502s-15 10.833 -25 13.5l-216 59v81h630v-81l-127 -59c-7.33301 -3.33301 -15.166 -8 -23.499 -14s-12.5 -15.667 -12.5 -29v-167c0 -66 0.333008 -121.333 1 -166s2.33398 -80 5.00098 -106
c-37.333 -13.333 -78.166 -26.166 -122.499 -38.499s-90.833 -23.333 -139.5 -33s-98.5 -17.334 -149.5 -23.001s-101.833 -8.5 -152.5 -8.5c-96.667 0 -187.834 16.167 -273.501 48.5s-160.667 80.166 -225 143.499s-115.333 142 -153 236s-56.5 202.667 -56.5 326
c0 117.333 18.333 223 55 317s87.5 174 152.5 240s142 116.667 231 152s186.167 53 291.5 53c66.667 0 126.334 -2.5 179.001 -7.5s100.334 -11.333 143.001 -19s80.834 -15.667 114.501 -24l93.5 -22.5v-380h-137l-30 215c-1.33301 10 -7.16602 18.5 -17.499 25.5
s-19.833 12.167 -28.5 15.5c-24.667 10 -50.167 18.833 -76.5 26.5s-53.166 14.334 -80.499 20.001s-55 10 -83 13s-56 4.5 -84 4.5c-72 0 -137.667 -11.833 -197 -35.5s-110 -59.667 -152 -108s-74.667 -109.166 -98 -182.499s-35 -159.333 -35 -258
s11.833 -188.834 35.5 -270.501s58.167 -151.834 103.5 -210.501s101 -104.334 167 -137.001s141 -49 225 -49c33.333 0 64.5 2.16699 93.5 6.5s55.333 9.66602 79 15.999s44.334 12.833 62.001 19.5s32.167 12.334 43.5 17.001v351z" />
    <glyph glyph-name="H" unicode="H" horiz-adv-x="2142" 
d="M131 83l162 55.999c10 3.33301 18.333 8.5 25 15.5s10 17.833 10 32.5v1080c0 13.333 -3.5 23.333 -10.5 30s-15.167 11.667 -24.5 15l-162 58v81h614v-81l-161 -58c-10.667 -4 -19.5 -9.16699 -26.5 -15.5s-10.5 -16.166 -10.5 -29.499v-445h717v445
c0 13.333 -3.5 23.166 -10.5 29.499s-16.167 11.5 -27.5 15.5l-160 58v81h615v-81l-160 -58c-11.333 -4 -20.5 -9.16699 -27.5 -15.5s-10.5 -16.166 -10.5 -29.499v-1080c0 -14.667 3.66699 -25.5 11 -32.5s16.333 -12.167 27 -15.5l160 -56v-83h-615v83l160 56
c11.333 4 20.5 9.33301 27.5 16s10.5 17.334 10.5 32.001v499h-717v-499c0 -14.667 3.33301 -25.334 10 -32.001s15.667 -12 27 -16l161 -56v-83h-614v83z" />
    <glyph glyph-name="I" unicode="I" horiz-adv-x="1236" 
d="M131 83l172 55.999c11.333 4 20 9.33301 26 16s9 17.334 9 32.001v1080c0 13.333 -3.5 23.333 -10.5 30s-15.167 11.667 -24.5 15l-172 58v81h634v-81l-171 -58c-10.667 -3.33301 -19.5 -8.33301 -26.5 -15s-10.5 -16.667 -10.5 -30v-1080
c0 -14.667 3.66699 -25.5 11 -32.5s16 -12.167 26 -15.5l171 -56v-83h-634v83z" />
    <glyph glyph-name="J" unicode="J" horiz-adv-x="1230" 
d="M-134 -181l58.999 -0.000976562l50.5 -17.5c19 -6.33301 38.833 -12.333 59.5 -18s41.5 -10.5 62.5 -14.5s40.5 -6 58.5 -6c49.333 0 87.5 6 114.5 18s46.167 27.333 57.5 46c8 12.667 14.167 30.834 18.5 54.501s7.5 51.834 9.5 84.501s3.16699 69.334 3.5 110.001
s0.5 84 0.5 130v1061c0 13.333 -3 23.333 -9 30s-14.667 11.667 -26 15l-190 58v81h642v-81l-161 -58c-10 -3.33301 -18.333 -8.33301 -25 -15s-10 -16.667 -10 -30v-1048c0 -111.333 -12 -207 -36 -287s-57.667 -146 -101 -198s-95.666 -90.333 -156.999 -115
s-129.333 -37 -204 -37c-12.667 0 -28.5 0.833008 -47.5 2.5s-38.667 3.66699 -59 6s-40.333 5.16602 -60 8.49902s-36.5 6.66602 -50.5 9.99902v210z" />
    <glyph glyph-name="K" unicode="K" horiz-adv-x="1912" 
d="M131 83l161.999 55.999c10 3.33301 18.333 8.5 25 15.5s10 17.833 10 32.5v1080c0 13.333 -3.33301 23.333 -10 30s-15 11.667 -25 15l-162 58v81h614v-81l-161 -58c-11.333 -4 -20.333 -9.16699 -27 -15.5s-10 -16.166 -10 -29.499v-563l561 604l-79 62v81h481v-81
l-171 -56c-11.333 -3.33301 -24.166 -8.83301 -38.499 -16.5s-27.833 -18.167 -40.5 -31.5l-414 -433l481 -643l13.5 -16c5 -6 10.333 -11.667 16 -17s11.5 -10.333 17.5 -15s12 -8 18 -10l158 -54v-78h-504v78l59 52l-411 559l-147 -70v-432
c0 -14.667 3.33301 -25.5 10 -32.5s15.667 -12.167 27 -15.5l161 -56v-83h-614v83z" />
    <glyph glyph-name="L" unicode="L" horiz-adv-x="1715" 
d="M131 83l162 56c8.66699 3.33301 16.667 8.5 24 15.5s11 17.833 11 32.5v1080c0 13.333 -3.33301 23.333 -10 30s-15 11.667 -25 15l-162 58v81h614v-81l-161 -58c-10 -3.33301 -18.667 -8.33301 -26 -15s-11 -16.667 -11 -30v-1131h519c4.66699 0 9.5 0.833008 14.5 2.5
s9.5 4 13.5 7s7.5 7 10.5 12s4.83301 10.833 5.5 17.5l35 303h141v-478h-1155v83z" />
    <glyph glyph-name="M" unicode="M" horiz-adv-x="2477" 
d="M131 83l162 64.002c9.33301 3.33301 17.5 8.16602 24.5 14.499s10.5 16.833 10.5 31.5v1074c0 13.333 -3.33301 23.333 -10 30s-15 11.667 -25 15l-162 58v81h546l340 -964l43 -165h21l385 1129h539v-81l-160 -58c-9.33301 -3.33301 -18 -8.33301 -26 -15
s-12 -16.667 -12 -30v-1080c0 -14.667 3.5 -25.334 10.5 -32.001s16.167 -12 27.5 -16l160 -56v-83h-611v83l159 56c10.667 3.33301 19.667 8.5 27 15.5s11 17.833 11 32.5v1151h-24l-45 -147l-346 -971l-92 -220h-121l-420 1191l-43 147h-21v-1145
c0 -14.667 3.33301 -25 10 -31s15 -11 25 -15l159 -64v-83h-542v83z" />
    <glyph glyph-name="N" unicode="N" horiz-adv-x="2151" 
d="M131 83l162 63.999c10 4 18.333 9 25 15s10 16.333 10 31v1074c0 13.333 -3.5 23.333 -10.5 30s-15.167 11.667 -24.5 15l-167 58v81h433l704 -1001l72 -126h21v938c0 13.333 -3.83301 22.833 -11.5 28.5s-16.167 10.5 -25.5 14.5l-160 65v81h542v-81l-161 -65
c-8 -3.33301 -16 -8 -24 -14s-12 -15.667 -12 -29v-1042l-31 -230h-138l-766 1085l-69 125h-21v-1007c0 -14.667 3.83301 -25.167 11.5 -31.5s15.5 -11.166 23.5 -14.499l159 -64v-83h-542v83z" />
    <glyph glyph-name="O" unicode="O" horiz-adv-x="1996" 
d="M827 -33c-114 0 -215 17.335 -303 52.002s-162.167 84.834 -222.5 150.501s-106 145.5 -137 239.5s-46.5 200.333 -46.5 319c0 111.333 16.167 213.333 48.5 306s79 172.5 140 239.5s135.5 119 223.5 156s187.667 55.5 299 55.5c120.667 0 225.5 -19 314.5 -57
s162.667 -90.667 221 -158s101.666 -147.333 129.999 -240s42.5 -193.334 42.5 -302.001c0 -64.667 -6 -128.5 -18 -191.5s-30.333 -122.667 -55 -179s-56.167 -108.333 -94.5 -156s-83.833 -88.834 -136.5 -123.501s-112.667 -61.834 -180 -81.501
s-142.666 -29.5 -225.999 -29.5zM845 98.002c74.667 0 140.167 14.333 196.5 43s103.333 69 141 121s66 114.5 85 187.5s28.5 154.167 28.5 243.5c0 102 -10 193.833 -30 275.5s-50.167 151 -90.5 208s-91 100.667 -152 131s-132.833 45.5 -215.5 45.5
c-79.333 0 -147.333 -15.333 -204 -46s-103.167 -72.667 -139.5 -126s-63 -115.833 -80 -187.5s-25.5 -148.167 -25.5 -229.5c0 -101.333 9.83301 -193 29.5 -275s49.5 -152 89.5 -210s90.5 -102.667 151.5 -134s132.833 -47 215.5 -47z" />
    <glyph glyph-name="P" unicode="P" horiz-adv-x="1714" 
d="M131 83l162 56.002c9.33301 3.33301 17.5 8.5 24.5 15.5s10.5 17.833 10.5 32.5v1080c0 13.333 -3.33301 23.333 -10 30s-15 11.667 -25 15l-162 58v81h600c75.333 0 145.833 -7.5 211.5 -22.5s123 -38.5 172 -70.5s87.5 -73.167 115.5 -123.5s42 -110.5 42 -180.5
c0 -74 -12.167 -140.5 -36.5 -199.5s-58.333 -109.167 -102 -150.5s-95.667 -73 -156 -95s-126.5 -33 -198.5 -33c-16.667 0 -35.167 1.83301 -55.5 5.5s-41 8.66699 -62 15s-41.5 13.666 -61.5 21.999s-37.667 17.166 -53 26.499v-458c0 -14.667 3.66699 -25.5 11 -32.5
s16 -12.167 26 -15.5l169 -56v-83h-622v83zM547 737.002c12 -3.33301 26.1641 -6.16895 42.4971 -8.50195s33.5 -4.16602 51.5 -5.49902s36.333 -2.33301 55 -3s36 -1 52 -1c42.667 0 79.334 5.33301 110.001 16s56.667 24.5 78 41.5s38.5 36.167 51.5 57.5
s23 42.666 30 63.999s11.667 41.5 14 60.5s3.5 34.833 3.5 47.5c0 40.667 -5.16699 79.834 -15.5 117.501s-28.666 70.834 -54.999 99.501s-62.166 51.5 -107.499 68.5s-103 25.5 -173 25.5h-137v-580z" />
    <glyph glyph-name="Q" unicode="Q" horiz-adv-x="2000" 
d="M816 -33l-13.999 -0.000976562c-4.66699 0 -9.33398 0.333008 -14.001 1c-108 4 -203.5 24.333 -286.5 61s-153 87.5 -210 152.5s-100.167 143.5 -129.5 235.5s-44 195.667 -44 311c0 111.333 16.167 213.333 48.5 306s79 172.5 140 239.5s135.5 119 223.5 156
s187.667 55.5 299 55.5c120.667 0 225.5 -19 314.5 -57s162.667 -90.667 221 -158s101.666 -147.333 129.999 -240s42.5 -193.334 42.5 -302.001c0 -80.667 -9.66699 -159.5 -29 -236.5s-49 -148 -89 -213s-90.333 -122 -151 -171s-132 -85.5 -214 -109.5l228 -303
c2.66699 -4 6.83398 -9.16699 12.501 -15.5s12 -12.666 19 -18.999s14.167 -12 21.5 -17s14.666 -8.5 21.999 -10.5l171 -52v-83h-252c-34.667 0 -62.167 2 -82.5 6s-37.666 10.833 -51.999 20.5s-27.5 22.834 -39.5 39.501l-45 64zM845.001 97.999
c74.667 0 140.167 14.333 196.5 43s103.333 69 141 121s66 114.5 85 187.5s28.5 154.167 28.5 243.5c0 102 -10 193.833 -30 275.5s-50.167 151 -90.5 208s-91 100.667 -152 131s-132.833 45.5 -215.5 45.5c-79.333 0 -147.333 -15.333 -204 -46
s-103.167 -72.667 -139.5 -126s-63 -115.833 -80 -187.5s-25.5 -148.167 -25.5 -229.5c0 -101.333 9.83301 -193 29.5 -275s49.5 -152 89.5 -210s90.5 -102.667 151.5 -134s132.833 -47 215.5 -47z" />
    <glyph glyph-name="R" unicode="R" horiz-adv-x="1898" 
d="M131 83l161.999 56c10.667 3.33301 19.167 8.5 25.5 15.5s9.5 17.833 9.5 32.5v1080c0 13.333 -3.5 23.333 -10.5 30s-15.167 11.667 -24.5 15l-162 58v81h610c74 0 138.667 -5 194 -15s102.833 -23.833 142.5 -41.5s72.334 -38.334 98.001 -62.001s46 -49.167 61 -76.5
s25.333 -55.833 31 -85.5s8.5 -59.167 8.5 -88.5c0 -59.333 -10.167 -112 -30.5 -158s-46.333 -85.5 -78 -118.5s-66.667 -59.833 -105 -80.5s-75.5 -35.334 -111.5 -44.001l365 -484c2.66699 -4 6.83398 -9.16699 12.501 -15.5s12 -12.666 19 -18.999s14.167 -12 21.5 -17
s14.666 -8.5 21.999 -10.5l167 -52v-83h-252c-34.667 0 -62 2 -82 6s-36.833 10.833 -50.5 20.5s-26.5 22.834 -38.5 39.501l-46 64l-348 482l-194 40v-465c0 -14.667 3.5 -25.5 10.5 -32.5s15.833 -12.167 26.5 -15.5l161 -56v-83h-614v83zM546.999 773
c7.33301 -1.33301 18.667 -2.66895 34 -4.00195s31.666 -2.66602 48.999 -3.99902s34.333 -2.33301 51 -3s30.334 -1 41.001 -1c54.667 0 102 7.5 142 22.5s73.167 35.333 99.5 61s46 55.167 59 88.5s19.5 68.333 19.5 105c0 48.667 -7.33301 90.667 -22 126
s-36.167 64.333 -64.5 87s-63.833 39.334 -106.5 50.001s-92 16 -148 16h-154v-544z" />
    <glyph glyph-name="S" unicode="S" horiz-adv-x="1663" 
d="M142 448l137.999 0.00292969l30 -209c1.33301 -10 7.33301 -19.5 18 -28.5s19.667 -16.167 27 -21.5c17.333 -11.333 36 -22.5 56 -33.5s41.333 -20.833 64 -29.5s46.834 -15.667 72.501 -21s52.834 -8 81.501 -8c54.667 0 103.834 5.66699 147.501 17
s80.5 27.833 110.5 49.5s53 47.834 69 78.501s24 65 24 103c0 58.667 -17.833 107.334 -53.5 146.001s-83.834 70.667 -144.501 96l-89 34l-87 31.5l-85 30.5c-28 10 -55.333 20.667 -82 32c-82.667 34.667 -147.834 83 -195.501 145s-71.5 136.667 -71.5 224
c0 58 13 111.5 39 160.5s61.5 91.333 106.5 127s98 63.5 159 83.5s126.5 30 196.5 30c42.667 0 83.834 -2 123.501 -6s77.667 -9.16699 114 -15.5s71.5 -13.333 105.5 -21l98 -21.5v-380h-137l-30 199c-1.33301 9.33301 -7.33301 18.666 -18 27.999s-20 16.666 -28 21.999
c-10.667 7.33301 -22.834 14.666 -36.501 21.999s-29.167 14 -46.5 20s-36.666 10.833 -57.999 14.5s-45 5.5 -71 5.5c-50 0 -94.5 -5.33301 -133.5 -16s-71.833 -25.167 -98.5 -43.5s-47 -39.833 -61 -64.5s-21 -51 -21 -79c0 -25.333 3.33301 -50 10 -74
s18 -46.833 34 -68.5s37.667 -41.834 65 -60.501s61.666 -35.667 102.999 -51l81 -29.5l80.5 -29.5l83 -31.5l89.5 -36.5c34 -14.667 67.5 -32.334 100.5 -53.001s62.5 -45.834 88.5 -75.501s47 -64.5 63 -104.5s24 -86.667 24 -140
c0 -55.333 -10.833 -108.833 -32.5 -160.5s-55.667 -97.5 -102 -137.5s-106 -72 -179 -96s-160.5 -36 -262.5 -36c-36 0 -73.667 2.83301 -113 8.5s-79.333 12.834 -120 21.501s-81.667 18.5 -123 29.5l-123 32.5v391z" />
    <glyph glyph-name="T" unicode="T" horiz-adv-x="1804" 
d="M416 83l170 55.999c11.333 4 20.166 9.33301 26.499 16s9.5 17.334 9.5 32.001v1130h-333c-10.667 0 -20.167 -3.16699 -28.5 -9.5s-13.166 -15.833 -14.499 -28.5l-30 -214h-136v386h1304v-386h-137l-30 214c-2 13.333 -7.16699 23 -15.5 29s-17.166 9 -26.499 9h-333
v-1130c0 -14.667 3.66699 -25.5 11 -32.5s15.666 -12.167 24.999 -15.5l170 -56v-83h-632v83z" />
    <glyph glyph-name="U" unicode="U" horiz-adv-x="2072" 
d="M299 1267c0 13.333 -3.50098 23.166 -10.501 29.499s-16.167 11.5 -27.5 15.5l-159 58v81h613v-81l-161 -58c-9.33301 -3.33301 -17.5 -8.33301 -24.5 -15s-10.5 -16.667 -10.5 -30v-758c0 -24.667 1.83301 -51.5 5.5 -80.5s10.334 -57.667 20.001 -86
s23.167 -55.666 40.5 -81.999s39.666 -49.666 66.999 -69.999s60.333 -36.5 99 -48.5s84.334 -18 137.001 -18c52 0 97.833 6.16699 137.5 18.5s74.167 28.666 103.5 48.999s53.833 43.833 73.5 70.5s35.334 54.167 47.001 82.5s20 56.5 25 84.5s7.5 53.667 7.5 77v756
c0 13.333 -3.5 23 -10.5 29s-15.167 10.667 -24.5 14l-160 65v81h541v-81l-161 -65c-9.33301 -4 -17.5 -8.83301 -24.5 -14.5s-10.5 -15.167 -10.5 -28.5v-825c0 -56.667 -8.83301 -107.667 -26.5 -153s-41.334 -85.5 -71.001 -120.5s-63.834 -65 -102.501 -90
s-79 -45.5 -121 -61.5s-84.167 -27.833 -126.5 -35.5s-82.166 -11.5 -119.499 -11.5c-94 0 -176.333 12 -247 36s-129.667 56 -177 96s-82.833 85.667 -106.5 137s-35.5 104.333 -35.5 159v874z" />
    <glyph glyph-name="V" unicode="V" horiz-adv-x="1862" 
d="M172 1270c-4 9.33301 -9.66797 18.6689 -17.001 28.002s-16.666 16.666 -27.999 21.999l-111 50v81h542v-81l-166 -67l361 -915l34 -131h22l395 1039l-166 74v81h466v-81l-108 -54c-10 -5.33301 -19.5 -12.333 -28.5 -21s-15.5 -18.334 -19.5 -29.001l-411 -1046
l-113 -240h-140z" />
    <glyph glyph-name="W" unicode="W" horiz-adv-x="2659" 
d="M177 1270c-4.66699 9.33301 -10.168 18.668 -16.501 28.001s-15.166 16.666 -26.499 21.999l-105 50v81h533v-81l-171 -67l281 -885l26 -137h23l289 875l107 265h169l327 -1003l30 -137h21l331 1015l-175 74v81h472v-81l-103 -54
c-9.33301 -5.33301 -18.666 -12.5 -28 -21.5c-9.33301 -9 -15.666 -18.5 -19 -28.5l-344 -1019l-103 -261h-171l-324 1004l-33 135h-20l-290 -878l-106 -261h-173z" />
    <glyph glyph-name="X" unicode="X" horiz-adv-x="1865" 
d="M45 83l133.001 45.998c11.333 4 22.166 11 32.499 21s19.833 20.667 28.5 32l403 526l-391 564c-4 5.33301 -8.16699 10.5 -12.5 15.5s-9 9.66699 -14 14s-10.167 8.33301 -15.5 12s-11 6.5 -17 8.5l-127 48v81h548v-81l-122 -67l238 -338l60 -118h8l326 451l-119 72v81
h460v-81l-123 -48c-8 -3.33301 -17.333 -9.66602 -28 -18.999s-20.667 -19.666 -30 -30.999l-391 -515l401 -575c9.33301 -12.667 19 -23.667 29 -33s20.333 -16 31 -20l126 -46v-83h-548v83l123 66l-247 355l-60 115h-8l-341 -466l119 -70v-83h-472v83z" />
    <glyph glyph-name="Y" unicode="Y" horiz-adv-x="1799" 
d="M411 83l169.001 56c11.333 3.33301 20.333 8.5 27 15.5s10 17.833 10 32.5v345l-415 738c-5.33301 9.33301 -11.833 18.833 -19.5 28.5s-16.834 16.834 -27.501 21.501l-116 50v81h541v-81l-162 -67l285 -487l52 -123h21l335 604l-163 73v81h470v-81l-113 -54
c-9.33301 -4.66699 -18.333 -11.834 -27 -21.501s-15.667 -19.167 -21 -28.5l-420 -729v-350c0 -14.667 3.16699 -25.5 9.5 -32.5s14.5 -12.167 24.5 -15.5l171 -56v-83h-631v83z" />
    <glyph glyph-name="Z" unicode="Z" horiz-adv-x="1710" 
d="M67 107l835 1108l70 78v22h-619c-9.33301 0 -18 -3.16699 -26 -9.5s-13 -15.833 -15 -28.5l-30 -212h-137v386h1117v-104l-839 -1108l-70 -81v-22h702c9.33301 0 18.333 2.83301 27 8.5s14 15.834 16 30.501l30 241h136v-416h-1197v107z" />
    <glyph glyph-name="bracketleft" unicode="[" horiz-adv-x="1331" 
d="M248 1558h563v-120h-368v-1671h368v-122h-563v1913z" />
    <glyph glyph-name="backslash" unicode="\" horiz-adv-x="1455" 
d="M171 1558h166l710 -1992h-163z" />
    <glyph glyph-name="bracketright" unicode="]" horiz-adv-x="1331" 
d="M179 -233h368v1671h-368v120h563v-1913h-563v122z" />
    <glyph glyph-name="asciicircum" unicode="^" horiz-adv-x="1896" 
d="M723 1451h111l486 -769h-190l-351 569l-354 -569h-190z" />
    <glyph glyph-name="underscore" unicode="_" horiz-adv-x="1626" 
d="M-5 -152h1295v-130h-1295v130z" />
    <glyph glyph-name="grave" unicode="`" horiz-adv-x="1365" 
d="M658 1225l-119.001 84.5029l-87.5 62l-64.5 47l-51 40.5c-14 10.667 -25.833 20.5 -35.5 29.5s-17.834 18.167 -24.501 27.5s-11.5 19.333 -14.5 30s-4.5 22.667 -4.5 36c0 11.333 2.33301 22.333 7 33s11.334 20 20.001 28s18.834 14.5 30.501 19.5s24.5 7.5 38.5 7.5
s27 -1.33301 39 -4s23.667 -7.33398 35 -14.001s22.833 -15.834 34.5 -27.501s24.167 -26.834 37.5 -45.501l39.5 -56l46 -65.5l58 -82l75.5 -105.5z" />
    <glyph glyph-name="a" unicode="a" horiz-adv-x="1631" 
d="M845 167c-29.333 -40.667 -61.165 -73.334 -95.498 -98.001s-68.833 -43.667 -103.5 -57s-68.5 -22.166 -101.5 -26.499s-62.833 -6.5 -89.5 -6.5c-52 0 -98.167 8.83301 -138.5 26.5s-74.333 41 -102 70s-48.834 62.333 -63.501 100s-22 76.834 -22 117.501
c0 47.333 8.33301 89.5 25 126.5s38.834 69.5 66.501 97.5s59.667 51.833 96 71.5s74.333 35.667 114 48s79.667 21.333 120 27s78.166 8.5 113.499 8.5c7.33301 0 19.333 -0.666992 36 -2s34.167 -3 52.5 -5s35.5 -4 51.5 -6s27.667 -3.33301 35 -4v138
c0 39.333 -5.5 72.333 -16.5 99s-26.167 48.167 -45.5 64.5s-42.333 28 -69 35s-55.667 10.5 -87 10.5c-34 0 -68.667 -6.16699 -104 -18.5s-69.166 -27 -101.499 -44s-62.333 -34.833 -90 -53.5l-69.5 -46h-45v207l95 32c31.333 10.667 64.5 20.334 99.5 29.001
s72.333 15.667 112 21s84.167 8 133.5 8c50.667 0 100 -4.83301 148 -14.5s90.5 -27.5 127.5 -53.5s66.667 -62 89 -108s33.5 -105.333 33.5 -178v-565c0 -13.333 3 -25.5 9 -36.5s13.667 -20.5 23 -28.5s20 -14.167 32 -18.5s23.667 -6.5 35 -6.5c8 0 16 1 24 3
s16.333 4.66699 25 8s17.167 7.16602 25.5 11.499l24.5 12.5h18v-95c-10 -7.33301 -23.333 -16 -40 -26s-34.834 -19.667 -54.501 -29s-39.334 -17.333 -59.001 -24s-37.5 -10 -53.5 -10c-32.667 0 -61.334 4 -86.001 12s-45.167 19.833 -61.5 35.5
s-28.666 35.167 -36.999 58.5s-12.5 50.666 -12.5 81.999h-16zM839.001 550c-72.667 0 -138.999 -2.66992 -198.999 -8.00293s-111.333 -15.833 -154 -31.5s-75.834 -38 -99.501 -67s-35.5 -67.5 -35.5 -115.5c0 -38 6.33301 -69.667 19 -95s28.667 -45.333 48 -60
s41 -25 65 -31s47.333 -9 70 -9s47.5 2.33301 74.5 7s53.667 11.834 80 21.501s51 21.834 74 36.501s42.167 32.334 57.5 53.001v299z" />
    <glyph glyph-name="b" unicode="b" horiz-adv-x="1695" 
d="M228 1363c0 13.333 -4.16602 23.335 -12.499 30.002s-16.833 12 -25.5 16l-138 64v85h385v-554v-59c29.333 44 61.166 78.833 95.499 104.5s68 45 101 58s63.833 21.167 92.5 24.5s52.667 5 72 5c68.667 0 130.167 -13.5 184.5 -40.5s100.333 -64.5 138 -112.5
s66.5 -104.833 86.5 -170.5s30 -136.834 30 -213.501c0 -85.333 -12.167 -165.833 -36.5 -241.5s-59.833 -141.834 -106.5 -198.501s-104.167 -101.667 -172.5 -135s-146.833 -50 -235.5 -50c-42 0 -83.5 2.16699 -124.5 6.5s-80.833 10.5 -119.5 18.5s-76 18 -112 30
s-70 26 -102 42v1291zM437.001 190.002c14 -15.333 31.834 -28.667 53.501 -40s44 -20.833 67 -28.5s45.167 -13.5 66.5 -17.5s38.666 -6 51.999 -6c58 0 108.167 11.5 150.5 34.5s77.5 54.333 105.5 94s48.833 86 62.5 139s20.5 109.5 20.5 169.5
c0 62.667 -6.33301 121 -19 175s-32.5 101 -59.5 141s-61.667 71.333 -104 94s-92.833 34 -151.5 34c-17.333 0 -36.833 -2 -58.5 -6s-43.5 -10.5 -65.5 -19.5s-43.5 -21 -64.5 -36s-39.5 -33.5 -55.5 -55.5v-672z" />
    <glyph glyph-name="c" unicode="c" horiz-adv-x="1487" 
d="M1070 284l0.00292969 -127.001c-26 -20.667 -54.333 -41.667 -85 -63s-64 -40.666 -100 -57.999s-74.667 -31.5 -116 -42.5s-85.666 -16.5 -132.999 -16.5c-80 0 -152 13.833 -216 41.5s-118.5 66.334 -163.5 116.001s-79.5 109.167 -103.5 178.5s-36 146 -36 230
c0 59.333 8 115.166 24 167.499s38 100.333 66 144s61 83 99 118s78.833 64.5 122.5 88.5s89.167 42.333 136.5 55s94.666 19 141.999 19c39.333 0 75.666 -3.16699 108.999 -9.5s63.5 -14 90.5 -23s50.5 -18.167 70.5 -27.5l50 -23v-216h-51
c-27.333 15.333 -54 31.666 -80 48.999s-53.5 33.333 -82.5 48s-60.333 26.834 -94 36.501s-71.834 14.5 -114.501 14.5c-12 0 -25.667 -1.5 -41 -4.5s-30.833 -7.33301 -46.5 -13s-30.5 -12.667 -44.5 -21s-25.667 -17.833 -35 -28.5
c-12 -12.667 -23.667 -27.167 -35 -43.5s-21.5 -37.333 -30.5 -63s-16.167 -57.5 -21.5 -95.5s-8 -84.667 -8 -140c0 -68.667 7.66699 -130 23 -184s37.833 -99.667 67.5 -137s66.5 -65.833 110.5 -85.5s95 -29.5 153 -29.5c36 0 70.167 5 102.5 15
s62.666 22.167 90.999 36.5s54.5 30 78.5 47l65 46.5h36z" />
    <glyph glyph-name="d" unicode="d" horiz-adv-x="1720" 
d="M941 167l-16.9961 -0.000976562c-30 -44.667 -62.333 -79.667 -97 -105s-68.834 -44.166 -102.501 -56.499s-65.167 -19.833 -94.5 -22.5s-54 -4 -74 -4c-68 0 -129.167 13.5 -183.5 40.5s-100.333 64.5 -138 112.5s-66.5 104.667 -86.5 170s-30 136.333 -30 213
c0 85.333 12.167 165.833 36.5 241.5s59.166 141.667 104.499 198s100.666 100.833 165.999 133.5s139 49 221 49c32.667 0 62.5 -3 89.5 -9s51.833 -14 74.5 -24s43 -21.5 61 -34.5s34 -26.5 48 -40.5v48v286c0 13.333 -3.5 23.333 -10.5 30s-15.833 12 -26.5 16l-166 64
v85h412v-1343c0 -13.333 4.16699 -23.333 12.5 -30s17.166 -12 26.499 -16l126 -54v-85l-352 -50v0v187zM919.004 946.999c-13.333 8.66699 -30.833 16.001 -52.5 22.001s-44 11 -67 15s-45.333 6.83301 -67 8.5s-39.5 2.5 -53.5 2.5c-58 0 -108.167 -10.833 -150.5 -32.5
s-77.333 -51 -105 -88s-48.334 -80.167 -62.001 -129.5s-20.5 -102 -20.5 -158c0 -64 6.33301 -123.333 19 -178s32.334 -102.334 59.001 -143.001s61 -72.5 103 -95.5s92.333 -34.5 151 -34.5c18 0 38.333 2.16699 61 6.5s45.5 11 68.5 20s44.833 20.5 65.5 34.5
s37.667 31 51 51v699z" />
    <glyph glyph-name="e" unicode="e" horiz-adv-x="1590" 
d="M1121 277l-0.00195312 -128.003c-26.667 -20.667 -57.334 -41.167 -92.001 -61.5s-72.334 -38.666 -113.001 -54.999s-83.667 -29.666 -129 -39.999s-91.333 -15.5 -138 -15.5c-75.333 0 -145.833 12.333 -211.5 37s-122.667 61.167 -171 109.5s-86.5 108 -114.5 179
s-42 152.5 -42 244.5c0 84 13.333 162 40 234s63.834 134.333 111.501 187s104.5 94 170.5 124s138.333 45 217 45c74.667 0 141.334 -11.667 200.001 -35s108.334 -55 149.001 -95s71.834 -86.833 93.501 -140.5s32.5 -110.5 32.5 -170.5
c0 -6.66699 -0.166992 -15.167 -0.5 -25.5s-0.833008 -21.166 -1.5 -32.499s-1.66699 -22.333 -3 -33s-3 -19.667 -5 -27h-786c0 -146.667 34.667 -256.5 104 -329.5s166 -109.5 290 -109.5c38.667 0 76 4.66699 112 14s69.667 21 101 35s60 29 86 45s48 30.667 66 44h34z
M899.998 693.997c0 50.667 -4.66602 95.834 -13.999 135.501s-24.5 73.167 -45.5 100.5s-48.167 48.166 -81.5 62.499s-74 21.5 -122 21.5c-41.333 0 -79.5 -7 -114.5 -21s-65.833 -34.667 -92.5 -62s-48.334 -60.833 -65.001 -100.5s-27 -85.167 -31 -136.5h566z" />
    <glyph glyph-name="f" unicode="f" horiz-adv-x="1241" 
d="M106 82l145.997 44.002c12 3.33301 21.5 8.5 28.5 15.5s10.5 17.167 10.5 30.5v750h-206v125h210c6.66699 98.667 21.834 181.667 45.501 249s54.5 121.666 92.5 162.999s83 71 135 89s109.667 27 173 27c12 0 27 -0.833008 45 -2.5s36.833 -3.83398 56.5 -6.50098l57 -8
c18.333 -2.66699 34.166 -5.33398 47.499 -8.00098v-193h-45c-14.667 4.66699 -30.167 10 -46.5 16s-33.666 11.667 -51.999 17s-37.666 9.83301 -57.999 13.5s-41.833 5.5 -64.5 5.5c-40.667 0 -73.667 -4.33301 -99 -13s-44.333 -19.667 -57 -33
c-4 -4 -7.5 -14.167 -10.5 -30.5s-5.66699 -38 -8 -65s-4.16602 -59 -5.49902 -96s-2 -78.5 -2 -124.5h315v-125h-314v-750c0 -13.333 4 -23.666 12 -30.999s17 -12.333 27 -15l171 -44v-82h-604v82z" />
    <glyph glyph-name="g" unicode="g" horiz-adv-x="1641" 
d="M314 42c-18 6 -36.4961 14.3291 -55.4961 24.9961s-36.167 23.834 -51.5 39.501s-28 34 -38 55s-15 44.833 -15 71.5c0 32 5.5 60.5 16.5 85.5s25.5 46.5 43.5 64.5s38.167 32.833 60.5 44.5s44.5 19.834 66.5 24.501v14c-16.667 10 -35.167 23 -55.5 39
s-39.5 35.667 -57.5 59s-33 50.333 -45 81s-18 65.667 -18 105c0 57.333 10.167 109.833 30.5 157.5s49.666 88.5 87.999 122.5s84.833 60.333 139.5 79s116.334 28 185.001 28c53.333 0 100.166 -2.66699 140.499 -8s79.833 -12.333 118.5 -21h355v-127h-248v-12
l31.5 -46.5c9.66699 -14.333 18.167 -29.833 25.5 -46.5s13.166 -35.167 17.499 -55.5s6.5 -44.833 6.5 -73.5c0 -52 -10.167 -100.167 -30.5 -144.5s-49.833 -82.833 -88.5 -115.5s-86 -58.167 -142 -76.5s-119.667 -27.5 -191 -27.5c-22.667 0 -45.167 1.33301 -67.5 4
s-43 5.83398 -62 9.50098s-36 7.83398 -51 12.501s-26.5 9 -34.5 13c-7.33301 -4 -14.666 -9.33301 -21.999 -16s-14 -14.667 -20 -24s-10.833 -20.333 -14.5 -33s-5.5 -26.334 -5.5 -41.001c0 -12 2.16699 -23.833 6.5 -35.5s10 -22.667 17 -33s15.167 -19.5 24.5 -27.5
s18.666 -14 27.999 -18h391c71.333 0 131.333 -8.16699 180 -24.5s87.834 -37.833 117.501 -64.5s51 -56.5 64 -89.5s19.5 -66.167 19.5 -99.5c0 -61.333 -15.167 -117.5 -45.5 -168.5s-71.833 -94.833 -124.5 -131.5s-114.667 -65.334 -186 -86.001s-148 -31 -230 -31
c-70.667 0 -136.334 6.16699 -197.001 18.5s-113.334 30.333 -158.001 54s-79.667 52.834 -105 87.501s-38 74.334 -38 119.001c0 34 6.16699 64.5 18.5 91.5s28.666 50.833 48.999 71.5s44 38 71 52s55.5 24.667 85.5 32v17zM601.004 485.996
c37.333 0 70.832 5.16602 100.499 15.499s54.834 26.666 75.501 48.999s36.5 51.166 47.5 86.499s16.5 77.666 16.5 126.999c0 46.667 -5.66699 86.834 -17 120.501s-27.333 61.5 -48 83.5s-45.5 38.167 -74.5 48.5s-61.167 15.5 -96.5 15.5
c-27.333 0 -54.166 -4.33301 -80.499 -13s-49.833 -23.334 -70.5 -44.001s-37.334 -48.167 -50.001 -82.5s-19 -77.166 -19 -128.499c0 -49.333 5.33301 -91.666 16 -126.999s25.5 -64.166 44.5 -86.499s41.833 -38.666 68.5 -48.999s55.667 -15.5 87 -15.5z
M422.003 19.9951c-14 -4 -28.333 -10.8311 -43 -20.498s-28 -22 -40 -37s-22 -33 -30 -54s-12 -44.833 -12 -71.5c0 -28 5.5 -52.833 16.5 -74.5s25.667 -40.334 44 -56.001s39.166 -28.667 62.499 -39s47.5 -18.666 72.5 -24.999s49.833 -10.833 74.5 -13.5s47 -4 67 -4
c44 0 87.5 4 130.5 12s81.5 21.167 115.5 39.5s61.5 42.166 82.5 71.499s31.5 65.666 31.5 108.999c0 18 -4.16699 36.667 -12.5 56s-21.166 36.833 -38.499 52.5s-39.833 28.667 -67.5 39s-60.5 15.5 -98.5 15.5h-355z" />
    <glyph glyph-name="h" unicode="h" horiz-adv-x="1749" 
d="M89 82l124.998 44.001c13.333 4.66699 23 10.167 29 16.5s9 16.166 9 29.499v1191c0 13.333 -4 23.333 -12 30s-16.667 12 -26 16l-138 64v85h385v-546v-57c30.667 40 61.167 72 91.5 96s60.333 42.333 90 55s59.167 21 88.5 25s58.333 6 87 6
c48.667 0 94.5 -7 137.5 -21s80.5 -36 112.5 -66s57.333 -68.333 76 -115s28 -102.334 28 -167.001v-591c0 -16 3.66699 -27.5 11 -34.5s16 -12.5 26 -16.5l115 -44v-82h-500v82l100 44c10.667 4.66699 19.834 10.334 27.501 17.001s11.5 18 11.5 34v498
c0 48 -3 90.333 -9 127s-17.667 67.667 -35 93s-41.666 44.5 -72.999 57.5s-72 19.5 -122 19.5c-23.333 0 -47 -1.5 -71 -4.5s-47.667 -8.33301 -71 -16s-45.333 -18.167 -66 -31.5s-39 -30 -55 -50v-698c0 -13.333 3.5 -23 10.5 -29s16.167 -11.667 27.5 -17l93 -44v-82
h-503v82z" />
    <glyph glyph-name="i" unicode="i" horiz-adv-x="1128" 
d="M388 1306c-20 0 -39.168 3.00098 -57.501 9.00098s-34.5 14.5 -48.5 25.5s-25.167 24.667 -33.5 41s-12.5 35.166 -12.5 56.499c0 22.667 4.16699 42.5 12.5 59.5s19.5 31.333 33.5 43s30.167 20.334 48.5 26.001s37.5 8.5 57.5 8.5c24 0 45.667 -2.5 65 -7.5
s35.833 -12.833 49.5 -23.5s24.334 -23.834 32.001 -39.501s11.5 -34.167 11.5 -55.5c0 -22.667 -4 -42.834 -12 -60.501s-19 -32.667 -33 -45s-30.667 -21.666 -50 -27.999s-40.333 -9.5 -63 -9.5zM99.999 82.001l163.001 43.999c11.333 3.33301 20.833 8.5 28.5 15.5
s11.5 17.167 11.5 30.5v709c0 13.333 -3.83301 23.5 -11.5 30.5s-16.834 12.167 -27.501 15.5l-162 54v85l410 50v-944c0 -13.333 4 -23.666 12 -30.999s16.667 -12.333 26 -15l163 -44v-82h-613v82z" />
    <glyph glyph-name="j" unicode="j" horiz-adv-x="1132" 
d="M432 1306c-20 0 -39.168 3.00098 -57.501 9.00098s-34.5 14.5 -48.5 25.5s-25.167 24.667 -33.5 41s-12.5 35.166 -12.5 56.499c0 22.667 4.16699 42.5 12.5 59.5s19.5 31.333 33.5 43s30.167 20.334 48.5 26.001s37.5 8.5 57.5 8.5c24 0 45.667 -2.5 65 -7.5
s35.833 -12.833 49.5 -23.5s24.334 -23.834 32.001 -39.501s11.5 -34.167 11.5 -55.5c0 -22.667 -4 -42.834 -12 -60.501s-19 -32.667 -33 -45s-30.667 -21.666 -50 -27.999s-40.333 -9.5 -63 -9.5zM-99.001 -280.999l45.999 -0.000976562c14 -4 29.667 -8.83301 47 -14.5
s35.333 -11 54 -16s37.5 -9.33301 56.5 -13s37.167 -5.5 54.5 -5.5c46 0 81 6 105 18s41.667 26.667 53 44c8 12 14.167 28 18.5 48s7.66602 44.5 9.99902 73.5s3.83301 63 4.5 102s1 83.167 1 132.5v793c0 13.333 -4.16699 23.666 -12.5 30.999s-17.166 12.333 -26.499 15
l-190 54v85l438 50v-1016c0 -102 -11.333 -190.833 -34 -266.5s-54.5 -138.167 -95.5 -187.5s-90 -86.166 -147 -110.499s-119.5 -36.5 -187.5 -36.5c-12 0 -26.5 0.5 -43.5 1.5s-34.5 2.5 -52.5 4.5s-35.667 4.33301 -53 7s-32.666 5.33398 -45.999 8.00098v199z" />
    <glyph glyph-name="k" unicode="k" horiz-adv-x="1675" 
d="M88 82l125.001 44c12 4 21.5 9.33301 28.5 16s10.5 16.667 10.5 30v1191c0 13.333 -4.16699 23.333 -12.5 30s-16.833 12 -25.5 16l-137 64v85h384v-1006l431 413l-106 63v80h452v-80l-129 -48c-12.667 -4.66699 -25.334 -11 -38.001 -19s-25.667 -18 -39 -30l-277 -252
l361 -507c6.66699 -9.33301 16.667 -18.5 30 -27.5s25.333 -15.5 36 -19.5l112 -43v-82h-446v82l53 48l-296 410l-148 -55v-313c0 -13.333 4 -23.333 12 -30s16.667 -12 26 -16l104 -44v-82h-511v82z" />
    <glyph glyph-name="l" unicode="l" horiz-adv-x="1107" 
d="M79 82l163.003 43.999c11.333 3.33301 20.666 8.5 27.999 15.5s11 17.167 11 30.5v1191c0 13.333 -4.33301 23.5 -13 30.5s-17.334 12.167 -26.001 15.5l-173 64v85h421v-1386c0 -13.333 4.16699 -23.666 12.5 -30.999s17.166 -12.333 26.499 -15l161 -44v-82h-611v82z
" />
    <glyph glyph-name="m" unicode="m" horiz-adv-x="2444" 
d="M106 82l126.003 43.9971c9.33301 3.33301 18 8.5 26 15.5s12 17.167 12 30.5v721c0 13.333 -4 23.333 -12 30s-16.667 12 -26 16l-126 54v85l351 50v-173h16c30.667 40 61.334 72 92.001 96s61 42.333 91 55s59.333 21 88 25s56.667 6 84 6
c36 0 70.5 -3.83301 103.5 -11.5s63.5 -19.667 91.5 -36s53 -37.666 75 -63.999s39.667 -58.5 53 -96.5c37.333 48.667 72.666 86.834 105.999 114.501s65 48.5 95 62.5s58.667 22.667 86 26s54 5 80 5c47.333 0 92.166 -7 134.499 -21s79.333 -36 111 -66
s56.834 -68.333 75.501 -115s28 -102.334 28 -167.001v-591c0 -16 3.66699 -27.5 11 -34.5s16.333 -12.5 27 -16.5l112 -44v-82h-499v82l101 44c10.667 4.66699 19.834 10.334 27.501 17.001s11.5 18 11.5 34v498c0 48 -2.83301 90.333 -8.5 127s-16.834 67.667 -33.501 93
s-40.167 44.5 -70.5 57.5s-69.833 19.5 -118.5 19.5c-20 0 -41.5 -1.5 -64.5 -4.5s-45.833 -8.5 -68.5 -16.5s-44.5 -18.667 -65.5 -32s-39.5 -30.333 -55.5 -51v-691c0 -16 3.66699 -27.167 11 -33.5s16.333 -12.166 27 -17.499l89 -44v-82h-472v82l97 44
c11.333 5.33301 20.666 11.166 27.999 17.499s11 17.5 11 33.5v498c0 48 -2.83301 90.333 -8.5 127s-16.667 67.667 -33 93s-39.5 44.5 -69.5 57.5s-69 19.5 -117 19.5c-22 0 -44.833 -1.5 -68.5 -4.5s-46.834 -8.33301 -69.501 -16s-44.334 -18.167 -65.001 -31.5
s-38.667 -30 -54 -50v-698c0 -13.333 4 -23.166 12 -29.499s16.667 -11.833 26 -16.5l92 -44v-82h-503v82z" />
    <glyph glyph-name="n" unicode="n" horiz-adv-x="1767" 
d="M105 82l126.998 44.002c11.333 4 20.5 9.33301 27.5 16s10.5 16.667 10.5 30v721c0 13.333 -3.83301 23.166 -11.5 29.499s-16.5 11.833 -26.5 16.5l-125 54v85l350 50v-173h16c31.333 40 62.5 72 93.5 96s61.667 42.333 92 55s60.333 21 90 25s58.834 6 87.501 6
c48 0 93.5 -7 136.5 -21s80.667 -36 113 -66s57.833 -68.333 76.5 -115s28 -102.334 28 -167.001v-591c0 -16 3.5 -27.667 10.5 -35s16.167 -12.666 27.5 -15.999l112 -44v-82h-500v82l100 44c11.333 5.33301 21 11.166 29 17.499s12 17.5 12 33.5v498
c0 48 -3 90.333 -9 127s-17.5 67.667 -34.5 93s-41.167 44.5 -72.5 57.5s-72 19.5 -122 19.5c-22 0 -45.167 -1.5 -69.5 -4.5s-48.166 -8.33301 -71.499 -16s-45.666 -18.167 -66.999 -31.5s-40 -30 -56 -50v-698c0 -13.333 4.16699 -23.5 12.5 -30.5
s17.166 -12.167 26.499 -15.5l93 -44v-82h-506v82z" />
    <glyph glyph-name="o" unicode="o" horiz-adv-x="1665" 
d="M657 -25c-80 0 -153.169 13.3311 -219.502 39.998s-123.166 64.834 -170.499 114.501s-84 110.334 -110 182.001s-39 152.5 -39 242.5c0 82.667 12.833 159.5 38.5 230.5s62.334 132.667 110.001 185s105.334 93.333 173.001 123s143.5 44.5 227.5 44.5
c91.333 0 170.833 -15.667 238.5 -47s123.667 -73.5 168 -126.5s77.5 -114.5 99.5 -184.5s33 -143.667 33 -221c0 -82 -12.833 -158.5 -38.5 -229.5s-62.167 -132.667 -109.5 -185s-104.833 -93.5 -172.5 -123.5s-143.834 -45 -228.501 -45zM671.998 97.998
c58.667 0 107.67 13.499 147.003 40.499s70.5 61.667 93.5 104s39.333 89.333 49 141s14.5 102.5 14.5 152.5c0 60.667 -5.83301 119.667 -17.5 177s-30.5 108.333 -56.5 153s-59.5 80.5 -100.5 107.5s-90.833 40.5 -149.5 40.5c-39.333 0 -74 -6.16699 -104 -18.5
s-56.333 -29.166 -79 -50.499s-41.667 -46.166 -57 -74.499s-27.833 -58.5 -37.5 -90.5s-16.5 -65.167 -20.5 -99.5s-6 -67.833 -6 -100.5c0 -36.667 2.16699 -74 6.5 -112s11.666 -74.833 21.999 -110.5s23.666 -69.167 39.999 -100.5s36.5 -58.833 60.5 -82.5
s52.167 -42.334 84.5 -56.001s69.166 -20.5 110.499 -20.5z" />
    <glyph glyph-name="p" unicode="p" horiz-adv-x="1730" 
d="M89 -420l132 46.998c11.333 4 20.5 9 27.5 15s10.5 15.667 10.5 29v1222c0 13.333 -4 23.333 -12 30s-16.667 12 -26 16l-126 54v85l352 50v-183h17c29.333 44 61.333 78.833 96 104.5s68.667 45 102 58s64.666 21.167 93.999 24.5s53.666 5 72.999 5
c68.667 0 130.334 -13.5 185.001 -40.5s101 -64.333 139 -112s67.167 -104.167 87.5 -169.5s30.5 -136 30.5 -212c0 -84.667 -12 -164.334 -36 -239.001s-58.667 -139.667 -104 -195s-100.666 -99.166 -165.999 -131.499s-139 -48.5 -221 -48.5c-32 0 -61.833 3 -89.5 9
s-53 14 -76 24s-43.667 21.5 -62 34.5s-34.5 26.5 -48.5 40.5v-48v-376c0 -13.333 4 -23.166 12 -29.499s17 -11.166 27 -14.499l160 -49v-81h-578v81zM468 179.998c16 -9.33301 34.998 -17.167 56.998 -23.5s44.5 -11.5 67.5 -15.5s45.167 -6.83301 66.5 -8.5
s39 -2.5 53 -2.5c57.333 0 107.166 10.5 149.499 31.5s77.333 49.833 105 86.5s48.334 79.5 62.001 128.5s20.5 101.167 20.5 156.5c0 62.667 -6.5 121.167 -19.5 175.5s-33.333 101.5 -61 141.5s-62.5 71.5 -104.5 94.5s-92 34.5 -150 34.5c-17.333 0 -37 -2 -59 -6
s-44.167 -10.5 -66.5 -19.5s-44.166 -21.167 -65.499 -36.5s-39.666 -34 -54.999 -56v-681z" />
    <glyph glyph-name="q" unicode="q" horiz-adv-x="1697" 
d="M717 -420l164.003 49c10.667 3.33301 19.667 8.16602 27 14.499s11 16.166 11 29.499v430v64c-30 -45.333 -62 -80 -96 -104s-67.333 -41.5 -100 -52.5s-63.334 -17.333 -92.001 -19s-52.667 -2.5 -72 -2.5c-68 0 -129.333 13.333 -184 40s-101 63.5 -139 110.5
s-67.167 102.833 -87.5 167.5s-30.5 135 -30.5 211c0 86 12.667 166.667 38 242s62.166 140.833 110.499 196.5s107.5 99.667 177.5 132s150 48.5 240 48.5c88 0 169.667 -8.66699 245 -26s141.666 -41 198.999 -71v-1369c0 -13.333 4.16699 -23.166 12.5 -29.499
s17.5 -11.166 27.5 -14.499l131 -47v-81h-582v81zM919.003 918c-15.333 16 -33.002 29.999 -53.002 41.999s-40.833 22 -62.5 30s-43 14 -64 18s-40.167 6 -57.5 6c-58 0 -108.5 -11.667 -151.5 -35s-78.5 -54.666 -106.5 -93.999s-48.833 -85.166 -62.5 -137.499
s-20.5 -107.5 -20.5 -165.5c0 -62 6.33301 -119.5 19 -172.5s32.5 -99 59.5 -138s61.5 -69.667 103.5 -92s92.333 -33.5 151 -33.5c16.667 0 36.334 1.83301 59.001 5.5s45.334 9.5 68.001 17.5s44.5 18.667 65.5 32s38.5 29.666 52.5 48.999v668z" />
    <glyph glyph-name="r" unicode="r" horiz-adv-x="1428" 
d="M112 82l125.995 44c10.667 3.33301 19.667 8.5 27 15.5s11 17.167 11 30.5v706c0 17.333 -5 30.333 -15 39s-18.667 14.667 -26 18l-133 58v85l367 50v-237h13c34.667 48.667 66.834 88.834 96.501 120.501s58 56.834 85 75.501s53.167 31.667 78.5 39
s50.666 11 75.999 11c15.333 0 31.833 -0.833008 49.5 -2.5s35.334 -4.83398 53.001 -9.50098s34.834 -11.334 51.501 -20.001s32 -20 46 -34v-253h-143l-29 74c-3.33301 8.66699 -8.66602 16.667 -15.999 24s-16 13.666 -26 18.999s-20.667 9.5 -32 12.5
s-22.666 4.5 -33.999 4.5c-30 0 -57.167 -5.66699 -81.5 -17s-46.666 -25.666 -66.999 -42.999s-39 -36 -56 -56l-48.5 -57v-607c0 -13.333 3.5 -23.5 10.5 -30.5s16.167 -12.167 27.5 -15.5l163 -44v-82h-574v82z" />
    <glyph glyph-name="s" unicode="s" horiz-adv-x="1459" 
d="M148 300l138.996 -0.00488281l30 -90c4 -12.667 9.16699 -23.167 15.5 -31.5s13.833 -15.166 22.5 -20.499c14 -8 29 -15 45 -21s32.667 -11.167 50 -15.5s35.333 -7.66602 54 -9.99902s37.334 -3.5 56.001 -3.5c28 0 57 3.16699 87 9.5s57.333 16.333 82 30
s44.834 30.834 60.501 51.501s23.5 45.334 23.5 74.001c0 24 -3.66699 44.5 -11 61.5s-18 32 -32 45s-31.5 24.167 -52.5 33.5s-45.5 18 -73.5 26l-117 34l-117 34c-41.333 12 -77.333 27.667 -108 47s-56.334 41.833 -77.001 67.5s-36 53.667 -46 84s-15 62.5 -15 96.5
c0 48 13 92.5 39 133.5s60.667 76.5 104 106.5s93.333 53.333 150 70s115.667 25 177 25c32 0 62.167 -1.16699 90.5 -3.5s55.5 -5.66602 81.5 -9.99902s51.333 -9.5 76 -15.5s50 -12.667 76 -20v-256h-138l-30 98c-3.33301 10 -9 18.833 -17 26.5s-15.667 13.5 -23 17.5
c-23.333 11.333 -48.666 19.166 -75.999 23.499s-56 6.5 -86 6.5c-32.667 0 -62.667 -3.16699 -90 -9.5s-51 -15.5 -71 -27.5s-35.5 -27 -46.5 -45s-16.5 -38.667 -16.5 -62c0 -24 3.66699 -45.167 11 -63.5s19.333 -35 36 -50s38.167 -28.5 64.5 -40.5
s58.166 -23.667 95.499 -35l48 -14.5l48 -14.5l48 -14.5l48 -14.5c44 -13.333 82 -28.333 114 -45s58.333 -36.167 79 -58.5s35.834 -47.833 45.501 -76.5s14.5 -61.667 14.5 -99c0 -54 -13.833 -103.167 -41.5 -147.5s-64 -82.166 -109 -113.499s-96.333 -55.5 -154 -72.5
s-116.167 -25.5 -175.5 -25.5c-38 0 -74.667 2.16699 -110 6.5s-69.166 10 -101.499 17s-63.166 14.833 -92.499 23.5l-84 26v252z" />
    <glyph glyph-name="t" unicode="t" horiz-adv-x="1254" 
d="M245 983h-178.995v105c29.333 4 55.833 8 79.5 12s44.167 11.333 61.5 22s31.166 25.834 41.499 45.501s16.5 47.5 18.5 83.5l10 155l177 32v-330h392v-125h-392v-704c0 -24.667 7.5 -45.5 22.5 -62.5s33.167 -30.833 54.5 -41.5s43.666 -18.5 66.999 -23.5
s43.666 -7.5 60.999 -7.5c12 0 25.5 1.16699 40.5 3.5s29.667 5.16602 44 8.49902s27.833 7 40.5 11s22.667 7.66699 30 11h41v-90c-9.33301 -6 -24.833 -14.833 -46.5 -26.5s-46.667 -23.5 -75 -35.5s-58.833 -22.333 -91.5 -31s-64.334 -13 -95.001 -13
c-40 0 -78.167 5 -114.5 15s-68.333 24.333 -96 43s-49.834 41.5 -66.501 68.5s-25 57.5 -25 91.5v783z" />
    <glyph glyph-name="u" unicode="u" horiz-adv-x="1741" 
d="M235 893c0 13.333 -3.83008 23.332 -11.4971 29.999s-16.167 12 -25.5 16l-126 54v85l372 50v-687c0 -47.333 2.83301 -89.5 8.5 -126.5s16.667 -68.167 33 -93.5s39.833 -44.5 70.5 -57.5s71 -19.5 121 -19.5c22.667 0 46.167 1.5 70.5 4.5s48.166 8.33301 71.499 16
s45.5 18 66.5 31s39.5 29.5 55.5 49.5v648c0 13.333 -3.83301 23.166 -11.5 29.499s-16.834 11.833 -27.501 16.5l-125 54v85l373 50v-913c0 -13.333 3.83301 -23.166 11.5 -29.499s16.5 -11.833 26.5 -16.5l125 -54v-85l-350 -50v0v182h-15
c-31.333 -40.667 -62.5 -73 -93.5 -97s-61.833 -42.333 -92.5 -55s-60.834 -21 -90.501 -25s-58.834 -6 -87.501 -6c-48 0 -93.333 7 -136 21s-79.667 35.833 -111 65.5s-56.166 67.834 -74.499 114.501s-27.5 102.667 -27.5 168v545z" />
    <glyph glyph-name="v" unicode="v" horiz-adv-x="1641" 
d="M184 939c-5.33301 12 -12.332 22.167 -20.999 30.5s-17.334 14.5 -26.001 18.5l-84 40v80h486v-80l-151 -54l246 -569l44 -160h21l275 692l-138 91v80h417v-80l-90 -70c-8.66699 -6.66699 -18 -14.5 -28 -23.5s-17 -18.167 -21 -27.5l-287 -691l-109 -226h-133z" />
    <glyph glyph-name="w" unicode="w" horiz-adv-x="2328" 
d="M184 939c-4 11.333 -10.333 21 -19 29s-18 14.667 -28 20l-84 40v80h486v-80l-151 -54l206 -563l40 -166h22l214 637l97 226h137l259 -691l46 -172h22l231 692l-140 91v80h418v-80l-89 -70l-29 -23.5c-10 -8.33301 -16.667 -17.5 -20 -27.5l-240 -691l-107 -226h-142
l-266 701l-35 142h-18l-207 -617l-105 -226h-143z" />
    <glyph glyph-name="x" unicode="x" horiz-adv-x="1653" 
d="M79 82l99.998 47.999c10.667 5.33301 21.667 12.833 33 22.5s21 19.5 29 29.5l298 363l-288 392c-8.66699 12 -17.5 22.333 -26.5 31s-19.5 15.334 -31.5 20.001l-105 40v80h462v-80l-83 -50l154 -209l58 -114h14l237 307l-62 66v80h353v-80l-100 -50
c-9.33301 -4.66699 -19.166 -11.5 -29.499 -20.5s-20.166 -19.167 -29.499 -30.5l-289 -348l298 -407c9.33301 -12.667 19 -23.5 29 -32.5s20.333 -15.5 31 -19.5l102 -38v-82h-462v82l85 48l-167 226l-57 113h-14l-246 -322l63 -65v-82h-356v82z" />
    <glyph glyph-name="y" unicode="y" horiz-adv-x="1635" 
d="M108 -255l52.999 -0.00195312c8.66699 -4.66699 20 -9.5 34 -14.5s28.333 -9.66699 43 -14s28.5 -7.83301 41.5 -10.5s22.833 -4 29.5 -4c36 0 65.667 2.66699 89 8s43.666 14.666 60.999 27.999c12 9.33301 23.167 21.333 33.5 36s21 33.667 32 57s23.167 52 36.5 86
l46 122l-71 112l-353 792c-5.33301 12 -12 21.5 -20 28.5s-17.333 12.5 -28 16.5l-81 40v80h485v-80l-150 -54l256 -562l47 -125h22l250 650l-134 91v80h416v-80l-94 -70c-7.33301 -5.33301 -16.166 -12.166 -26.499 -20.499s-17.166 -17.166 -20.499 -26.499l-422 -1083
c-25.333 -65.333 -52.833 -119.166 -82.5 -161.499s-61.5 -76 -95.5 -101s-69.833 -42.333 -107.5 -52s-76.834 -14.5 -117.501 -14.5c-7.33301 0 -18.5 0.666992 -33.5 2s-31.333 3 -49 5s-34.667 4.5 -51 7.5s-29.166 6.16699 -38.499 9.5v222z" />
    <glyph glyph-name="z" unicode="z" horiz-adv-x="1511" 
d="M110 77l592.999 811l72 75v20h-415c-14.667 0 -25.167 -4.33301 -31.5 -13s-10.833 -18 -13.5 -28l-30 -114h-134v280h907v-62l-604 -826l-71 -74v-21h464c13.333 0 23.333 3.83301 30 11.5s11.334 17.167 14.001 28.5l29 136h136v-301h-946v77z" />
    <glyph glyph-name="braceleft" unicode="{" horiz-adv-x="1472" 
d="M476 271c0 48.667 -7.33301 89.166 -22 121.499s-35.5 58.666 -62.5 78.999s-60 35.5 -99 45.5s-82.5 16.667 -130.5 20v129c48.667 4 92.5 11 131.5 21s72 25 99 45s47.667 46.167 62 78.5s21.5 72.833 21.5 121.5v225c0 72 11.5 133.333 34.5 184s55.5 92 97.5 124
s92.333 55.5 151 70.5s123.667 22.5 195 22.5v-121c-32 -2 -64.333 -5.16699 -97 -9.5s-62.5 -13.666 -89.5 -27.999s-49 -35.666 -66 -63.999s-25.5 -67.5 -25.5 -117.5v-204c0 -71.333 -8.83301 -130.333 -26.5 -177s-42 -84.667 -73 -114s-67.333 -51.833 -109 -67.5
s-86.834 -28.5 -135.501 -38.5v-31c48.667 -10 93.834 -22.833 135.501 -38.5s78 -38 109 -67s55.333 -66.833 73 -113.5s26.5 -106 26.5 -178v-203c0 -50 8.5 -89.167 25.5 -117.5s39 -49.833 66 -64.5s56.833 -24.167 89.5 -28.5s65 -7.5 97 -9.5v-121
c-71.333 0 -136.333 7.16699 -195 21.5s-109 37.5 -151 69.5s-74.5 73.5 -97.5 124.5s-34.5 113.167 -34.5 186.5v224z" />
    <glyph glyph-name="bar" unicode="|" horiz-adv-x="1455" 
d="M478 1558h157v-1992h-157v1992z" />
    <glyph glyph-name="braceright" unicode="}" horiz-adv-x="1472" 
d="M178 -234c32 2 64.333 5.16797 97 9.50098s62.5 13.833 89.5 28.5s49 36.167 66 64.5s25.5 67.5 25.5 117.5v203c0 72 8.83301 131.333 26.5 178s42 84.5 73 113.5s67.333 51.333 109 67s86.834 28.5 135.501 38.5v31c-48.667 10 -93.834 22.833 -135.501 38.5
s-78 38.167 -109 67.5s-55.333 67.333 -73 114s-26.5 105.667 -26.5 177v204c0 50 -8.5 89.167 -25.5 117.5s-39 49.666 -66 63.999s-56.833 23.666 -89.5 27.999s-65 7.5 -97 9.5v121c71.333 0 136.333 -7.5 195 -22.5s109 -38.5 151 -70.5s74.5 -73.333 97.5 -124
s34.5 -112 34.5 -184v-225c0 -48.667 7.16699 -89.167 21.5 -121.5s35 -58.5 62 -78.5s59.833 -35 98.5 -45s82.667 -17 132 -21v-129c-48 -3.33301 -91.5 -10 -130.5 -20s-72 -25.167 -99 -45.5s-47.833 -46.666 -62.5 -78.999s-22 -72.833 -22 -121.5v-224
c0 -73.333 -11.5 -135.5 -34.5 -186.5s-55.5 -92.5 -97.5 -124.5s-92.333 -55.167 -151 -69.5s-123.667 -21.5 -195 -21.5v121z" />
    <glyph glyph-name="asciitilde" unicode="~" horiz-adv-x="1896" 
d="M183 459c10.667 32 27.333 67.4961 50 106.496s50.667 75.667 84 110s71.166 63.166 113.499 86.499s88.166 35 137.499 35c55.333 0 104.5 -7.16699 147.5 -21.5s83 -30.166 120 -47.499s72.833 -33.166 107.5 -47.499s71.334 -21.5 110.001 -21.5c26.667 0 50 4 70 12
s38.333 19.833 55 35.5s32.334 34.834 47.001 57.501s30 48.667 46 78l102 -40c-11.333 -32 -28.5 -67.667 -51.5 -107s-51 -76.166 -84 -110.499s-70.5 -63.166 -112.5 -86.499s-87.667 -35 -137 -35c-36.667 0 -70.5 4 -101.5 12s-60.167 18 -87.5 30
s-53.333 24.833 -78 38.5s-49 26.5 -73 38.5s-47.833 22 -71.5 30s-48.5 12 -74.5 12c-26.667 0 -50.167 -5.33301 -70.5 -16s-38.833 -25.167 -55.5 -43.5s-32.167 -40 -46.5 -65l-44.5 -80.5z" />
    <glyph glyph-name="exclamdown" unicode="&#xa1;" horiz-adv-x="1153" 
d="M249 959c0 22 4.16699 42.5 12.5 61.5s19.833 35.5 34.5 49.5s31.834 25 51.501 33s40.5 12 62.5 12s42.667 -4 62 -12s36 -19 50 -33s25.167 -30.5 33.5 -49.5s12.5 -39.5 12.5 -61.5s-4.16699 -42.833 -12.5 -62.5s-19.5 -36.667 -33.5 -51
s-30.667 -25.666 -50 -33.999s-40 -12.5 -62 -12.5s-42.833 4.16699 -62.5 12.5s-36.834 19.666 -51.501 33.999s-26.167 31.333 -34.5 51s-12.5 40.5 -12.5 62.5zM271 -331l77 935h117l77 -935v-40h-271v40z" />
    <glyph glyph-name="cent" unicode="&#xa2;" horiz-adv-x="1671" 
d="M724 -15c-78 1.33301 -148.498 16 -211.498 44s-116.667 67 -161 117s-78.5 109.333 -102.5 178s-36 144.334 -36 227.001c0 80 14.5 153.667 43.5 221s67.5 126.166 115.5 176.499s102.667 91.666 164 123.999s124 53.5 188 63.5v195h98v-188h10.5
c3.66699 0 7.16699 -0.333008 10.5 -1c35.333 -2 68.166 -6.16699 98.499 -12.5s58 -13.833 83 -22.5s47 -17.167 66 -25.5s34.5 -15.5 46.5 -21.5v-216h-51l-61 41c-20 13.333 -40.5 25.833 -61.5 37.5s-43.167 22.667 -66.5 33s-48.333 19.5 -75 27.5v-840
c2.66699 0 5.16699 0.166992 7.5 0.5s5.16602 0.5 8.49902 0.5c32 3.33301 62.667 10.5 92 21.5s56.833 23.833 82.5 38.5s49.5 29.834 71.5 45.501l60 42.5h36v-127c-22 -18 -46 -36.167 -72 -54.5s-54 -35.5 -84 -51.5s-61.833 -30 -95.5 -42s-69.167 -20.667 -106.5 -26
v-256h-98v250zM724.002 996c-3.33301 0.666992 -6.33301 1.00293 -9 1.00293h-9c-12 0 -25.667 -1.83301 -41 -5.5s-30.833 -8.66699 -46.5 -15s-30.5 -13.833 -44.5 -22.5s-25.667 -18.334 -35 -29.001c-11.333 -12.667 -23.166 -27.167 -35.499 -43.5
s-23.5 -37.333 -33.5 -63s-18.167 -57.334 -24.5 -95.001s-9.5 -84.5 -9.5 -140.5c0 -122 24.667 -220.833 74 -296.5s120.666 -121.834 213.999 -138.501v848z" />
    <glyph glyph-name="sterling" unicode="&#xa3;" horiz-adv-x="1792" 
d="M240 132c32.667 16 58.334 35.5 77.001 58.5s32.667 47.5 42 73.5s15.166 53 17.499 81s3.5 55 3.5 81v146h-155v91h155v156c0 62.667 12.333 121.334 37 176.001s60.834 102.167 108.501 142.5s106.667 72 177 95s151.166 34.5 242.499 34.5c30 0 58.5 -1.5 85.5 -4.5
s51.833 -6.5 74.5 -10.5s43.167 -8.16699 61.5 -12.5l48.5 -11.5v-211h-53c-16 8 -35 17 -57 27s-47.333 19.5 -76 28.5s-60.667 16.5 -96 22.5s-74.333 9 -117 9c-38 0 -69.167 -3.83301 -93.5 -11.5s-47.833 -20.834 -70.5 -39.501c-14 -12 -25 -24.333 -33 -37
s-14.167 -26.5 -18.5 -41.5s-7 -31.833 -8 -50.5s-1.5 -39.667 -1.5 -63v-198h427v-91h-427v-148c0 -21.333 -3.33301 -43.5 -10 -66.5s-16.167 -45 -28.5 -66s-26.833 -40.167 -43.5 -57.5s-35 -31.333 -55 -42v-20l128 17h508c14.667 0 25.5 2.83301 32.5 8.5
s11.167 12.5 12.5 20.5l31 189h116v-407h-1042v132z" />
    <glyph glyph-name="currency" unicode="&#xa4;" horiz-adv-x="1527" 
d="M155 1249l162 -161c79.333 57.333 171 86 275 86c108.667 0 201 -29 277 -87l163 162l83 -82l-163 -163c59.333 -81.333 89 -173 89 -275c0 -101.333 -30 -193.333 -90 -276l164 -163l-83 -83l-164 164c-83.333 -57.333 -175.333 -86 -276 -86
c-106 0 -197.333 28.333 -274 85l-163 -163l-83 83l162 161c-59.333 79.333 -89 172 -89 278c0 107.333 29.333 199.333 88 276l-161 162zM269 729c0 -49.333 7.83203 -94.6689 23.499 -136.002s37.834 -77 66.501 -107s62.667 -53.5 102 -70.5s83 -25.5 131 -25.5
c50.667 0 96.167 9.33301 136.5 28s74.5 43.667 102.5 75s49.333 67.333 64 108s22 83.334 22 128.001c0 48.667 -8 93.834 -24 135.501s-38.333 77.667 -67 108s-63 54 -103 71s-83.667 25.5 -131 25.5c-51.333 0 -97 -9.33301 -137 -28s-73.667 -43.667 -101 -75
s-48.333 -67.5 -63 -108.5s-22 -83.833 -22 -128.5z" />
    <glyph glyph-name="yen" unicode="&#xa5;" horiz-adv-x="1856" 
d="M446 83l169.001 56c11.333 3.33301 20.333 8.5 27 15.5s10 17.833 10 32.5v126h-438v108h438v69l-61 97h-377v108h310l-261 384c-6 9.33301 -12.667 17.833 -20 25.5s-16.333 13.167 -27 16.5l-116 43v81h532v-81l-162 -57l253 -384l55 -115h21l316 494l-163 62v81h463
v-70l-113 -46c-10 -5.33301 -18.833 -11.5 -26.5 -18.5s-14.834 -15.167 -21.501 -24.5l-274 -391h314v-108h-383l-60 -81v-85h443v-108h-442v-126c0 -14.667 3.16699 -25.5 9.5 -32.5s14.5 -12.167 24.5 -15.5l171 -56v-83h-611v83z" />
    <glyph glyph-name="brokenbar" unicode="&#xa6;" horiz-adv-x="1455" 
d="M478 1558h157v-820h-157v820zM478 386h157v-820h-157v820z" />
    <glyph glyph-name="section" unicode="&#xa7;" horiz-adv-x="1734" 
d="M276 -75l47.0078 -0.00390625c11.333 -7.33301 29.166 -17.333 53.499 -30s54 -25 89 -37s74.5 -22.5 118.5 -31.5s91.667 -13.5 143 -13.5c54 0 95.833 14.667 125.5 44s44.5 73.333 44.5 132c0 30 -7.83301 56 -23.5 78s-37.334 42 -65.001 60s-60.167 35 -97.5 51
l-122 51c-72.667 29.333 -133.334 58.666 -182.001 87.999s-87.834 58.666 -117.501 87.999s-50.667 59 -63 89s-18.5 60.667 -18.5 92c0 32 4.83301 62.333 14.5 91s25.167 56.334 46.5 83.001l167 126c-52 36 -89.333 73.667 -112 113s-34 80 -34 122
c0 35.333 7 68.666 21 99.999s32.833 60.333 56.5 87s51.334 50.334 83.001 71.001s65.167 38.334 100.5 53.001s71.333 25.834 108 33.501s72 11.5 106 11.5c46 0 88 -2.16699 126 -6.5s71.667 -9.5 101 -15.5s54.166 -12.667 74.499 -20s36.166 -14 47.499 -20v-199h-47
c-11.333 7.33301 -28.833 17.333 -52.5 30s-52.834 25 -87.501 37s-74 22.5 -118 31.5s-91.667 13.5 -143 13.5c-56.667 0 -99 -14.333 -127 -43s-42 -70.334 -42 -125.001c0 -30.667 7.66699 -57.5 23 -80.5s36.5 -44 63.5 -63s59.333 -36.833 97 -53.5
s78.834 -34 123.501 -52c72.667 -29.333 133.5 -58.666 182.5 -87.999s88.167 -58.833 117.5 -88.5s50.166 -59.667 62.499 -90s18.5 -61.166 18.5 -92.499c0 -36 -6 -68 -18 -96s-28.667 -56.667 -50 -86l-159 -117c25.333 -17.333 47.166 -34.833 65.499 -52.5
s33.5 -35.667 45.5 -54s21 -37.166 27 -56.499s9 -39 9 -59c0 -40 -7 -76.833 -21 -110.5s-33 -64.167 -57 -91.5s-52 -51.166 -84 -71.499s-65.667 -37.5 -101 -51.5s-71.5 -24.5 -108.5 -31.5s-72.833 -10.5 -107.5 -10.5c-45.333 0 -87 2.33301 -125 7
s-72 10.167 -102 16.5s-55.333 13.333 -76 21s-36.334 14.5 -47.001 20.5v196zM747.008 355.996c21.333 -8 41.334 -16.166 60.001 -24.499l54 -24.5c18 10 34.5 21.667 49.5 35s28.167 28 39.5 44s20.166 32.833 26.499 50.5s9.5 35.5 9.5 53.5c0 32.667 -8.5 63 -25.5 91
s-40.5 53.833 -70.5 77.5s-66 45.834 -108 66.501s-88 40.334 -138 59.001c-18.667 7.33301 -37.5 15.166 -56.5 23.499s-36.5 16.5 -52.5 24.5c-24 -12 -44.167 -25.5 -60.5 -40.5s-29.5 -30.333 -39.5 -46s-17 -31.334 -21 -47.001s-6 -30.167 -6 -43.5
c0 -35.333 8.16699 -67 24.5 -95s39.5 -53.833 69.5 -77.5s65.833 -45.834 107.5 -66.501s87.5 -40.667 137.5 -60z" />
    <glyph glyph-name="dieresis" unicode="&#xa8;" horiz-adv-x="1365" 
d="M740 1289c-17.333 0 -33.833 2.66602 -49.5 7.99902s-29.5 13 -41.5 23s-21.667 22.333 -29 37s-11 31.334 -11 50.001c0 20.667 3.66699 38.667 11 54s17 28.166 29 38.499s25.833 18.166 41.5 23.499s32.167 8 49.5 8c20 0 38.5 -2.33301 55.5 -7
s31.5 -11.667 43.5 -21s21.333 -21.166 28 -35.499s10 -31.166 10 -50.499c0 -20 -3.5 -38 -10.5 -54s-16.667 -29.5 -29 -40.5s-26.833 -19.333 -43.5 -25s-34.667 -8.5 -54 -8.5zM278 1289c-17.333 0 -33.833 2.66602 -49.5 7.99902s-29.5 13 -41.5 23
s-21.667 22.333 -29 37s-11 31.334 -11 50.001c0 20.667 3.66699 38.667 11 54s17 28.166 29 38.499s25.833 18.166 41.5 23.499s32.167 8 49.5 8c20 0 38.5 -2.33301 55.5 -7s31.5 -11.667 43.5 -21s21.333 -21.166 28 -35.499s10 -31.166 10 -50.499
c0 -20 -3.5 -38 -10.5 -54s-16.667 -29.5 -29 -40.5s-26.833 -19.333 -43.5 -25s-34.667 -8.5 -54 -8.5z" />
    <glyph glyph-name="copyright" unicode="&#xa9;" horiz-adv-x="2390" 
d="M1027 -287c-82 0 -161 10.667 -237 32s-147 51.333 -213 90s-126.167 85.167 -180.5 139.5s-101 114.5 -140 180.5s-69.167 136.833 -90.5 212.5s-32 154.5 -32 236.5c0 80.667 10.667 158.667 32 234s51.5 146 90.5 212s85.667 126 140 180s114.5 100.333 180.5 139
s137 68.667 213 90s155 32 237 32c81.333 0 159.666 -10.667 234.999 -32s145.833 -51.333 211.5 -90s125.667 -85 180 -139s100.833 -114 139.5 -180s68.667 -136.667 90 -212s32 -153.333 32 -234c0 -82 -10.667 -160.833 -32 -236.5s-51.333 -146.5 -90 -212.5
s-85.167 -126.167 -139.5 -180.5s-114.333 -100.833 -180 -139.5s-136.167 -68.667 -211.5 -90s-153.666 -32 -234.999 -32zM1027 -189c72.667 0 142.334 9.33301 209.001 28s128.834 45.167 186.501 79.5s110 75.5 157 123.5s87.167 101.5 120.5 160.5
s59.166 122.333 77.499 190s27.5 138.167 27.5 211.5c0 72.667 -9.16699 142.5 -27.5 209.5s-44.166 129.667 -77.499 188s-73.5 111.333 -120.5 159s-99.333 88.667 -157 123s-119.834 60.833 -186.501 79.5s-136.334 28 -209.001 28c-73.333 0 -143.5 -9.33301 -210.5 -28
s-129.5 -45.167 -187.5 -79.5s-110.667 -75.333 -158 -123s-87.666 -100.667 -120.999 -159s-59.166 -121 -77.499 -188s-27.5 -136.833 -27.5 -209.5c0 -73.333 9.16699 -143.833 27.5 -211.5s44.166 -131 77.499 -190s73.666 -112.5 120.999 -160.5
s100 -89.167 158 -123.5s120.5 -60.833 187.5 -79.5s137.167 -28 210.5 -28zM1424 353l0.00390625 -100.997c-20.667 -16 -44.334 -32.333 -71.001 -49s-55.667 -31.834 -87 -45.501s-64.333 -24.834 -99 -33.501s-70.334 -13 -107.001 -13c-74.667 0 -142.5 11 -203.5 33
s-113.333 53.833 -157 95.5s-77.334 92.834 -101.001 153.501s-35.5 129.667 -35.5 207c0 74.667 12.333 142.167 37 202.5s59.167 112 103.5 155s97 76.167 158 99.5s127.833 35 200.5 35c26 0 54.5 -1.83301 85.5 -5.5s62 -8.33398 93 -14.001s60.833 -11.5 89.5 -17.5
l75 -16v-255h-101l-23 139c-1.33301 5.33301 -5 10.166 -11 14.499s-11.333 7.5 -16 9.5c-30.667 14.667 -61.167 25.834 -91.5 33.501s-65.5 11.5 -105.5 11.5c-48 0 -91.333 -7.5 -130 -22.5s-71.834 -37.5 -99.501 -67.5s-49 -67.667 -64 -113s-22.5 -98.333 -22.5 -159
c0 -132.667 30 -232.834 90 -300.501s150 -101.5 270 -101.5c32 0 61.833 4.83301 89.5 14.5s53 21.167 76 34.5s43.667 27 62 41l47.5 35h48z" />
    <glyph glyph-name="ordfeminine" unicode="&#xaa;" horiz-adv-x="1508" 
d="M761 684c-24 -32.667 -50.002 -59 -78.002 -79s-56.167 -35.333 -84.5 -46s-56 -17.667 -83 -21s-51.833 -5 -74.5 -5c-43.333 0 -81.666 7.16699 -114.999 21.5s-61.5 33.333 -84.5 57s-40.5 51 -52.5 82s-18 63.167 -18 96.5c0 38.667 6.83301 73.167 20.5 103.5
s32 57 55 80s49.333 42.5 79 58.5s60.834 29.167 93.501 39.5s65.667 17.833 99 22.5s64.666 7 93.999 7c6 0 15.167 -0.666992 27.5 -2s25.5 -2.66602 39.5 -3.99902s27.5 -2.83301 40.5 -4.5s23.167 -2.83398 30.5 -3.50098v108c0 31.333 -4.33301 57.5 -13 78.5
s-20.667 38 -36 51s-33.666 22.167 -54.999 27.5s-44.333 8 -69 8c-28 0 -56.333 -5 -85 -15s-56.167 -22 -82.5 -36s-50.666 -28.333 -72.999 -43l-56.5 -36l-42 -1v174l79.5 26.5c26.333 9 53.666 17 81.999 24s59 12.667 92 17s69.5 6.5 109.5 6.5
c42 0 82.833 -3.83301 122.5 -11.5s74.667 -22.167 105 -43.5s54.833 -50.833 73.5 -88.5s28 -86.5 28 -146.5v-228v-57.5v-57v-57.5v-57c0 -10.667 2.33301 -20.334 7 -29.001s10.667 -16 18 -22s15.5 -10.667 24.5 -14s18.167 -5 27.5 -5c6 0 12.333 0.833008 19 2.5
s13.334 3.83398 20.001 6.50098s13.5 5.66699 20.5 9s13.5 7 19.5 11h20l-1 -82c-8 -6 -19 -13.167 -33 -21.5s-29.167 -16.5 -45.5 -24.5s-32.833 -14.667 -49.5 -20s-31.334 -8 -44.001 -8c-54.667 0 -95.667 12.5 -123 37.5s-41.333 62.833 -42 113.5h-7zM749.998 995
c-58 0 -111 -2.16992 -159 -6.50293s-89 -12.666 -123 -24.999s-60.5 -30.166 -79.5 -53.499s-28.5 -54 -28.5 -92c0 -30 5 -54.833 15 -74.5s22.833 -35.5 38.5 -47.5s33 -20.333 52 -25s37.5 -7 55.5 -7s37.833 1.83301 59.5 5.5s43 9.33398 64 17.001
s40.833 17.5 59.5 29.5s34 26 46 42v237z" />
    <glyph glyph-name="guillemotleft" unicode="&#xab;" horiz-adv-x="1784" 
d="M237 536v113l388 400h145l-320 -457l320 -458h-145zM715 536v113l388 400h145l-320 -457l320 -458h-145z" />
    <glyph glyph-name="logicalnot" unicode="&#xac;" horiz-adv-x="1896" 
d="M201 737h1132v-652h-162v498h-970v154z" />
    <glyph glyph-name="registered" unicode="&#xae;" horiz-adv-x="2390" 
d="M1027 -287c-82 0 -161 10.667 -237 32s-147 51.333 -213 90s-126.167 85.167 -180.5 139.5s-101 114.5 -140 180.5s-69.167 136.833 -90.5 212.5s-32 154.5 -32 236.5c0 80.667 10.667 158.667 32 234s51.5 146 90.5 212s85.667 126 140 180s114.5 100.333 180.5 139
s137 68.667 213 90s155 32 237 32c81.333 0 159.666 -10.667 234.999 -32s145.833 -51.333 211.5 -90s125.667 -85 180 -139s100.833 -114 139.5 -180s68.667 -136.667 90 -212s32 -153.333 32 -234c0 -82 -10.667 -160.833 -32 -236.5s-51.333 -146.5 -90 -212.5
s-85.167 -126.167 -139.5 -180.5s-114.333 -100.833 -180 -139.5s-136.167 -68.667 -211.5 -90s-153.666 -32 -234.999 -32zM1027 -189c72.667 0 142.334 9.33301 209.001 28s128.834 45.167 186.501 79.5s110 75.5 157 123.5s87.167 101.5 120.5 160.5
s59.166 122.333 77.499 190s27.5 138.167 27.5 211.5c0 72.667 -9.16699 142.5 -27.5 209.5s-44.166 129.667 -77.499 188s-73.5 111.333 -120.5 159s-99.333 88.667 -157 123s-119.834 60.833 -186.501 79.5s-136.334 28 -209.001 28c-73.333 0 -143.5 -9.33301 -210.5 -28
s-129.5 -45.167 -187.5 -79.5s-110.667 -75.333 -158 -123s-87.666 -100.667 -120.999 -159s-59.166 -121 -77.499 -188s-27.5 -136.833 -27.5 -209.5c0 -73.333 9.16699 -143.833 27.5 -211.5s44.166 -131 77.499 -190s73.666 -112.5 120.999 -160.5
s100 -89.167 158 -123.5s120.5 -60.833 187.5 -79.5s137.167 -28 210.5 -28zM606 207l113.001 36.0029c6 2 11 4.83301 15 8.5s6 9.5 6 17.5v686c0 6.66699 -2.16699 11.834 -6.5 15.501s-9.16602 6.16699 -14.499 7.5l-113 37v60h419c77.333 0 140 -7 188 -21
s85.5 -32.333 112.5 -55s45.167 -48.334 54.5 -77.001s14 -57.334 14 -86.001c0 -37.333 -6.66699 -70.5 -20 -99.5s-30.5 -54.167 -51.5 -75.5s-44.333 -38.833 -70 -52.5s-50.834 -23.5 -75.501 -29.5l243 -301c4.66699 -5.33301 11.334 -12.333 20.001 -21
s17.667 -14.334 27 -17.001l118 -33v-61h-176c-24 0 -42.833 1.16699 -56.5 3.5s-25.334 6.66602 -35.001 12.999s-18.667 14.833 -27 25.5l-32.5 42l-236 303l-124 25v-289c0 -8 2.16699 -14 6.5 -18s9.16602 -6.66699 14.499 -8l114 -36v-61h-427v61zM898.001 640.003
c6 -0.666992 14.167 -1.49805 24.5 -2.49805s21 -1.83301 32 -2.5s21.667 -1.16699 32 -1.5s19.166 -0.5 26.499 -0.5c36 0 67.167 4.83301 93.5 14.5s48.333 22.667 66 39s30.834 35.166 39.501 56.499s13 43.666 13 66.999c0 62.667 -19.167 108.167 -57.5 136.5
s-94.833 42.5 -169.5 42.5h-100v-349z" />
    <glyph glyph-name="degree" unicode="&#xb0;" horiz-adv-x="1411" 
d="M150 1193c0 58 9.33203 110.664 27.999 157.997s45 87.5 79 120.5s74.5 58.5 121.5 76.5s98.833 27 155.5 27c58.667 0 111.667 -9.16699 159 -27.5s87.833 -44.333 121.5 -78s59.667 -74 78 -121s27.5 -98.833 27.5 -155.5s-9.16699 -108.5 -27.5 -155.5
s-44.333 -87.167 -78 -120.5s-74.167 -59.333 -121.5 -78s-100.333 -28 -159 -28s-111.667 9.33301 -159 28s-87.666 44.834 -120.999 78.501s-59 73.834 -77 120.501s-27 98.334 -27 155.001zM536.999 918.997c25.333 0 49.833 5.33301 73.5 16s44.5 27 62.5 49
s32.333 49.667 43 83s16 72.666 16 117.999c0 94.667 -18.167 165.334 -54.5 212.001s-84.5 70 -144.5 70c-30 0 -57.167 -6.33301 -81.5 -19s-44.833 -30.834 -61.5 -54.501s-29.5 -52.167 -38.5 -85.5s-13.5 -70.666 -13.5 -111.999c0 -86.667 17.167 -154.5 51.5 -203.5
s83.5 -73.5 147.5 -73.5z" />
    <glyph glyph-name="plusminus" unicode="&#xb1;" horiz-adv-x="1896" 
d="M207 154h492v436h-492v154h492v498h157v-498h492v-154h-492v-436h492v-154h-1141v154z" />
    <glyph glyph-name="uni00B2" unicode="&#xb2;" horiz-adv-x="1263" 
d="M92 961l201.497 162.499c61.667 51.667 114.834 102.167 159.501 151.5s79.667 98.5 105 147.5s38 99.833 38 152.5c0 32.667 -2.5 61.167 -7.5 85.5s-13.5 44.333 -25.5 60s-27.833 27.334 -47.5 35.001s-43.834 11.5 -72.501 11.5c-29.333 0 -58 -4.5 -86 -13.5
s-54 -19.667 -78 -32s-45.5 -24.833 -64.5 -37.5l-46.5 -31h-47v156c10.667 4 25.334 10 44.001 18s40.5 16 65.5 24s53.333 14.833 85 20.5s66.5 8.5 104.5 8.5c49.333 0 95.833 -6.66699 139.5 -20s81.834 -32.333 114.501 -57s58.5 -55 77.5 -91s28.5 -76.333 28.5 -121
c0 -56.667 -13.333 -109.5 -40 -158.5s-62.667 -96.667 -108 -143s-97.666 -93 -156.999 -140l-188 -150.5v-15l89 12h289c10.667 0 20 2.33301 28 7s12.667 10.667 14 18l22 120h91v-295h-728v115z" />
    <glyph glyph-name="uni00B3" unicode="&#xb3;" horiz-adv-x="1268" 
d="M94 1043l45.002 0.000976562l49.5 -29.5c21 -12.333 44.5 -24.166 70.5 -35.499s53.5 -21.166 82.5 -29.499s57.167 -12.5 84.5 -12.5c38.667 0 71.167 4.33301 97.5 13s47.5 21 63.5 37s27.5 35.667 34.5 59s10.5 50 10.5 80c0 28 -3.16699 53.833 -9.5 77.5
s-17.5 44.167 -33.5 61.5s-37.833 30.833 -65.5 40.5s-62.834 14.5 -105.501 14.5h-95v122h82c67.333 0 115.666 14.833 144.999 44.5s44 75.167 44 136.5c0 22.667 -2 43.334 -6 62.001s-11.333 34.667 -22 48s-25.5 23.666 -44.5 30.999s-43.167 11 -72.5 11
c-27.333 0 -54 -3.83301 -80 -11.5s-50.5 -16.834 -73.5 -27.501s-43.833 -21.667 -62.5 -33l-46 -28h-46v154l41 15c16.667 6 36.167 11.667 58.5 17s47.833 10 76.5 14s61 6 97 6c46 0 90.833 -4.83301 134.5 -14.5s82.5 -24.167 116.5 -43.5s61.333 -44 82 -74
s31 -65.333 31 -106c0 -24 -3.66699 -48.167 -11 -72.5s-19.833 -47.333 -37.5 -69s-41.334 -41.334 -71.001 -59.001s-66.5 -32.5 -110.5 -44.5v-11c26.667 -3.33301 55.5 -9.5 86.5 -18.5s59.833 -23 86.5 -42s48.834 -44 66.501 -75s26.5 -69.833 26.5 -116.5
c0 -54 -13.167 -100.5 -39.5 -139.5s-60 -71.167 -101 -96.5s-86.833 -44 -137.5 -56s-100 -18 -148 -18c-36 0 -69.5 2.16699 -100.5 6.5s-59 9.66602 -84 15.999s-46.833 12.833 -65.5 19.5l-44 16v161z" />
    <glyph glyph-name="acute" unicode="&#xb4;" horiz-adv-x="1365" 
d="M306 1270l75.499 105.497l58 82l46 65.5l39.5 56c13.333 18.667 25.833 33.834 37.5 45.501s23.167 20.834 34.5 27.501s23 11.334 35 14.001s25 4 39 4s26.833 -2.5 38.5 -7.5s21.834 -11.5 30.501 -19.5s15.334 -17.333 20.001 -28s7 -21.667 7 -33
c0 -13.333 -1.5 -25.333 -4.5 -36s-7.83301 -20.667 -14.5 -30s-14.834 -18.5 -24.501 -27.5s-21.5 -18.833 -35.5 -29.5l-51 -40.5l-64.5 -47l-87.5 -62l-119 -84.5z" />
    <glyph glyph-name="paragraph" unicode="&#xb6;" horiz-adv-x="1752" 
d="M667 666h-66c-91.333 0 -167.166 11.833 -227.499 35.5s-108.666 54.167 -144.999 91.5s-62 79 -77 125s-22.5 91.667 -22.5 137c0 28 3.16699 57.333 9.5 88s16.166 60.667 29.499 90s30.666 57.166 51.999 83.499s47 49.5 77 69.5s64.5 35.833 103.5 47.5
s83.167 17.5 132.5 17.5h757v-81l-161 -58c-10.667 -4 -19.5 -9.16699 -26.5 -15.5s-10.5 -16.166 -10.5 -29.499v-1603h-113v1686h-199v-1686h-113v1002z" />
    <glyph glyph-name="periodcentered" unicode="&#xb7;" horiz-adv-x="1076" 
d="M209 587c0 22.667 4.16699 43.667 12.5 63s19.666 36.333 33.999 51s31.166 26.167 50.499 34.5s40.333 12.5 63 12.5s43.834 -4.16699 63.501 -12.5s36.834 -19.833 51.501 -34.5s26.167 -31.667 34.5 -51s12.5 -40.333 12.5 -63s-4.16699 -43.667 -12.5 -63
s-19.833 -36 -34.5 -50s-31.834 -25 -51.501 -33s-40.834 -12 -63.501 -12s-43.667 4 -63 12s-36.166 19 -50.499 33s-25.666 30.667 -33.999 50s-12.5 40.333 -12.5 63z" />
    <glyph glyph-name="periodcentered" unicode="&#x2219;" horiz-adv-x="1076" 
d="M209 587c0 22.667 4.16699 43.667 12.5 63s19.666 36.333 33.999 51s31.166 26.167 50.499 34.5s40.333 12.5 63 12.5s43.834 -4.16699 63.501 -12.5s36.834 -19.833 51.501 -34.5s26.167 -31.667 34.5 -51s12.5 -40.333 12.5 -63s-4.16699 -43.667 -12.5 -63
s-19.833 -36 -34.5 -50s-31.834 -25 -51.501 -33s-40.834 -12 -63.501 -12s-43.667 4 -63 12s-36.166 19 -50.499 33s-25.666 30.667 -33.999 50s-12.5 40.333 -12.5 63z" />
    <glyph glyph-name="cedilla" unicode="&#xb8;" horiz-adv-x="1365" 
d="M312 -352l27.999 0.000976562c19.333 -12.667 44.833 -24.667 76.5 -36s65.834 -17 102.501 -17c40.667 0 71.5 9 92.5 27s31.5 42 31.5 72c0 18.667 -3.33301 33.667 -10 45s-17 20.333 -31 27s-32.333 11.167 -55 13.5s-50 3.5 -82 3.5v234h94v-126
c28.667 0 57 -2.66699 85 -8s53 -14.5 75 -27.5s39.833 -30.333 53.5 -52s20.5 -48.834 20.5 -81.501c0 -35.333 -6.33301 -66.833 -19 -94.5s-30.5 -51 -53.5 -70s-50.667 -33.5 -83 -43.5s-68.5 -15 -108.5 -15c-48 0 -89.167 5.16699 -123.5 15.5
s-65.5 21.833 -93.5 34.5v99z" />
    <glyph glyph-name="uni00B9" unicode="&#xb9;" horiz-adv-x="1103" 
d="M124 927l166 41.001c8 1.33301 14.333 4.66602 19 9.99902s7 13 7 23v582l11 100h-15l-204 -29v83l294 130h89c-1.33301 -16 -2.33301 -33.167 -3 -51.5s-1.16699 -37.333 -1.5 -57l-1 -58.5c-0.333008 -19.333 -0.5 -37.666 -0.5 -54.999v-644
c0 -10 2.16699 -17.333 6.5 -22s10.5 -8.33398 18.5 -11.001l159 -41v-81h-545v81z" />
    <glyph glyph-name="ordmasculine" unicode="&#xba;" horiz-adv-x="1508" 
d="M580 529c-66 0 -126.334 10.833 -181.001 32.5s-101.5 52.834 -140.5 93.501s-69.167 90.167 -90.5 148.5s-32 124.166 -32 197.499c0 67.333 10.667 130 32 188s51.5 108.333 90.5 151s86.333 76.167 142 100.5s118.167 36.5 187.5 36.5
c75.333 0 140.833 -12.833 196.5 -38.5s101.834 -60.167 138.501 -103.5s64 -93.5 82 -150.5s27 -116.833 27 -179.5c0 -67.333 -10.5 -129.833 -31.5 -187.5s-51 -108 -90 -151s-86.5 -76.667 -142.5 -101s-118.667 -36.5 -188 -36.5zM591.999 659
c48 0 87.668 9.49902 119.001 28.499s56.166 44 74.499 75s31.333 66.167 39 105.5s11.5 79 11.5 119c0 48.667 -4.66699 95.834 -14 141.501s-24.333 86.167 -45 121.5s-47.5 63.666 -80.5 84.999s-73.167 32 -120.5 32s-86.666 -10.667 -117.999 -32
s-56.333 -48.666 -75 -81.999s-31.834 -70.5 -39.501 -111.5s-11.5 -80.833 -11.5 -119.5c0 -44 4.16699 -87.5 12.5 -130.5s22.5 -81.833 42.5 -116.5s46.667 -62.667 80 -84s75 -32 125 -32z" />
    <glyph glyph-name="guillemotright" unicode="&#xbb;" horiz-adv-x="1784" 
d="M994 592l-320 457h145l388 -400v-113l-388 -402h-145zM516 592l-320 457h145l388 -400v-113l-388 -402h-145z" />
    <glyph glyph-name="onequarter" unicode="&#xbc;" horiz-adv-x="2317" 
d="M1413 1558h148l-1032 -1659h-149zM1072 295l542.001 633.001h121v-628h170v-118h-170v-139c0 -9.33301 2.5 -16.333 7.5 -21s11.167 -8 18.5 -10l104 -31v-80h-430v80l107 31c7.33301 2.66699 13.166 6.16699 17.499 10.5s6.5 11.166 6.5 20.499v139h-494v113z
M1280 300.001h286v326l14 103h-15l-372 -427v-17zM124.001 629.001l166 41.001c8 1.33301 14.333 4.66602 19 9.99902s7 13 7 23v582l11 100h-15l-204 -29v83l294 130h89c-1.33301 -16 -2.33301 -33.167 -3 -51.5s-1.16699 -37.333 -1.5 -57l-1 -58.5
c-0.333008 -19.333 -0.5 -37.666 -0.5 -54.999v-644c0 -10 2.16699 -17.333 6.5 -22s10.5 -8.33398 18.5 -11.001l159 -41v-81h-545v81z" />
    <glyph glyph-name="onehalf" unicode="&#xbd;" horiz-adv-x="2456" 
d="M1413 1558h148l-1032 -1659h-149zM1285 17l201.497 162.499c61.667 51.667 114.834 102.167 159.501 151.5s79.667 98.5 105 147.5s38 99.833 38 152.5c0 32.667 -2.5 61.167 -7.5 85.5s-13.5 44.333 -25.5 60s-27.833 27.334 -47.5 35.001s-43.834 11.5 -72.501 11.5
c-29.333 0 -58 -4.5 -86 -13.5s-54 -19.667 -78 -32s-45.5 -24.833 -64.5 -37.5l-46.5 -31h-47v156c10.667 4 25.334 10 44.001 18s40.5 16 65.5 24s53.333 14.833 85 20.5s66.5 8.5 104.5 8.5c49.333 0 95.833 -6.66699 139.5 -20s81.834 -32.333 114.501 -57
s58.5 -55 77.5 -91s28.5 -76.333 28.5 -121c0 -56.667 -13.333 -109.5 -40 -158.5s-62.667 -96.667 -108 -143s-97.666 -93 -156.999 -140l-188 -150.5v-15l89 12h289c10.667 0 20 2.33301 28 7s12.667 10.667 14 18l22 120h91v-295h-728v115zM123.997 628.999l166 41.001
c8 1.33301 14.333 4.66602 19 9.99902s7 13 7 23v582l11 100h-15l-204 -29v83l294 130h89c-1.33301 -16 -2.33301 -33.167 -3 -51.5s-1.16699 -37.333 -1.5 -57l-1 -58.5c-0.333008 -19.333 -0.5 -37.666 -0.5 -54.999v-644c0 -10 2.16699 -17.333 6.5 -22
s10.5 -8.33398 18.5 -11.001l159 -41v-81h-545v81z" />
    <glyph glyph-name="threequarters" unicode="&#xbe;" horiz-adv-x="2407" 
d="M1162 296l542.001 633.001h121v-628h170v-118h-170v-139c0 -9.33301 2.5 -16.333 7.5 -21s11.167 -8 18.5 -10l104 -31v-80h-430v80l107 31c7.33301 2.66699 13.166 6.16699 17.499 10.5s6.5 11.166 6.5 20.499v139h-494v113zM1370 301.001h286v326l14 103h-15l-372 -427
v-17zM1503 1558h148l-1032 -1659h-149zM94.001 745.001l45.002 0.000976562l49.5 -29.5c21 -12.333 44.5 -24.166 70.5 -35.499s53.5 -21.166 82.5 -29.499s57.167 -12.5 84.5 -12.5c38.667 0 71.167 4.33301 97.5 13s47.5 21 63.5 37s27.5 35.667 34.5 59s10.5 50 10.5 80
c0 28 -3.16699 53.833 -9.5 77.5s-17.5 44.167 -33.5 61.5s-37.833 30.833 -65.5 40.5s-62.834 14.5 -105.501 14.5h-95v122h82c67.333 0 115.666 14.833 144.999 44.5s44 75.167 44 136.5c0 22.667 -2 43.334 -6 62.001s-11.333 34.667 -22 48s-25.5 23.666 -44.5 30.999
s-43.167 11 -72.5 11c-27.333 0 -54 -3.83301 -80 -11.5s-50.5 -16.834 -73.5 -27.501s-43.833 -21.667 -62.5 -33l-46 -28h-46v154l41 15c16.667 6 36.167 11.667 58.5 17s47.833 10 76.5 14s61 6 97 6c46 0 90.833 -4.83301 134.5 -14.5s82.5 -24.167 116.5 -43.5
s61.333 -44 82 -74s31 -65.333 31 -106c0 -24 -3.66699 -48.167 -11 -72.5s-19.833 -47.333 -37.5 -69s-41.334 -41.334 -71.001 -59.001s-66.5 -32.5 -110.5 -44.5v-11c26.667 -3.33301 55.5 -9.5 86.5 -18.5s59.833 -23 86.5 -42s48.834 -44 66.501 -75
s26.5 -69.833 26.5 -116.5c0 -54 -13.167 -100.5 -39.5 -139.5s-60 -71.167 -101 -96.5s-86.833 -44 -137.5 -56s-100 -18 -148 -18c-36 0 -69.5 2.16699 -100.5 6.5s-59 9.66602 -84 15.999s-46.833 12.833 -65.5 19.5l-44 16v161z" />
    <glyph glyph-name="questiondown" unicode="&#xbf;" horiz-adv-x="1489" 
d="M674 799c-22 0 -42.833 4.16699 -62.5 12.5s-36.834 19.666 -51.501 33.999s-26.167 31.333 -34.5 51s-12.5 40.5 -12.5 62.5s4.16699 42.5 12.5 61.5s19.833 35.5 34.5 49.5s31.834 25 51.501 33s40.5 12 62.5 12s42.667 -4 62 -12s36 -19 50 -33
s25.167 -30.5 33.5 -49.5s12.5 -39.5 12.5 -61.5s-4.16699 -42.833 -12.5 -62.5s-19.5 -36.667 -33.5 -51s-30.667 -25.666 -50 -33.999s-40 -12.5 -62 -12.5zM969 -100v-212.001c-14.667 -6 -33.334 -14.167 -56.001 -24.5s-49 -20.5 -79 -30.5s-63.167 -18.667 -99.5 -26
s-75.5 -11 -117.5 -11c-60 0 -118 9.33301 -174 28s-105.833 45.834 -149.5 81.501s-78.667 79.5 -105 131.5s-39.5 111 -39.5 177c0 66.667 11.833 125.334 35.5 176.001s55.834 94.667 96.501 132s87.834 68.833 141.501 94.5s110.5 46.5 170.5 62.5v188h155v-353
c-28 -3.33301 -57.333 -8.16602 -88 -14.499s-61 -14.833 -91 -25.5s-58.333 -24 -85 -40s-50.334 -35.333 -71.001 -58s-37 -49 -49 -79s-18 -64.333 -18 -103c0 -42 4.16699 -78.333 12.5 -109s21.166 -56.334 38.499 -77.001s39.666 -36 66.999 -46s60 -15 98 -15
c35.333 0 71.333 6 108 18s71.334 26.167 104.001 42.5s62.334 33.166 89.001 50.499l63 42h43z" />
    <glyph glyph-name="Agrave" unicode="&#xc0;" horiz-adv-x="1856" 
d="M16 83l107 52c11.333 5.33301 21.333 13 30 23s15 20.333 19 31l410 1042l116 242h136l510 -1289c4 -10 9.83301 -20.333 17.5 -31s16.5 -18 26.5 -22l112 -48v-83h-543v83l167 66l-138 351h-543l-130 -345l170 -72v-83h-467v83zM932 659l-165 403l-36 135h-22l-211 -538
h434zM903 1573l-119.001 84.5029l-87.5 62l-64.5 47l-51 40.5c-14 10.667 -25.833 20.5 -35.5 29.5s-17.834 18.167 -24.501 27.5s-11.5 19.333 -14.5 30s-4.5 22.667 -4.5 36c0 11.333 2.33301 22.333 7 33s11.334 20 20.001 28s18.834 14.5 30.501 19.5s24.5 7.5 38.5 7.5
s27 -1.33301 39 -4s23.667 -7.33398 35 -14.001s22.833 -15.834 34.5 -27.501s24.167 -26.834 37.5 -45.501l39.5 -56l46 -65.5l58 -82l75.5 -105.5z" />
    <glyph glyph-name="Aacute" unicode="&#xc1;" horiz-adv-x="1856" 
d="M16 83l107 52c11.333 5.33301 21.333 13 30 23s15 20.333 19 31l410 1042l116 242h136l510 -1289c4 -10 9.83301 -20.333 17.5 -31s16.5 -18 26.5 -22l112 -48v-83h-543v83l167 66l-138 351h-543l-130 -345l170 -72v-83h-467v83zM932 659l-165 403l-36 135h-22l-211 -538
h434zM551 1618l75.499 105.497l58 82l46 65.5l39.5 56c13.333 18.667 25.833 33.834 37.5 45.501s23.167 20.834 34.5 27.501s23 11.334 35 14.001s25 4 39 4s26.833 -2.5 38.5 -7.5s21.834 -11.5 30.501 -19.5s15.334 -17.333 20.001 -28s7 -21.667 7 -33
c0 -13.333 -1.5 -25.333 -4.5 -36s-7.83301 -20.667 -14.5 -30s-14.834 -18.5 -24.501 -27.5s-21.5 -18.833 -35.5 -29.5l-51 -40.5l-64.5 -47l-87.5 -62l-119 -84.5z" />
    <glyph glyph-name="Acircumflex" unicode="&#xc2;" horiz-adv-x="1856" 
d="M16 83l107 52c11.333 5.33301 21.333 13 30 23s15 20.333 19 31l410 1042l116 242h136l510 -1289c4 -10 9.83301 -20.333 17.5 -31s16.5 -18 26.5 -22l112 -48v-83h-543v83l167 66l-138 351h-543l-130 -345l170 -72v-83h-467v83zM932 659l-165 403l-36 135h-22l-211 -538
h434zM628 1925c18.667 26.667 37.501 48.5 56.501 65.5s43.167 25.5 72.5 25.5s53.666 -8.5 72.999 -25.5s38.333 -38.5 57 -64.5l218 -308l-60 -45l-287 250l-288 -250l-60 45z" />
    <glyph glyph-name="Atilde" unicode="&#xc3;" horiz-adv-x="1856" 
d="M16 83l107 52c11.333 5.33301 21.333 13 30 23s15 20.333 19 31l410 1042l116 242h136l510 -1289c4 -10 9.83301 -20.333 17.5 -31s16.5 -18 26.5 -22l112 -48v-83h-543v83l167 66l-138 351h-543l-130 -345l170 -72v-83h-467v83zM932 659l-165 403l-36 135h-22l-211 -538
h434zM391 1624c4.66699 36.667 14.1689 71.332 28.502 103.999s32.333 61.334 54 86.001s46.167 44.334 73.5 59.001s56.666 22 87.999 22c20.667 0 44.667 -4.16699 72 -12.5s56 -20.833 86 -37.5c34 -18 61.333 -30.667 82 -38s37 -11 49 -11c14.667 0 27.667 3 39 9
s21 14.167 29 24.5s14.667 22.333 20 36s9.66602 28.5 12.999 44.5h99c-4 -36 -12.833 -70.333 -26.5 -103s-31 -61.334 -52 -86.001s-45.167 -44.334 -72.5 -59.001s-56.666 -22 -87.999 -22c-10.667 0 -21.334 0.666992 -32.001 2s-22 4 -34 8s-25.333 9.33301 -40 16
s-31 15.334 -49 26.001c-32 18 -59.167 30.833 -81.5 38.5s-39.833 11.5 -52.5 11.5c-29.333 0 -53 -11.667 -71 -35s-30 -51 -36 -83h-98z" />
    <glyph glyph-name="Adieresis" unicode="&#xc4;" horiz-adv-x="1856" 
d="M16 83l107 52c11.333 5.33301 21.333 13 30 23s15 20.333 19 31l410 1042l116 242h136l510 -1289c4 -10 9.83301 -20.333 17.5 -31s16.5 -18 26.5 -22l112 -48v-83h-543v83l167 66l-138 351h-543l-130 -345l170 -72v-83h-467v83zM932 659l-165 403l-36 135h-22l-211 -538
h434zM985 1637c-17.333 0 -33.833 2.66602 -49.5 7.99902s-29.5 13 -41.5 23s-21.667 22.333 -29 37s-11 31.334 -11 50.001c0 20.667 3.66699 38.667 11 54s17 28.166 29 38.499s25.833 18.166 41.5 23.499s32.167 8 49.5 8c20 0 38.5 -2.33301 55.5 -7
s31.5 -11.667 43.5 -21s21.333 -21.166 28 -35.499s10 -31.166 10 -50.499c0 -20 -3.5 -38 -10.5 -54s-16.667 -29.5 -29 -40.5s-26.833 -19.333 -43.5 -25s-34.667 -8.5 -54 -8.5zM523 1637c-17.333 0 -33.833 2.66602 -49.5 7.99902s-29.5 13 -41.5 23
s-21.667 22.333 -29 37s-11 31.334 -11 50.001c0 20.667 3.66699 38.667 11 54s17 28.166 29 38.499s25.833 18.166 41.5 23.499s32.167 8 49.5 8c20 0 38.5 -2.33301 55.5 -7s31.5 -11.667 43.5 -21s21.333 -21.166 28 -35.499s10 -31.166 10 -50.499
c0 -20 -3.5 -38 -10.5 -54s-16.667 -29.5 -29 -40.5s-26.833 -19.333 -43.5 -25s-34.667 -8.5 -54 -8.5z" />
    <glyph glyph-name="Aring" unicode="&#xc5;" horiz-adv-x="1856" 
d="M16 83l107 52c11.333 5.33301 21.333 13 30 23s15 20.333 19 31l410 1042l116 242h136l510 -1289c4 -10 9.83301 -20.333 17.5 -31s16.5 -18 26.5 -22l112 -48v-83h-543v83l167 66l-138 351h-543l-130 -345l170 -72v-83h-467v83zM932 659l-165 403l-36 135h-22l-211 -538
h434zM488 1782c0 40 7.16699 75.501 21.5 106.501s34 57.167 59 78.5s54.5 37.666 88.5 48.999s70.667 17 110 17c38 0 72.833 -5.33301 104.5 -16s58.667 -26.334 81 -47.001s39.833 -46.334 52.5 -77.001s19 -65.667 19 -105c0 -40 -7.16699 -75.667 -21.5 -107
s-33.833 -57.833 -58.5 -79.5s-53.5 -38 -86.5 -49s-68.167 -16.5 -105.5 -16.5c-38 0 -73.167 5.33301 -105.5 16s-60.333 26.334 -84 47.001s-42 46.334 -55 77.001s-19.5 66 -19.5 106zM767 1619c36.667 0 65.834 13.166 87.501 39.499s32.5 63.833 32.5 112.5
c0 26 -3.5 50 -10.5 72s-16.5 41 -28.5 57s-26.333 28.333 -43 37s-34.334 13 -53.001 13c-38 0 -68.333 -13 -91 -39s-34 -64.333 -34 -115c0 -27.333 3.66699 -51.833 11 -73.5s17.333 -40.167 30 -55.5s27.5 -27.166 44.5 -35.499s35.167 -12.5 54.5 -12.5z" />
    <glyph glyph-name="AE" unicode="&#xc6;" horiz-adv-x="2586" 
d="M0 83l117.001 52c11.333 5.33301 22.333 13 33 23s19 20.333 25 31l589 1009c5.33301 9.33301 11 20.333 17 33s9.33301 26.667 10 42c0.666992 11.333 -2.33301 19.833 -9 25.5s-14.667 10.167 -24 13.5l-162 58v81h1438v-366h-137l-30 192
c-2 12.667 -7 22.167 -15 28.5s-17.333 9.5 -28 9.5h-520v-543h304c14 0 24 3 30 9s10.333 15.667 13 29l30 156h110v-504h-110l-30 145c-1.33301 13.333 -5.33301 23.166 -12 29.499s-17 9.5 -31 9.5h-304v-510h595c9.33301 0 18.166 3.33301 26.499 10
s13.5 16.334 15.5 29.001l31 214h136v-389h-1220v83l162 56c10 3.33301 18.333 8.5 25 15.5s10 17.833 10 32.5v460h-488l-278 -492l167 -72v-83h-486v83zM1085 773v550h-97l-315 -550h412z" />
    <glyph glyph-name="Ccedilla" unicode="&#xc7;" horiz-adv-x="1823" 
d="M581 -352l28.002 0.000976562c19.333 -12.667 44.833 -24.667 76.5 -36s65.834 -17 102.501 -17c40.667 0 71.5 9 92.5 27s31.5 42 31.5 72c0 18.667 -3.33301 33.667 -10 45s-17 20.333 -31 27s-32.333 11.167 -55 13.5s-50 3.5 -82 3.5v192
c-93.333 10.667 -177.833 35 -253.5 73s-140.334 88.5 -194.001 151.5s-95.167 138.333 -124.5 226s-44 186.834 -44 297.501c0 116 18 220.833 54 314.5s86.333 173.5 151 239.5s141.5 116.833 230.5 152.5s186.167 53.5 291.5 53.5c38 0 79.667 -2.5 125 -7.5
s90.666 -11.333 135.999 -19s88.666 -15.667 129.999 -24s77 -15.833 107 -22.5v-380h-136l-31 214c-1.33301 9.33301 -7.33301 17.833 -18 25.5s-20 13.5 -28 17.5c-22.667 10.667 -45.167 20 -67.5 28s-45.333 14.667 -69 20s-48.167 9.16602 -73.5 11.499
s-52.333 3.5 -81 3.5c-71.333 0 -136.5 -11.833 -195.5 -35.5s-109.5 -59.5 -151.5 -107.5s-74.667 -108.333 -98 -181s-35 -158 -35 -256c0 -208.667 46.5 -366.5 139.5 -473.5s227.5 -160.5 403.5 -160.5c48 0 92.5 7.5 133.5 22.5s78.5 33 112.5 54
s64.5 42.833 91.5 65.5l69.5 57h61v-148c-29.333 -24 -63.333 -48.833 -102 -74.5s-80.5 -49.167 -125.5 -70.5s-93 -38.833 -144 -52.5s-103.5 -20.5 -157.5 -20.5h-6.5h-6.5v-78c28.667 0 57 -2.66699 85 -8s53 -14.5 75 -27.5s39.833 -30.333 53.5 -52
s20.5 -48.834 20.5 -81.501c0 -35.333 -6.33301 -66.833 -19 -94.5s-30.5 -51 -53.5 -70s-50.667 -33.5 -83 -43.5s-68.5 -15 -108.5 -15c-48 0 -89.167 5.16699 -123.5 15.5s-65.5 21.833 -93.5 34.5v99z" />
    <glyph glyph-name="Egrave" unicode="&#xc8;" horiz-adv-x="1829" 
d="M131 83l162.001 56c10 3.33301 18.333 8.5 25 15.5s10 17.833 10 32.5v1080c0 13.333 -3.5 23.333 -10.5 30s-15.167 11.667 -24.5 15l-162 58v81h1146v-366h-137l-30 192c-2 12.667 -7 22.167 -15 28.5s-17.333 9.5 -28 9.5h-520v-493h304c14 0 24 3 30 9
s10.333 15.667 13 29l30 156h110v-524h-110l-30 155c-2.66699 13.333 -7 23.166 -13 29.499s-16 9.5 -30 9.5h-304v-550h595c9.33301 0 18.166 3.33301 26.499 10s13.5 16.334 15.5 29.001l31 214h136v-389h-1220v83zM890.001 1573l-119.001 84.5029l-87.5 62l-64.5 47
l-51 40.5c-14 10.667 -25.833 20.5 -35.5 29.5s-17.834 18.167 -24.501 27.5s-11.5 19.333 -14.5 30s-4.5 22.667 -4.5 36c0 11.333 2.33301 22.333 7 33s11.334 20 20.001 28s18.834 14.5 30.501 19.5s24.5 7.5 38.5 7.5s27 -1.33301 39 -4s23.667 -7.33398 35 -14.001
s22.833 -15.834 34.5 -27.501s24.167 -26.834 37.5 -45.501l39.5 -56l46 -65.5l58 -82l75.5 -105.5z" />
    <glyph glyph-name="Eacute" unicode="&#xc9;" horiz-adv-x="1829" 
d="M131 83l162.001 56c10 3.33301 18.333 8.5 25 15.5s10 17.833 10 32.5v1080c0 13.333 -3.5 23.333 -10.5 30s-15.167 11.667 -24.5 15l-162 58v81h1146v-366h-137l-30 192c-2 12.667 -7 22.167 -15 28.5s-17.333 9.5 -28 9.5h-520v-493h304c14 0 24 3 30 9
s10.333 15.667 13 29l30 156h110v-524h-110l-30 155c-2.66699 13.333 -7 23.166 -13 29.499s-16 9.5 -30 9.5h-304v-550h595c9.33301 0 18.166 3.33301 26.499 10s13.5 16.334 15.5 29.001l31 214h136v-389h-1220v83zM568.001 1618l75.499 105.497l58 82l46 65.5l39.5 56
c13.333 18.667 25.833 33.834 37.5 45.501s23.167 20.834 34.5 27.501s23 11.334 35 14.001s25 4 39 4s26.833 -2.5 38.5 -7.5s21.834 -11.5 30.501 -19.5s15.334 -17.333 20.001 -28s7 -21.667 7 -33c0 -13.333 -1.5 -25.333 -4.5 -36s-7.83301 -20.667 -14.5 -30
s-14.834 -18.5 -24.501 -27.5s-21.5 -18.833 -35.5 -29.5l-51 -40.5l-64.5 -47l-87.5 -62l-119 -84.5z" />
    <glyph glyph-name="Ecircumflex" unicode="&#xca;" horiz-adv-x="1829" 
d="M131 83l162.001 56c10 3.33301 18.333 8.5 25 15.5s10 17.833 10 32.5v1080c0 13.333 -3.5 23.333 -10.5 30s-15.167 11.667 -24.5 15l-162 58v81h1146v-366h-137l-30 192c-2 12.667 -7 22.167 -15 28.5s-17.333 9.5 -28 9.5h-520v-493h304c14 0 24 3 30 9
s10.333 15.667 13 29l30 156h110v-524h-110l-30 155c-2.66699 13.333 -7 23.166 -13 29.499s-16 9.5 -30 9.5h-304v-550h595c9.33301 0 18.166 3.33301 26.499 10s13.5 16.334 15.5 29.001l31 214h136v-389h-1220v83zM615.001 1925c18.667 26.667 37.501 48.5 56.501 65.5
s43.167 25.5 72.5 25.5s53.666 -8.5 72.999 -25.5s38.333 -38.5 57 -64.5l218 -308l-60 -45l-287 250l-288 -250l-60 45z" />
    <glyph glyph-name="Edieresis" unicode="&#xcb;" horiz-adv-x="1829" 
d="M131 83l162.001 56c10 3.33301 18.333 8.5 25 15.5s10 17.833 10 32.5v1080c0 13.333 -3.5 23.333 -10.5 30s-15.167 11.667 -24.5 15l-162 58v81h1146v-366h-137l-30 192c-2 12.667 -7 22.167 -15 28.5s-17.333 9.5 -28 9.5h-520v-493h304c14 0 24 3 30 9
s10.333 15.667 13 29l30 156h110v-524h-110l-30 155c-2.66699 13.333 -7 23.166 -13 29.499s-16 9.5 -30 9.5h-304v-550h595c9.33301 0 18.166 3.33301 26.499 10s13.5 16.334 15.5 29.001l31 214h136v-389h-1220v83zM972.001 1637c-17.333 0 -33.833 2.66602 -49.5 7.99902
s-29.5 13 -41.5 23s-21.667 22.333 -29 37s-11 31.334 -11 50.001c0 20.667 3.66699 38.667 11 54s17 28.166 29 38.499s25.833 18.166 41.5 23.499s32.167 8 49.5 8c20 0 38.5 -2.33301 55.5 -7s31.5 -11.667 43.5 -21s21.333 -21.166 28 -35.499s10 -31.166 10 -50.499
c0 -20 -3.5 -38 -10.5 -54s-16.667 -29.5 -29 -40.5s-26.833 -19.333 -43.5 -25s-34.667 -8.5 -54 -8.5zM510.001 1637c-17.333 0 -33.833 2.66602 -49.5 7.99902s-29.5 13 -41.5 23s-21.667 22.333 -29 37s-11 31.334 -11 50.001c0 20.667 3.66699 38.667 11 54
s17 28.166 29 38.499s25.833 18.166 41.5 23.499s32.167 8 49.5 8c20 0 38.5 -2.33301 55.5 -7s31.5 -11.667 43.5 -21s21.333 -21.166 28 -35.499s10 -31.166 10 -50.499c0 -20 -3.5 -38 -10.5 -54s-16.667 -29.5 -29 -40.5s-26.833 -19.333 -43.5 -25
s-34.667 -8.5 -54 -8.5z" />
    <glyph glyph-name="Igrave" unicode="&#xcc;" horiz-adv-x="1236" 
d="M131 83l172 55.999c11.333 4 20 9.33301 26 16s9 17.334 9 32.001v1080c0 13.333 -3.5 23.333 -10.5 30s-15.167 11.667 -24.5 15l-172 58v81h634v-81l-171 -58c-10.667 -3.33301 -19.5 -8.33301 -26.5 -15s-10.5 -16.667 -10.5 -30v-1080
c0 -14.667 3.66699 -25.5 11 -32.5s16 -12.167 26 -15.5l171 -56v-83h-634v83zM595 1573l-119.001 84.5029l-87.5 62l-64.5 47l-51 40.5c-14 10.667 -25.833 20.5 -35.5 29.5s-17.834 18.167 -24.501 27.5s-11.5 19.333 -14.5 30s-4.5 22.667 -4.5 36
c0 11.333 2.33301 22.333 7 33s11.334 20 20.001 28s18.834 14.5 30.501 19.5s24.5 7.5 38.5 7.5s27 -1.33301 39 -4s23.667 -7.33398 35 -14.001s22.833 -15.834 34.5 -27.501s24.167 -26.834 37.5 -45.501l39.5 -56l46 -65.5l58 -82l75.5 -105.5z" />
    <glyph glyph-name="Iacute" unicode="&#xcd;" horiz-adv-x="1236" 
d="M131 83l172 55.999c11.333 4 20 9.33301 26 16s9 17.334 9 32.001v1080c0 13.333 -3.5 23.333 -10.5 30s-15.167 11.667 -24.5 15l-172 58v81h634v-81l-171 -58c-10.667 -3.33301 -19.5 -8.33301 -26.5 -15s-10.5 -16.667 -10.5 -30v-1080
c0 -14.667 3.66699 -25.5 11 -32.5s16 -12.167 26 -15.5l171 -56v-83h-634v83zM243 1618l75.499 105.497l58 82l46 65.5l39.5 56c13.333 18.667 25.833 33.834 37.5 45.501s23.167 20.834 34.5 27.501s23 11.334 35 14.001s25 4 39 4s26.833 -2.5 38.5 -7.5
s21.834 -11.5 30.501 -19.5s15.334 -17.333 20.001 -28s7 -21.667 7 -33c0 -13.333 -1.5 -25.333 -4.5 -36s-7.83301 -20.667 -14.5 -30s-14.834 -18.5 -24.501 -27.5s-21.5 -18.833 -35.5 -29.5l-51 -40.5l-64.5 -47l-87.5 -62l-119 -84.5z" />
    <glyph glyph-name="Icircumflex" unicode="&#xce;" horiz-adv-x="1236" 
d="M131 83l172 55.999c11.333 4 20 9.33301 26 16s9 17.334 9 32.001v1080c0 13.333 -3.5 23.333 -10.5 30s-15.167 11.667 -24.5 15l-172 58v81h634v-81l-171 -58c-10.667 -3.33301 -19.5 -8.33301 -26.5 -15s-10.5 -16.667 -10.5 -30v-1080
c0 -14.667 3.66699 -25.5 11 -32.5s16 -12.167 26 -15.5l171 -56v-83h-634v83zM320 1925c18.667 26.667 37.501 48.5 56.501 65.5s43.167 25.5 72.5 25.5s53.666 -8.5 72.999 -25.5s38.333 -38.5 57 -64.5l218 -308l-60 -45l-287 250l-288 -250l-60 45z" />
    <glyph glyph-name="Idieresis" unicode="&#xcf;" horiz-adv-x="1236" 
d="M131 83l172 55.999c11.333 4 20 9.33301 26 16s9 17.334 9 32.001v1080c0 13.333 -3.5 23.333 -10.5 30s-15.167 11.667 -24.5 15l-172 58v81h634v-81l-171 -58c-10.667 -3.33301 -19.5 -8.33301 -26.5 -15s-10.5 -16.667 -10.5 -30v-1080
c0 -14.667 3.66699 -25.5 11 -32.5s16 -12.167 26 -15.5l171 -56v-83h-634v83zM677 1637c-17.333 0 -33.833 2.66602 -49.5 7.99902s-29.5 13 -41.5 23s-21.667 22.333 -29 37s-11 31.334 -11 50.001c0 20.667 3.66699 38.667 11 54s17 28.166 29 38.499
s25.833 18.166 41.5 23.499s32.167 8 49.5 8c20 0 38.5 -2.33301 55.5 -7s31.5 -11.667 43.5 -21s21.333 -21.166 28 -35.499s10 -31.166 10 -50.499c0 -20 -3.5 -38 -10.5 -54s-16.667 -29.5 -29 -40.5s-26.833 -19.333 -43.5 -25s-34.667 -8.5 -54 -8.5zM215 1637
c-17.333 0 -33.833 2.66602 -49.5 7.99902s-29.5 13 -41.5 23s-21.667 22.333 -29 37s-11 31.334 -11 50.001c0 20.667 3.66699 38.667 11 54s17 28.166 29 38.499s25.833 18.166 41.5 23.499s32.167 8 49.5 8c20 0 38.5 -2.33301 55.5 -7s31.5 -11.667 43.5 -21
s21.333 -21.166 28 -35.499s10 -31.166 10 -50.499c0 -20 -3.5 -38 -10.5 -54s-16.667 -29.5 -29 -40.5s-26.833 -19.333 -43.5 -25s-34.667 -8.5 -54 -8.5z" />
    <glyph glyph-name="Eth" unicode="&#xd0;" horiz-adv-x="2000" 
d="M328 690h-197.004v128h197v449c0 13.333 -3.5 23.333 -10.5 30s-15.167 11.667 -24.5 15l-162 58v81h681c48.667 0 100.334 -4.5 155.001 -13.5s109.167 -24.5 163.5 -46.5s106.333 -51 156 -87s93.334 -81.167 131.001 -135.5s67.834 -118.5 90.501 -192.5
s34 -159.667 34 -257c0 -124 -19.167 -231.167 -57.5 -321.5s-90.666 -165 -156.999 -224s-144 -102.667 -233 -131s-184.5 -42.5 -286.5 -42.5h-677v83l162 56c9.33301 3.33301 17.5 8.5 24.5 15.5s10.5 17.833 10.5 32.5v503zM546.996 818l336.999 -0.000976562v-128h-337
v-556h263c84.667 0 157.834 12.333 219.501 37s112.5 60.667 152.5 108s69.5 105.5 88.5 174.5s28.5 147.5 28.5 235.5c0 96.667 -13 183.834 -39 261.501s-63 143.667 -111 198s-106 96 -174 125s-144 43.5 -228 43.5h-200v-499z" />
    <glyph glyph-name="Ntilde" unicode="&#xd1;" horiz-adv-x="2151" 
d="M131 83l162 63.999c10 4 18.333 9 25 15s10 16.333 10 31v1074c0 13.333 -3.5 23.333 -10.5 30s-15.167 11.667 -24.5 15l-167 58v81h433l704 -1001l72 -126h21v938c0 13.333 -3.83301 22.833 -11.5 28.5s-16.167 10.5 -25.5 14.5l-160 65v81h542v-81l-161 -65
c-8 -3.33301 -16 -8 -24 -14s-12 -15.667 -12 -29v-1042l-31 -230h-138l-766 1085l-69 125h-21v-1007c0 -14.667 3.83301 -25.167 11.5 -31.5s15.5 -11.166 23.5 -14.499l159 -64v-83h-542v83zM568 1624c4.66699 36.667 14.1689 71.332 28.502 103.999
s32.333 61.334 54 86.001s46.167 44.334 73.5 59.001s56.666 22 87.999 22c20.667 0 44.667 -4.16699 72 -12.5s56 -20.833 86 -37.5c34 -18 61.333 -30.667 82 -38s37 -11 49 -11c14.667 0 27.667 3 39 9s21 14.167 29 24.5s14.667 22.333 20 36s9.66602 28.5 12.999 44.5
h99c-4 -36 -12.833 -70.333 -26.5 -103s-31 -61.334 -52 -86.001s-45.167 -44.334 -72.5 -59.001s-56.666 -22 -87.999 -22c-10.667 0 -21.334 0.666992 -32.001 2s-22 4 -34 8s-25.333 9.33301 -40 16s-31 15.334 -49 26.001c-32 18 -59.167 30.833 -81.5 38.5
s-39.833 11.5 -52.5 11.5c-29.333 0 -53 -11.667 -71 -35s-30 -51 -36 -83h-98z" />
    <glyph glyph-name="Ograve" unicode="&#xd2;" horiz-adv-x="1996" 
d="M827 -33c-114 0 -215 17.335 -303 52.002s-162.167 84.834 -222.5 150.501s-106 145.5 -137 239.5s-46.5 200.333 -46.5 319c0 111.333 16.167 213.333 48.5 306s79 172.5 140 239.5s135.5 119 223.5 156s187.667 55.5 299 55.5c120.667 0 225.5 -19 314.5 -57
s162.667 -90.667 221 -158s101.666 -147.333 129.999 -240s42.5 -193.334 42.5 -302.001c0 -64.667 -6 -128.5 -18 -191.5s-30.333 -122.667 -55 -179s-56.167 -108.333 -94.5 -156s-83.833 -88.834 -136.5 -123.501s-112.667 -61.834 -180 -81.501
s-142.666 -29.5 -225.999 -29.5zM845 98.002c74.667 0 140.167 14.333 196.5 43s103.333 69 141 121s66 114.5 85 187.5s28.5 154.167 28.5 243.5c0 102 -10 193.833 -30 275.5s-50.167 151 -90.5 208s-91 100.667 -152 131s-132.833 45.5 -215.5 45.5
c-79.333 0 -147.333 -15.333 -204 -46s-103.167 -72.667 -139.5 -126s-63 -115.833 -80 -187.5s-25.5 -148.167 -25.5 -229.5c0 -101.333 9.83301 -193 29.5 -275s49.5 -152 89.5 -210s90.5 -102.667 151.5 -134s132.833 -47 215.5 -47zM973 1573l-119.001 84.5029l-87.5 62
l-64.5 47l-51 40.5c-14 10.667 -25.833 20.5 -35.5 29.5s-17.834 18.167 -24.501 27.5s-11.5 19.333 -14.5 30s-4.5 22.667 -4.5 36c0 11.333 2.33301 22.333 7 33s11.334 20 20.001 28s18.834 14.5 30.501 19.5s24.5 7.5 38.5 7.5s27 -1.33301 39 -4
s23.667 -7.33398 35 -14.001s22.833 -15.834 34.5 -27.501s24.167 -26.834 37.5 -45.501l39.5 -56l46 -65.5l58 -82l75.5 -105.5z" />
    <glyph glyph-name="Oacute" unicode="&#xd3;" horiz-adv-x="1996" 
d="M827 -33c-114 0 -215 17.335 -303 52.002s-162.167 84.834 -222.5 150.501s-106 145.5 -137 239.5s-46.5 200.333 -46.5 319c0 111.333 16.167 213.333 48.5 306s79 172.5 140 239.5s135.5 119 223.5 156s187.667 55.5 299 55.5c120.667 0 225.5 -19 314.5 -57
s162.667 -90.667 221 -158s101.666 -147.333 129.999 -240s42.5 -193.334 42.5 -302.001c0 -64.667 -6 -128.5 -18 -191.5s-30.333 -122.667 -55 -179s-56.167 -108.333 -94.5 -156s-83.833 -88.834 -136.5 -123.501s-112.667 -61.834 -180 -81.501
s-142.666 -29.5 -225.999 -29.5zM845 98.002c74.667 0 140.167 14.333 196.5 43s103.333 69 141 121s66 114.5 85 187.5s28.5 154.167 28.5 243.5c0 102 -10 193.833 -30 275.5s-50.167 151 -90.5 208s-91 100.667 -152 131s-132.833 45.5 -215.5 45.5
c-79.333 0 -147.333 -15.333 -204 -46s-103.167 -72.667 -139.5 -126s-63 -115.833 -80 -187.5s-25.5 -148.167 -25.5 -229.5c0 -101.333 9.83301 -193 29.5 -275s49.5 -152 89.5 -210s90.5 -102.667 151.5 -134s132.833 -47 215.5 -47zM621 1618l75.499 105.497l58 82
l46 65.5l39.5 56c13.333 18.667 25.833 33.834 37.5 45.501s23.167 20.834 34.5 27.501s23 11.334 35 14.001s25 4 39 4s26.833 -2.5 38.5 -7.5s21.834 -11.5 30.501 -19.5s15.334 -17.333 20.001 -28s7 -21.667 7 -33c0 -13.333 -1.5 -25.333 -4.5 -36
s-7.83301 -20.667 -14.5 -30s-14.834 -18.5 -24.501 -27.5s-21.5 -18.833 -35.5 -29.5l-51 -40.5l-64.5 -47l-87.5 -62l-119 -84.5z" />
    <glyph glyph-name="Ocircumflex" unicode="&#xd4;" horiz-adv-x="1996" 
d="M827 -33c-114 0 -215 17.335 -303 52.002s-162.167 84.834 -222.5 150.501s-106 145.5 -137 239.5s-46.5 200.333 -46.5 319c0 111.333 16.167 213.333 48.5 306s79 172.5 140 239.5s135.5 119 223.5 156s187.667 55.5 299 55.5c120.667 0 225.5 -19 314.5 -57
s162.667 -90.667 221 -158s101.666 -147.333 129.999 -240s42.5 -193.334 42.5 -302.001c0 -64.667 -6 -128.5 -18 -191.5s-30.333 -122.667 -55 -179s-56.167 -108.333 -94.5 -156s-83.833 -88.834 -136.5 -123.501s-112.667 -61.834 -180 -81.501
s-142.666 -29.5 -225.999 -29.5zM845 98.002c74.667 0 140.167 14.333 196.5 43s103.333 69 141 121s66 114.5 85 187.5s28.5 154.167 28.5 243.5c0 102 -10 193.833 -30 275.5s-50.167 151 -90.5 208s-91 100.667 -152 131s-132.833 45.5 -215.5 45.5
c-79.333 0 -147.333 -15.333 -204 -46s-103.167 -72.667 -139.5 -126s-63 -115.833 -80 -187.5s-25.5 -148.167 -25.5 -229.5c0 -101.333 9.83301 -193 29.5 -275s49.5 -152 89.5 -210s90.5 -102.667 151.5 -134s132.833 -47 215.5 -47zM698 1925
c18.667 26.667 37.501 48.5 56.501 65.5s43.167 25.5 72.5 25.5s53.666 -8.5 72.999 -25.5s38.333 -38.5 57 -64.5l218 -308l-60 -45l-287 250l-288 -250l-60 45z" />
    <glyph glyph-name="Otilde" unicode="&#xd5;" horiz-adv-x="1996" 
d="M827 -33c-114 0 -215 17.335 -303 52.002s-162.167 84.834 -222.5 150.501s-106 145.5 -137 239.5s-46.5 200.333 -46.5 319c0 111.333 16.167 213.333 48.5 306s79 172.5 140 239.5s135.5 119 223.5 156s187.667 55.5 299 55.5c120.667 0 225.5 -19 314.5 -57
s162.667 -90.667 221 -158s101.666 -147.333 129.999 -240s42.5 -193.334 42.5 -302.001c0 -64.667 -6 -128.5 -18 -191.5s-30.333 -122.667 -55 -179s-56.167 -108.333 -94.5 -156s-83.833 -88.834 -136.5 -123.501s-112.667 -61.834 -180 -81.501
s-142.666 -29.5 -225.999 -29.5zM845 98.002c74.667 0 140.167 14.333 196.5 43s103.333 69 141 121s66 114.5 85 187.5s28.5 154.167 28.5 243.5c0 102 -10 193.833 -30 275.5s-50.167 151 -90.5 208s-91 100.667 -152 131s-132.833 45.5 -215.5 45.5
c-79.333 0 -147.333 -15.333 -204 -46s-103.167 -72.667 -139.5 -126s-63 -115.833 -80 -187.5s-25.5 -148.167 -25.5 -229.5c0 -101.333 9.83301 -193 29.5 -275s49.5 -152 89.5 -210s90.5 -102.667 151.5 -134s132.833 -47 215.5 -47zM461 1624
c4.66699 36.667 14.1689 71.332 28.502 103.999s32.333 61.334 54 86.001s46.167 44.334 73.5 59.001s56.666 22 87.999 22c20.667 0 44.667 -4.16699 72 -12.5s56 -20.833 86 -37.5c34 -18 61.333 -30.667 82 -38s37 -11 49 -11c14.667 0 27.667 3 39 9s21 14.167 29 24.5
s14.667 22.333 20 36s9.66602 28.5 12.999 44.5h99c-4 -36 -12.833 -70.333 -26.5 -103s-31 -61.334 -52 -86.001s-45.167 -44.334 -72.5 -59.001s-56.666 -22 -87.999 -22c-10.667 0 -21.334 0.666992 -32.001 2s-22 4 -34 8s-25.333 9.33301 -40 16s-31 15.334 -49 26.001
c-32 18 -59.167 30.833 -81.5 38.5s-39.833 11.5 -52.5 11.5c-29.333 0 -53 -11.667 -71 -35s-30 -51 -36 -83h-98z" />
    <glyph glyph-name="Odieresis" unicode="&#xd6;" horiz-adv-x="1996" 
d="M827 -33c-114 0 -215 17.335 -303 52.002s-162.167 84.834 -222.5 150.501s-106 145.5 -137 239.5s-46.5 200.333 -46.5 319c0 111.333 16.167 213.333 48.5 306s79 172.5 140 239.5s135.5 119 223.5 156s187.667 55.5 299 55.5c120.667 0 225.5 -19 314.5 -57
s162.667 -90.667 221 -158s101.666 -147.333 129.999 -240s42.5 -193.334 42.5 -302.001c0 -64.667 -6 -128.5 -18 -191.5s-30.333 -122.667 -55 -179s-56.167 -108.333 -94.5 -156s-83.833 -88.834 -136.5 -123.501s-112.667 -61.834 -180 -81.501
s-142.666 -29.5 -225.999 -29.5zM845 98.002c74.667 0 140.167 14.333 196.5 43s103.333 69 141 121s66 114.5 85 187.5s28.5 154.167 28.5 243.5c0 102 -10 193.833 -30 275.5s-50.167 151 -90.5 208s-91 100.667 -152 131s-132.833 45.5 -215.5 45.5
c-79.333 0 -147.333 -15.333 -204 -46s-103.167 -72.667 -139.5 -126s-63 -115.833 -80 -187.5s-25.5 -148.167 -25.5 -229.5c0 -101.333 9.83301 -193 29.5 -275s49.5 -152 89.5 -210s90.5 -102.667 151.5 -134s132.833 -47 215.5 -47zM1055 1637
c-17.333 0 -33.833 2.66602 -49.5 7.99902s-29.5 13 -41.5 23s-21.667 22.333 -29 37s-11 31.334 -11 50.001c0 20.667 3.66699 38.667 11 54s17 28.166 29 38.499s25.833 18.166 41.5 23.499s32.167 8 49.5 8c20 0 38.5 -2.33301 55.5 -7s31.5 -11.667 43.5 -21
s21.333 -21.166 28 -35.499s10 -31.166 10 -50.499c0 -20 -3.5 -38 -10.5 -54s-16.667 -29.5 -29 -40.5s-26.833 -19.333 -43.5 -25s-34.667 -8.5 -54 -8.5zM593 1637c-17.333 0 -33.833 2.66602 -49.5 7.99902s-29.5 13 -41.5 23s-21.667 22.333 -29 37
s-11 31.334 -11 50.001c0 20.667 3.66699 38.667 11 54s17 28.166 29 38.499s25.833 18.166 41.5 23.499s32.167 8 49.5 8c20 0 38.5 -2.33301 55.5 -7s31.5 -11.667 43.5 -21s21.333 -21.166 28 -35.499s10 -31.166 10 -50.499c0 -20 -3.5 -38 -10.5 -54
s-16.667 -29.5 -29 -40.5s-26.833 -19.333 -43.5 -25s-34.667 -8.5 -54 -8.5z" />
    <glyph glyph-name="multiply" unicode="&#xd7;" horiz-adv-x="1896" 
d="M268 227l403 400l-403 400l109 110l401 -403l399 402l109 -109l-403 -400l402 -400l-109 -109l-399 402l-400 -403z" />
    <glyph glyph-name="Oslash" unicode="&#xd8;" horiz-adv-x="1996" 
d="M383 103c-86 64.667 -151.668 149.67 -197.001 255.003s-68 228.666 -68 369.999c0 111.333 16.167 213.333 48.5 306s79 172.5 140 239.5s135.5 119 223.5 156s187.667 55.5 299 55.5c72 0 137.833 -7.16699 197.5 -21.5s114.5 -34.833 164.5 -61.5l82 132h114
l-115 -185c44 -33.333 82.5 -72 115.5 -116s60.667 -92.5 83 -145.5s39 -109.667 50 -170s16.5 -123.5 16.5 -189.5c0 -64.667 -6 -128.5 -18 -191.5s-30.333 -122.667 -55 -179s-56.167 -108.333 -94.5 -156s-83.833 -88.834 -136.5 -123.501
s-112.667 -61.834 -180 -81.501s-142.666 -29.5 -225.999 -29.5c-70.667 0 -136 6.83301 -196 20.5s-115.333 34.5 -166 62.5l-103 -164h-114zM1103 1261c-38 30 -81.168 52.834 -129.501 68.501s-103.5 23.5 -165.5 23.5c-52.667 0 -100.5 -7 -143.5 -21
s-81.333 -33.833 -115 -59.5s-62.667 -56.334 -87 -92.001s-44.666 -75.334 -60.999 -119.001s-28.333 -90.667 -36 -141s-11.5 -102.5 -11.5 -156.5c0 -107.333 10.333 -204.166 31 -290.499s53 -158.833 97 -217.5zM551.998 191.004c38 -30 80.834 -53 128.501 -69
s102.5 -24 164.5 -24c74.667 0 140.5 14.333 197.5 43s104.667 69 143 121s67.166 114.5 86.499 187.5s29 154.167 29 243.5c0 108 -10.333 204.167 -31 288.5s-53 155.833 -97 214.5z" />
    <glyph glyph-name="Ugrave" unicode="&#xd9;" horiz-adv-x="2072" 
d="M299 1267c0 13.333 -3.50098 23.166 -10.501 29.499s-16.167 11.5 -27.5 15.5l-159 58v81h613v-81l-161 -58c-9.33301 -3.33301 -17.5 -8.33301 -24.5 -15s-10.5 -16.667 -10.5 -30v-758c0 -24.667 1.83301 -51.5 5.5 -80.5s10.334 -57.667 20.001 -86
s23.167 -55.666 40.5 -81.999s39.666 -49.666 66.999 -69.999s60.333 -36.5 99 -48.5s84.334 -18 137.001 -18c52 0 97.833 6.16699 137.5 18.5s74.167 28.666 103.5 48.999s53.833 43.833 73.5 70.5s35.334 54.167 47.001 82.5s20 56.5 25 84.5s7.5 53.667 7.5 77v756
c0 13.333 -3.5 23 -10.5 29s-15.167 10.667 -24.5 14l-160 65v81h541v-81l-161 -65c-9.33301 -4 -17.5 -8.83301 -24.5 -14.5s-10.5 -15.167 -10.5 -28.5v-825c0 -56.667 -8.83301 -107.667 -26.5 -153s-41.334 -85.5 -71.001 -120.5s-63.834 -65 -102.501 -90
s-79 -45.5 -121 -61.5s-84.167 -27.833 -126.5 -35.5s-82.166 -11.5 -119.499 -11.5c-94 0 -176.333 12 -247 36s-129.667 56 -177 96s-82.833 85.667 -106.5 137s-35.5 104.333 -35.5 159v874zM1001 1573l-119.001 84.5029l-87.5 62l-64.5 47l-51 40.5
c-14 10.667 -25.833 20.5 -35.5 29.5s-17.834 18.167 -24.501 27.5s-11.5 19.333 -14.5 30s-4.5 22.667 -4.5 36c0 11.333 2.33301 22.333 7 33s11.334 20 20.001 28s18.834 14.5 30.501 19.5s24.5 7.5 38.5 7.5s27 -1.33301 39 -4s23.667 -7.33398 35 -14.001
s22.833 -15.834 34.5 -27.501s24.167 -26.834 37.5 -45.501l39.5 -56l46 -65.5l58 -82l75.5 -105.5z" />
    <glyph glyph-name="Uacute" unicode="&#xda;" horiz-adv-x="2072" 
d="M299 1267c0 13.333 -3.50098 23.166 -10.501 29.499s-16.167 11.5 -27.5 15.5l-159 58v81h613v-81l-161 -58c-9.33301 -3.33301 -17.5 -8.33301 -24.5 -15s-10.5 -16.667 -10.5 -30v-758c0 -24.667 1.83301 -51.5 5.5 -80.5s10.334 -57.667 20.001 -86
s23.167 -55.666 40.5 -81.999s39.666 -49.666 66.999 -69.999s60.333 -36.5 99 -48.5s84.334 -18 137.001 -18c52 0 97.833 6.16699 137.5 18.5s74.167 28.666 103.5 48.999s53.833 43.833 73.5 70.5s35.334 54.167 47.001 82.5s20 56.5 25 84.5s7.5 53.667 7.5 77v756
c0 13.333 -3.5 23 -10.5 29s-15.167 10.667 -24.5 14l-160 65v81h541v-81l-161 -65c-9.33301 -4 -17.5 -8.83301 -24.5 -14.5s-10.5 -15.167 -10.5 -28.5v-825c0 -56.667 -8.83301 -107.667 -26.5 -153s-41.334 -85.5 -71.001 -120.5s-63.834 -65 -102.501 -90
s-79 -45.5 -121 -61.5s-84.167 -27.833 -126.5 -35.5s-82.166 -11.5 -119.499 -11.5c-94 0 -176.333 12 -247 36s-129.667 56 -177 96s-82.833 85.667 -106.5 137s-35.5 104.333 -35.5 159v874zM668.999 1618l75.499 105.497l58 82l46 65.5l39.5 56
c13.333 18.667 25.833 33.834 37.5 45.501s23.167 20.834 34.5 27.501s23 11.334 35 14.001s25 4 39 4s26.833 -2.5 38.5 -7.5s21.834 -11.5 30.501 -19.5s15.334 -17.333 20.001 -28s7 -21.667 7 -33c0 -13.333 -1.5 -25.333 -4.5 -36s-7.83301 -20.667 -14.5 -30
s-14.834 -18.5 -24.501 -27.5s-21.5 -18.833 -35.5 -29.5l-51 -40.5l-64.5 -47l-87.5 -62l-119 -84.5z" />
    <glyph glyph-name="Ucircumflex" unicode="&#xdb;" horiz-adv-x="2072" 
d="M299 1267c0 13.333 -3.50098 23.166 -10.501 29.499s-16.167 11.5 -27.5 15.5l-159 58v81h613v-81l-161 -58c-9.33301 -3.33301 -17.5 -8.33301 -24.5 -15s-10.5 -16.667 -10.5 -30v-758c0 -24.667 1.83301 -51.5 5.5 -80.5s10.334 -57.667 20.001 -86
s23.167 -55.666 40.5 -81.999s39.666 -49.666 66.999 -69.999s60.333 -36.5 99 -48.5s84.334 -18 137.001 -18c52 0 97.833 6.16699 137.5 18.5s74.167 28.666 103.5 48.999s53.833 43.833 73.5 70.5s35.334 54.167 47.001 82.5s20 56.5 25 84.5s7.5 53.667 7.5 77v756
c0 13.333 -3.5 23 -10.5 29s-15.167 10.667 -24.5 14l-160 65v81h541v-81l-161 -65c-9.33301 -4 -17.5 -8.83301 -24.5 -14.5s-10.5 -15.167 -10.5 -28.5v-825c0 -56.667 -8.83301 -107.667 -26.5 -153s-41.334 -85.5 -71.001 -120.5s-63.834 -65 -102.501 -90
s-79 -45.5 -121 -61.5s-84.167 -27.833 -126.5 -35.5s-82.166 -11.5 -119.499 -11.5c-94 0 -176.333 12 -247 36s-129.667 56 -177 96s-82.833 85.667 -106.5 137s-35.5 104.333 -35.5 159v874zM735.999 1925c18.667 26.667 37.501 48.5 56.501 65.5s43.167 25.5 72.5 25.5
s53.666 -8.5 72.999 -25.5s38.333 -38.5 57 -64.5l218 -308l-60 -45l-287 250l-288 -250l-60 45z" />
    <glyph glyph-name="Udieresis" unicode="&#xdc;" horiz-adv-x="2072" 
d="M299 1267c0 13.333 -3.50098 23.166 -10.501 29.499s-16.167 11.5 -27.5 15.5l-159 58v81h613v-81l-161 -58c-9.33301 -3.33301 -17.5 -8.33301 -24.5 -15s-10.5 -16.667 -10.5 -30v-758c0 -24.667 1.83301 -51.5 5.5 -80.5s10.334 -57.667 20.001 -86
s23.167 -55.666 40.5 -81.999s39.666 -49.666 66.999 -69.999s60.333 -36.5 99 -48.5s84.334 -18 137.001 -18c52 0 97.833 6.16699 137.5 18.5s74.167 28.666 103.5 48.999s53.833 43.833 73.5 70.5s35.334 54.167 47.001 82.5s20 56.5 25 84.5s7.5 53.667 7.5 77v756
c0 13.333 -3.5 23 -10.5 29s-15.167 10.667 -24.5 14l-160 65v81h541v-81l-161 -65c-9.33301 -4 -17.5 -8.83301 -24.5 -14.5s-10.5 -15.167 -10.5 -28.5v-825c0 -56.667 -8.83301 -107.667 -26.5 -153s-41.334 -85.5 -71.001 -120.5s-63.834 -65 -102.501 -90
s-79 -45.5 -121 -61.5s-84.167 -27.833 -126.5 -35.5s-82.166 -11.5 -119.499 -11.5c-94 0 -176.333 12 -247 36s-129.667 56 -177 96s-82.833 85.667 -106.5 137s-35.5 104.333 -35.5 159v874zM1093 1637c-17.333 0 -33.833 2.66602 -49.5 7.99902s-29.5 13 -41.5 23
s-21.667 22.333 -29 37s-11 31.334 -11 50.001c0 20.667 3.66699 38.667 11 54s17 28.166 29 38.499s25.833 18.166 41.5 23.499s32.167 8 49.5 8c20 0 38.5 -2.33301 55.5 -7s31.5 -11.667 43.5 -21s21.333 -21.166 28 -35.499s10 -31.166 10 -50.499
c0 -20 -3.5 -38 -10.5 -54s-16.667 -29.5 -29 -40.5s-26.833 -19.333 -43.5 -25s-34.667 -8.5 -54 -8.5zM630.999 1637c-17.333 0 -33.833 2.66602 -49.5 7.99902s-29.5 13 -41.5 23s-21.667 22.333 -29 37s-11 31.334 -11 50.001c0 20.667 3.66699 38.667 11 54
s17 28.166 29 38.499s25.833 18.166 41.5 23.499s32.167 8 49.5 8c20 0 38.5 -2.33301 55.5 -7s31.5 -11.667 43.5 -21s21.333 -21.166 28 -35.499s10 -31.166 10 -50.499c0 -20 -3.5 -38 -10.5 -54s-16.667 -29.5 -29 -40.5s-26.833 -19.333 -43.5 -25
s-34.667 -8.5 -54 -8.5z" />
    <glyph glyph-name="Yacute" unicode="&#xdd;" horiz-adv-x="1799" 
d="M411 83l169.001 56c11.333 3.33301 20.333 8.5 27 15.5s10 17.833 10 32.5v345l-415 738c-5.33301 9.33301 -11.833 18.833 -19.5 28.5s-16.834 16.834 -27.501 21.501l-116 50v81h541v-81l-162 -67l285 -487l52 -123h21l335 604l-163 73v81h470v-81l-113 -54
c-9.33301 -4.66699 -18.333 -11.834 -27 -21.501s-15.667 -19.167 -21 -28.5l-420 -729v-350c0 -14.667 3.16699 -25.5 9.5 -32.5s14.5 -12.167 24.5 -15.5l171 -56v-83h-631v83zM548.001 1618l75.499 105.497l58 82l46 65.5l39.5 56
c13.333 18.667 25.833 33.834 37.5 45.501s23.167 20.834 34.5 27.501s23 11.334 35 14.001s25 4 39 4s26.833 -2.5 38.5 -7.5s21.834 -11.5 30.501 -19.5s15.334 -17.333 20.001 -28s7 -21.667 7 -33c0 -13.333 -1.5 -25.333 -4.5 -36s-7.83301 -20.667 -14.5 -30
s-14.834 -18.5 -24.501 -27.5s-21.5 -18.833 -35.5 -29.5l-51 -40.5l-64.5 -47l-87.5 -62l-119 -84.5z" />
    <glyph glyph-name="Thorn" unicode="&#xde;" horiz-adv-x="1714" 
d="M131 83l162 56.002c9.33301 3.33301 17.5 8.5 24.5 15.5s10.5 17.833 10.5 32.5v1080c0 13.333 -3.33301 23.333 -10 30s-15 11.667 -25 15l-162 58v81h613v-83l-164 -56c-9.33301 -3.33301 -17.5 -8.5 -24.5 -15.5s-10.5 -17.833 -10.5 -32.5v-91h186
c75.333 0 145.833 -7.5 211.5 -22.5s123 -38.5 172 -70.5s87.5 -73.167 115.5 -123.5s42 -110.5 42 -180.5c0 -74 -12.167 -140.5 -36.5 -199.5s-58.333 -109.167 -102 -150.5s-95.667 -73 -156 -95s-126.5 -33 -198.5 -33c-16.667 0 -35.334 1.83301 -56.001 5.5
s-41.5 8.66699 -62.5 15s-41.667 13.666 -62 21.999s-38.166 17.166 -53.499 26.499v-180c0 -14.667 3.66699 -25.5 11 -32.5s16 -12.167 26 -15.5l171 -56v-83h-622v83zM547 459.002c12 -3.33301 26.1641 -6.16895 42.4971 -8.50195s33.5 -4.16602 51.5 -5.49902
s36.333 -2.33301 55 -3s36 -1 52 -1c42.667 0 79.334 5.33301 110.001 16s56.667 24.5 78 41.5s38.5 36.167 51.5 57.5s23 42.666 30 63.999s11.667 41.5 14 60.5s3.5 34.833 3.5 47.5c0 40.667 -5.16699 79.834 -15.5 117.501s-28.666 70.834 -54.999 99.501
s-62.166 51.5 -107.499 68.5s-103 25.5 -173 25.5h-137v-580z" />
    <glyph glyph-name="germandbls" unicode="&#xdf;" horiz-adv-x="1841" 
d="M89 82l124 43.9971c12.667 4.66699 22.334 10.167 29.001 16.5s10 16.166 10 29.499v854c0 64 7.83301 122.167 23.5 174.5s37.334 98.833 65.001 139.5s60.334 75.834 98.001 105.501s78.167 54 121.5 73s88.5 33.167 135.5 42.5s94.167 14 141.5 14
c49.333 0 97.833 -8.16699 145.5 -24.5s90.167 -38.5 127.5 -66.5s67.333 -60.667 90 -98s34 -77 34 -119c0 -44.667 -2.66699 -81.667 -8 -111s-10.666 -55 -15.999 -77c-11.333 -5.33301 -24.333 -11 -39 -17l-46 -19.5c-16 -7 -31.833 -14.333 -47.5 -22
s-29.834 -15.5 -42.501 -23.5c-34 -21.333 -62.667 -43.333 -86 -66s-35 -47.334 -35 -74.001c0 -20 3.5 -37.333 10.5 -52s16.167 -27.834 27.5 -39.501s24.666 -22.5 39.999 -32.5l47 -31c19.333 -12.667 46.333 -28.5 81 -47.5l109 -61.5c30 -17.333 56 -35 78 -53
s40.167 -37.333 54.5 -58s25.166 -43.167 32.499 -67.5s11 -51.5 11 -81.5c0 -54 -12.5 -103 -37.5 -147s-57.5 -81.667 -97.5 -113s-85.333 -55.5 -136 -72.5s-101.667 -25.5 -153 -25.5c-33.333 0 -64.833 2.16699 -94.5 6.5s-58.167 10 -85.5 17s-53.333 14.833 -78 23.5
l-71 26v252h134l24 -90c3.33301 -13.333 7.33301 -24.166 12 -32.499s10 -14.833 16 -19.5c10.667 -8 22.167 -15 34.5 -21s25.333 -11.167 39 -15.5s27.667 -7.66602 42 -9.99902s28.5 -3.5 42.5 -3.5c22 0 45 3.16699 69 9.5s46.167 16.166 66.5 29.499
s37.166 29.833 50.499 49.5s20 43.167 20 70.5c0 26.667 -2.83301 49 -8.5 67s-15 34.167 -28 48.5s-30.333 28.5 -52 42.5s-48.167 30 -79.5 48c-30 17.333 -61.333 33.5 -94 48.5s-61.667 29.833 -87 44.5c-17.333 10 -34.833 21.833 -52.5 35.5s-33.667 29.5 -48 47.5
s-26.166 38.333 -35.499 61s-14 47.667 -14 75c0 34.667 6.33301 66.167 19 94.5s28.667 53.5 48 75.5s40.166 41.333 62.499 58s43.166 31 62.499 43l40 23.5c14 8.33301 27.5 16.833 40.5 25.5s25.333 17.834 37 27.501s21.5 19.834 29.5 30.501
c0 52.667 -8.83301 95.834 -26.5 129.501s-41.667 59.834 -72 78.501s-65.666 31.5 -105.999 38.5s-82.833 10.5 -127.5 10.5c-18 0 -36 -2 -54 -6s-34.833 -8.83301 -50.5 -14.5s-29 -11.667 -40 -18s-18.5 -11.833 -22.5 -16.5
c-9.33301 -11.333 -18.833 -28.666 -28.5 -51.999s-18.5 -52 -26.5 -86s-14.5 -72.833 -19.5 -116.5s-7.5 -90.834 -7.5 -141.501v-969h-372v82z" />
    <glyph glyph-name="agrave" unicode="&#xe0;" horiz-adv-x="1631" 
d="M845 167c-29.333 -40.667 -61.165 -73.334 -95.498 -98.001s-68.833 -43.667 -103.5 -57s-68.5 -22.166 -101.5 -26.499s-62.833 -6.5 -89.5 -6.5c-52 0 -98.167 8.83301 -138.5 26.5s-74.333 41 -102 70s-48.834 62.333 -63.501 100s-22 76.834 -22 117.501
c0 47.333 8.33301 89.5 25 126.5s38.834 69.5 66.501 97.5s59.667 51.833 96 71.5s74.333 35.667 114 48s79.667 21.333 120 27s78.166 8.5 113.499 8.5c7.33301 0 19.333 -0.666992 36 -2s34.167 -3 52.5 -5s35.5 -4 51.5 -6s27.667 -3.33301 35 -4v138
c0 39.333 -5.5 72.333 -16.5 99s-26.167 48.167 -45.5 64.5s-42.333 28 -69 35s-55.667 10.5 -87 10.5c-34 0 -68.667 -6.16699 -104 -18.5s-69.166 -27 -101.499 -44s-62.333 -34.833 -90 -53.5l-69.5 -46h-45v207l95 32c31.333 10.667 64.5 20.334 99.5 29.001
s72.333 15.667 112 21s84.167 8 133.5 8c50.667 0 100 -4.83301 148 -14.5s90.5 -27.5 127.5 -53.5s66.667 -62 89 -108s33.5 -105.333 33.5 -178v-565c0 -13.333 3 -25.5 9 -36.5s13.667 -20.5 23 -28.5s20 -14.167 32 -18.5s23.667 -6.5 35 -6.5c8 0 16 1 24 3
s16.333 4.66699 25 8s17.167 7.16602 25.5 11.499l24.5 12.5h18v-95c-10 -7.33301 -23.333 -16 -40 -26s-34.834 -19.667 -54.501 -29s-39.334 -17.333 -59.001 -24s-37.5 -10 -53.5 -10c-32.667 0 -61.334 4 -86.001 12s-45.167 19.833 -61.5 35.5
s-28.666 35.167 -36.999 58.5s-12.5 50.666 -12.5 81.999h-16zM839.001 550c-72.667 0 -138.999 -2.66992 -198.999 -8.00293s-111.333 -15.833 -154 -31.5s-75.834 -38 -99.501 -67s-35.5 -67.5 -35.5 -115.5c0 -38 6.33301 -69.667 19 -95s28.667 -45.333 48 -60
s41 -25 65 -31s47.333 -9 70 -9s47.5 2.33301 74.5 7s53.667 11.834 80 21.501s51 21.834 74 36.501s42.167 32.334 57.5 53.001v299zM774.002 1225l-119.001 84.5029l-87.5 62l-64.5 47l-51 40.5c-14 10.667 -25.833 20.5 -35.5 29.5s-17.834 18.167 -24.501 27.5
s-11.5 19.333 -14.5 30s-4.5 22.667 -4.5 36c0 11.333 2.33301 22.333 7 33s11.334 20 20.001 28s18.834 14.5 30.501 19.5s24.5 7.5 38.5 7.5s27 -1.33301 39 -4s23.667 -7.33398 35 -14.001s22.833 -15.834 34.5 -27.501s24.167 -26.834 37.5 -45.501l39.5 -56l46 -65.5
l58 -82l75.5 -105.5z" />
    <glyph glyph-name="aacute" unicode="&#xe1;" horiz-adv-x="1631" 
d="M845 167c-29.333 -40.667 -61.165 -73.334 -95.498 -98.001s-68.833 -43.667 -103.5 -57s-68.5 -22.166 -101.5 -26.499s-62.833 -6.5 -89.5 -6.5c-52 0 -98.167 8.83301 -138.5 26.5s-74.333 41 -102 70s-48.834 62.333 -63.501 100s-22 76.834 -22 117.501
c0 47.333 8.33301 89.5 25 126.5s38.834 69.5 66.501 97.5s59.667 51.833 96 71.5s74.333 35.667 114 48s79.667 21.333 120 27s78.166 8.5 113.499 8.5c7.33301 0 19.333 -0.666992 36 -2s34.167 -3 52.5 -5s35.5 -4 51.5 -6s27.667 -3.33301 35 -4v138
c0 39.333 -5.5 72.333 -16.5 99s-26.167 48.167 -45.5 64.5s-42.333 28 -69 35s-55.667 10.5 -87 10.5c-34 0 -68.667 -6.16699 -104 -18.5s-69.166 -27 -101.499 -44s-62.333 -34.833 -90 -53.5l-69.5 -46h-45v207l95 32c31.333 10.667 64.5 20.334 99.5 29.001
s72.333 15.667 112 21s84.167 8 133.5 8c50.667 0 100 -4.83301 148 -14.5s90.5 -27.5 127.5 -53.5s66.667 -62 89 -108s33.5 -105.333 33.5 -178v-565c0 -13.333 3 -25.5 9 -36.5s13.667 -20.5 23 -28.5s20 -14.167 32 -18.5s23.667 -6.5 35 -6.5c8 0 16 1 24 3
s16.333 4.66699 25 8s17.167 7.16602 25.5 11.499l24.5 12.5h18v-95c-10 -7.33301 -23.333 -16 -40 -26s-34.834 -19.667 -54.501 -29s-39.334 -17.333 -59.001 -24s-37.5 -10 -53.5 -10c-32.667 0 -61.334 4 -86.001 12s-45.167 19.833 -61.5 35.5
s-28.666 35.167 -36.999 58.5s-12.5 50.666 -12.5 81.999h-16zM839.001 550c-72.667 0 -138.999 -2.66992 -198.999 -8.00293s-111.333 -15.833 -154 -31.5s-75.834 -38 -99.501 -67s-35.5 -67.5 -35.5 -115.5c0 -38 6.33301 -69.667 19 -95s28.667 -45.333 48 -60
s41 -25 65 -31s47.333 -9 70 -9s47.5 2.33301 74.5 7s53.667 11.834 80 21.501s51 21.834 74 36.501s42.167 32.334 57.5 53.001v299zM439.002 1270l75.499 105.497l58 82l46 65.5l39.5 56c13.333 18.667 25.833 33.834 37.5 45.501s23.167 20.834 34.5 27.501
s23 11.334 35 14.001s25 4 39 4s26.833 -2.5 38.5 -7.5s21.834 -11.5 30.501 -19.5s15.334 -17.333 20.001 -28s7 -21.667 7 -33c0 -13.333 -1.5 -25.333 -4.5 -36s-7.83301 -20.667 -14.5 -30s-14.834 -18.5 -24.501 -27.5s-21.5 -18.833 -35.5 -29.5l-51 -40.5l-64.5 -47
l-87.5 -62l-119 -84.5z" />
    <glyph glyph-name="acircumflex" unicode="&#xe2;" horiz-adv-x="1631" 
d="M845 167c-29.333 -40.667 -61.165 -73.334 -95.498 -98.001s-68.833 -43.667 -103.5 -57s-68.5 -22.166 -101.5 -26.499s-62.833 -6.5 -89.5 -6.5c-52 0 -98.167 8.83301 -138.5 26.5s-74.333 41 -102 70s-48.834 62.333 -63.501 100s-22 76.834 -22 117.501
c0 47.333 8.33301 89.5 25 126.5s38.834 69.5 66.501 97.5s59.667 51.833 96 71.5s74.333 35.667 114 48s79.667 21.333 120 27s78.166 8.5 113.499 8.5c7.33301 0 19.333 -0.666992 36 -2s34.167 -3 52.5 -5s35.5 -4 51.5 -6s27.667 -3.33301 35 -4v138
c0 39.333 -5.5 72.333 -16.5 99s-26.167 48.167 -45.5 64.5s-42.333 28 -69 35s-55.667 10.5 -87 10.5c-34 0 -68.667 -6.16699 -104 -18.5s-69.166 -27 -101.499 -44s-62.333 -34.833 -90 -53.5l-69.5 -46h-45v207l95 32c31.333 10.667 64.5 20.334 99.5 29.001
s72.333 15.667 112 21s84.167 8 133.5 8c50.667 0 100 -4.83301 148 -14.5s90.5 -27.5 127.5 -53.5s66.667 -62 89 -108s33.5 -105.333 33.5 -178v-565c0 -13.333 3 -25.5 9 -36.5s13.667 -20.5 23 -28.5s20 -14.167 32 -18.5s23.667 -6.5 35 -6.5c8 0 16 1 24 3
s16.333 4.66699 25 8s17.167 7.16602 25.5 11.499l24.5 12.5h18v-95c-10 -7.33301 -23.333 -16 -40 -26s-34.834 -19.667 -54.501 -29s-39.334 -17.333 -59.001 -24s-37.5 -10 -53.5 -10c-32.667 0 -61.334 4 -86.001 12s-45.167 19.833 -61.5 35.5
s-28.666 35.167 -36.999 58.5s-12.5 50.666 -12.5 81.999h-16zM839.001 550c-72.667 0 -138.999 -2.66992 -198.999 -8.00293s-111.333 -15.833 -154 -31.5s-75.834 -38 -99.501 -67s-35.5 -67.5 -35.5 -115.5c0 -38 6.33301 -69.667 19 -95s28.667 -45.333 48 -60
s41 -25 65 -31s47.333 -9 70 -9s47.5 2.33301 74.5 7s53.667 11.834 80 21.501s51 21.834 74 36.501s42.167 32.334 57.5 53.001v299zM498.002 1577c18.667 26.667 37.501 48.5 56.501 65.5s43.167 25.5 72.5 25.5s53.666 -8.5 72.999 -25.5s38.333 -38.5 57 -64.5l218 -308
l-60 -45l-287 250l-288 -250l-60 45z" />
    <glyph glyph-name="atilde" unicode="&#xe3;" horiz-adv-x="1631" 
d="M845 167c-29.333 -40.667 -61.165 -73.334 -95.498 -98.001s-68.833 -43.667 -103.5 -57s-68.5 -22.166 -101.5 -26.499s-62.833 -6.5 -89.5 -6.5c-52 0 -98.167 8.83301 -138.5 26.5s-74.333 41 -102 70s-48.834 62.333 -63.501 100s-22 76.834 -22 117.501
c0 47.333 8.33301 89.5 25 126.5s38.834 69.5 66.501 97.5s59.667 51.833 96 71.5s74.333 35.667 114 48s79.667 21.333 120 27s78.166 8.5 113.499 8.5c7.33301 0 19.333 -0.666992 36 -2s34.167 -3 52.5 -5s35.5 -4 51.5 -6s27.667 -3.33301 35 -4v138
c0 39.333 -5.5 72.333 -16.5 99s-26.167 48.167 -45.5 64.5s-42.333 28 -69 35s-55.667 10.5 -87 10.5c-34 0 -68.667 -6.16699 -104 -18.5s-69.166 -27 -101.499 -44s-62.333 -34.833 -90 -53.5l-69.5 -46h-45v207l95 32c31.333 10.667 64.5 20.334 99.5 29.001
s72.333 15.667 112 21s84.167 8 133.5 8c50.667 0 100 -4.83301 148 -14.5s90.5 -27.5 127.5 -53.5s66.667 -62 89 -108s33.5 -105.333 33.5 -178v-565c0 -13.333 3 -25.5 9 -36.5s13.667 -20.5 23 -28.5s20 -14.167 32 -18.5s23.667 -6.5 35 -6.5c8 0 16 1 24 3
s16.333 4.66699 25 8s17.167 7.16602 25.5 11.499l24.5 12.5h18v-95c-10 -7.33301 -23.333 -16 -40 -26s-34.834 -19.667 -54.501 -29s-39.334 -17.333 -59.001 -24s-37.5 -10 -53.5 -10c-32.667 0 -61.334 4 -86.001 12s-45.167 19.833 -61.5 35.5
s-28.666 35.167 -36.999 58.5s-12.5 50.666 -12.5 81.999h-16zM839.001 550c-72.667 0 -138.999 -2.66992 -198.999 -8.00293s-111.333 -15.833 -154 -31.5s-75.834 -38 -99.501 -67s-35.5 -67.5 -35.5 -115.5c0 -38 6.33301 -69.667 19 -95s28.667 -45.333 48 -60
s41 -25 65 -31s47.333 -9 70 -9s47.5 2.33301 74.5 7s53.667 11.834 80 21.501s51 21.834 74 36.501s42.167 32.334 57.5 53.001v299zM255.002 1276c4.66699 36.667 14.1689 71.332 28.502 103.999s32.333 61.334 54 86.001s46.167 44.334 73.5 59.001s56.666 22 87.999 22
c20.667 0 44.667 -4.16699 72 -12.5s56 -20.833 86 -37.5c34 -18 61.333 -30.667 82 -38s37 -11 49 -11c14.667 0 27.667 3 39 9s21 14.167 29 24.5s14.667 22.333 20 36s9.66602 28.5 12.999 44.5h99c-4 -36 -12.833 -70.333 -26.5 -103s-31 -61.334 -52 -86.001
s-45.167 -44.334 -72.5 -59.001s-56.666 -22 -87.999 -22c-10.667 0 -21.334 0.666992 -32.001 2s-22 4 -34 8s-25.333 9.33301 -40 16s-31 15.334 -49 26.001c-32 18 -59.167 30.833 -81.5 38.5s-39.833 11.5 -52.5 11.5c-29.333 0 -53 -11.667 -71 -35s-30 -51 -36 -83
h-98z" />
    <glyph glyph-name="adieresis" unicode="&#xe4;" horiz-adv-x="1631" 
d="M845 167c-29.333 -40.667 -61.165 -73.334 -95.498 -98.001s-68.833 -43.667 -103.5 -57s-68.5 -22.166 -101.5 -26.499s-62.833 -6.5 -89.5 -6.5c-52 0 -98.167 8.83301 -138.5 26.5s-74.333 41 -102 70s-48.834 62.333 -63.501 100s-22 76.834 -22 117.501
c0 47.333 8.33301 89.5 25 126.5s38.834 69.5 66.501 97.5s59.667 51.833 96 71.5s74.333 35.667 114 48s79.667 21.333 120 27s78.166 8.5 113.499 8.5c7.33301 0 19.333 -0.666992 36 -2s34.167 -3 52.5 -5s35.5 -4 51.5 -6s27.667 -3.33301 35 -4v138
c0 39.333 -5.5 72.333 -16.5 99s-26.167 48.167 -45.5 64.5s-42.333 28 -69 35s-55.667 10.5 -87 10.5c-34 0 -68.667 -6.16699 -104 -18.5s-69.166 -27 -101.499 -44s-62.333 -34.833 -90 -53.5l-69.5 -46h-45v207l95 32c31.333 10.667 64.5 20.334 99.5 29.001
s72.333 15.667 112 21s84.167 8 133.5 8c50.667 0 100 -4.83301 148 -14.5s90.5 -27.5 127.5 -53.5s66.667 -62 89 -108s33.5 -105.333 33.5 -178v-565c0 -13.333 3 -25.5 9 -36.5s13.667 -20.5 23 -28.5s20 -14.167 32 -18.5s23.667 -6.5 35 -6.5c8 0 16 1 24 3
s16.333 4.66699 25 8s17.167 7.16602 25.5 11.499l24.5 12.5h18v-95c-10 -7.33301 -23.333 -16 -40 -26s-34.834 -19.667 -54.501 -29s-39.334 -17.333 -59.001 -24s-37.5 -10 -53.5 -10c-32.667 0 -61.334 4 -86.001 12s-45.167 19.833 -61.5 35.5
s-28.666 35.167 -36.999 58.5s-12.5 50.666 -12.5 81.999h-16zM839.001 550c-72.667 0 -138.999 -2.66992 -198.999 -8.00293s-111.333 -15.833 -154 -31.5s-75.834 -38 -99.501 -67s-35.5 -67.5 -35.5 -115.5c0 -38 6.33301 -69.667 19 -95s28.667 -45.333 48 -60
s41 -25 65 -31s47.333 -9 70 -9s47.5 2.33301 74.5 7s53.667 11.834 80 21.501s51 21.834 74 36.501s42.167 32.334 57.5 53.001v299zM857.002 1289c-17.333 0 -33.833 2.66602 -49.5 7.99902s-29.5 13 -41.5 23s-21.667 22.333 -29 37s-11 31.334 -11 50.001
c0 20.667 3.66699 38.667 11 54s17 28.166 29 38.499s25.833 18.166 41.5 23.499s32.167 8 49.5 8c20 0 38.5 -2.33301 55.5 -7s31.5 -11.667 43.5 -21s21.333 -21.166 28 -35.499s10 -31.166 10 -50.499c0 -20 -3.5 -38 -10.5 -54s-16.667 -29.5 -29 -40.5
s-26.833 -19.333 -43.5 -25s-34.667 -8.5 -54 -8.5zM395.002 1289c-17.333 0 -33.833 2.66602 -49.5 7.99902s-29.5 13 -41.5 23s-21.667 22.333 -29 37s-11 31.334 -11 50.001c0 20.667 3.66699 38.667 11 54s17 28.166 29 38.499s25.833 18.166 41.5 23.499
s32.167 8 49.5 8c20 0 38.5 -2.33301 55.5 -7s31.5 -11.667 43.5 -21s21.333 -21.166 28 -35.499s10 -31.166 10 -50.499c0 -20 -3.5 -38 -10.5 -54s-16.667 -29.5 -29 -40.5s-26.833 -19.333 -43.5 -25s-34.667 -8.5 -54 -8.5z" />
    <glyph glyph-name="aring" unicode="&#xe5;" horiz-adv-x="1631" 
d="M845 167c-29.333 -40.667 -61.165 -73.334 -95.498 -98.001s-68.833 -43.667 -103.5 -57s-68.5 -22.166 -101.5 -26.499s-62.833 -6.5 -89.5 -6.5c-52 0 -98.167 8.83301 -138.5 26.5s-74.333 41 -102 70s-48.834 62.333 -63.501 100s-22 76.834 -22 117.501
c0 47.333 8.33301 89.5 25 126.5s38.834 69.5 66.501 97.5s59.667 51.833 96 71.5s74.333 35.667 114 48s79.667 21.333 120 27s78.166 8.5 113.499 8.5c7.33301 0 19.333 -0.666992 36 -2s34.167 -3 52.5 -5s35.5 -4 51.5 -6s27.667 -3.33301 35 -4v138
c0 39.333 -5.5 72.333 -16.5 99s-26.167 48.167 -45.5 64.5s-42.333 28 -69 35s-55.667 10.5 -87 10.5c-34 0 -68.667 -6.16699 -104 -18.5s-69.166 -27 -101.499 -44s-62.333 -34.833 -90 -53.5l-69.5 -46h-45v207l95 32c31.333 10.667 64.5 20.334 99.5 29.001
s72.333 15.667 112 21s84.167 8 133.5 8c50.667 0 100 -4.83301 148 -14.5s90.5 -27.5 127.5 -53.5s66.667 -62 89 -108s33.5 -105.333 33.5 -178v-565c0 -13.333 3 -25.5 9 -36.5s13.667 -20.5 23 -28.5s20 -14.167 32 -18.5s23.667 -6.5 35 -6.5c8 0 16 1 24 3
s16.333 4.66699 25 8s17.167 7.16602 25.5 11.499l24.5 12.5h18v-95c-10 -7.33301 -23.333 -16 -40 -26s-34.834 -19.667 -54.501 -29s-39.334 -17.333 -59.001 -24s-37.5 -10 -53.5 -10c-32.667 0 -61.334 4 -86.001 12s-45.167 19.833 -61.5 35.5
s-28.666 35.167 -36.999 58.5s-12.5 50.666 -12.5 81.999h-16zM839.001 550c-72.667 0 -138.999 -2.66992 -198.999 -8.00293s-111.333 -15.833 -154 -31.5s-75.834 -38 -99.501 -67s-35.5 -67.5 -35.5 -115.5c0 -38 6.33301 -69.667 19 -95s28.667 -45.333 48 -60
s41 -25 65 -31s47.333 -9 70 -9s47.5 2.33301 74.5 7s53.667 11.834 80 21.501s51 21.834 74 36.501s42.167 32.334 57.5 53.001v299zM360.002 1474c0 40 7.16699 75.501 21.5 106.501s34 57.167 59 78.5s54.5 37.666 88.5 48.999s70.667 17 110 17
c38 0 72.833 -5.33301 104.5 -16s58.667 -26.334 81 -47.001s39.833 -46.334 52.5 -77.001s19 -65.667 19 -105c0 -40 -7.16699 -75.667 -21.5 -107s-33.833 -57.833 -58.5 -79.5s-53.5 -38 -86.5 -49s-68.167 -16.5 -105.5 -16.5c-38 0 -73.167 5.33301 -105.5 16
s-60.333 26.334 -84 47.001s-42 46.334 -55 77.001s-19.5 66 -19.5 106zM639.002 1311c36.667 0 65.834 13.166 87.501 39.499s32.5 63.833 32.5 112.5c0 26 -3.5 50 -10.5 72s-16.5 41 -28.5 57s-26.333 28.333 -43 37s-34.334 13 -53.001 13c-38 0 -68.333 -13 -91 -39
s-34 -64.333 -34 -115c0 -27.333 3.66699 -51.833 11 -73.5s17.333 -40.167 30 -55.5s27.5 -27.166 44.5 -35.499s35.167 -12.5 54.5 -12.5z" />
    <glyph glyph-name="ae" unicode="&#xe6;" horiz-adv-x="2286" 
d="M891 199c-29.333 -48 -63.5 -86.5059 -102.5 -115.506s-78.667 -51.167 -119 -66.5s-79.5 -25.5 -117.5 -30.5s-70.333 -7.5 -97 -7.5c-52 0 -98.167 8.83301 -138.5 26.5s-74.333 41 -102 70s-48.834 62.333 -63.501 100s-22 76.834 -22 117.501
c0 47.333 8.33301 89.5 25 126.5s38.834 69.5 66.501 97.5s59.667 51.833 96 71.5s74.333 35.667 114 48s79.667 21.333 120 27s78.166 8.5 113.499 8.5c7.33301 0 19.333 -0.666992 36 -2s34.167 -3 52.5 -5s35.5 -4 51.5 -6s27.667 -3.33301 35 -4v138
c0 39.333 -5.5 72.333 -16.5 99s-26.167 48.167 -45.5 64.5s-42.333 28 -69 35s-55.667 10.5 -87 10.5c-34 0 -68.667 -6.16699 -104 -18.5s-69.166 -27 -101.499 -44s-62.333 -34.833 -90 -53.5l-69.5 -46h-45v207l95 32c31.333 10.667 64.5 20.334 99.5 29.001
s72.333 15.667 112 21s84.167 8 133.5 8c34 0 67.667 -2.33301 101 -7s64.833 -12.5 94.5 -23.5s57 -25.667 82 -44s46.5 -41.166 64.5 -68.499c46.667 44 99.667 78.833 159 104.5s124.333 38.5 195 38.5c74.667 0 141.167 -11.667 199.5 -35s107.666 -55 147.999 -95
s71.166 -86.833 92.499 -140.5s32 -110.5 32 -170.5c0 -6.66699 -0.166992 -15.167 -0.5 -25.5s-0.833008 -21.166 -1.5 -32.499s-1.66699 -22.333 -3 -33s-3 -19.667 -5 -27h-781c0 -146.667 34.333 -256.5 103 -329.5s165 -109.5 289 -109.5
c38.667 0 75.834 4.66699 111.501 14s69 21 100 35s59.333 29 85 45s47.5 30.667 65.5 44h34v-128c-26.667 -20.667 -57.167 -41.167 -91.5 -61.5s-71.666 -38.666 -111.999 -54.999s-83 -29.666 -128 -39.999s-90.833 -15.5 -137.5 -15.5c-94 0 -178.667 18.5 -254 55.5
s-137 92.833 -185 167.5zM1595 693.994c0 50.667 -4.66699 95.834 -14 135.501s-24.166 73.167 -44.499 100.5s-47 48.166 -80 62.499s-73.5 21.5 -121.5 21.5c-41.333 0 -79.333 -7 -114 -21s-65.334 -34.667 -92.001 -62s-48.167 -60.833 -64.5 -100.5
s-26.5 -85.167 -30.5 -136.5h561zM839 549.994c-72.667 0 -138.999 -2.66992 -198.999 -8.00293s-111.333 -15.833 -154 -31.5s-75.834 -38 -99.501 -67s-35.5 -67.5 -35.5 -115.5c0 -38 6.33301 -69.667 19 -95s28.667 -45.333 48 -60s41 -25 65 -31s47.333 -9 70 -9
s47.5 2.33301 74.5 7s53.667 11.834 80 21.501s51 21.834 74 36.501s42.167 32.334 57.5 53.001v299z" />
    <glyph glyph-name="ccedilla" unicode="&#xe7;" horiz-adv-x="1487" 
d="M426 -352l28.0049 0.00292969c19.333 -12.667 44.833 -24.667 76.5 -36s65.834 -17 102.501 -17c40.667 0 71.5 9 92.5 27s31.5 42 31.5 72c0 18.667 -3.33301 33.667 -10 45s-17 20.333 -31 27s-32.333 11.167 -55 13.5s-50 3.5 -82 3.5v197
c-71.333 6 -135.5 24 -192.5 54s-105.5 69.5 -145.5 118.5s-70.667 106.667 -92 173s-32 138.833 -32 217.5c0 59.333 8 115.166 24 167.499s38 100.333 66 144s61 83 99 118s78.833 64.5 122.5 88.5s89.167 42.333 136.5 55s94.666 19 141.999 19
c39.333 0 75.666 -3.16699 108.999 -9.5s63.5 -14 90.5 -23s50.5 -18.167 70.5 -27.5l50 -23v-216h-51c-27.333 15.333 -54 31.666 -80 48.999s-53.5 33.333 -82.5 48s-60.333 26.834 -94 36.501s-71.834 14.5 -114.501 14.5c-12 0 -25.667 -1.5 -41 -4.5
s-30.833 -7.33301 -46.5 -13s-30.5 -12.667 -44.5 -21s-25.667 -17.833 -35 -28.5c-12 -12.667 -23.667 -27.167 -35 -43.5s-21.5 -37.333 -30.5 -63s-16.167 -57.5 -21.5 -95.5s-8 -84.667 -8 -140c0 -68.667 7.66699 -130 23 -184s37.833 -99.667 67.5 -137
s66.5 -65.833 110.5 -85.5s95 -29.5 153 -29.5c36 0 70.167 5 102.5 15s62.666 22.167 90.999 36.5s54.5 30 78.5 47l65 46.5h36v-127c-24.667 -19.333 -51.167 -39 -79.5 -59s-58.833 -38.5 -91.5 -55.5s-67.834 -31.333 -105.501 -43s-77.834 -18.834 -120.501 -21.501
v-87c28.667 0 57 -2.66699 85 -8s53 -14.5 75 -27.5s39.833 -30.333 53.5 -52s20.5 -48.834 20.5 -81.501c0 -35.333 -6.33301 -66.833 -19 -94.5s-30.5 -51 -53.5 -70s-50.667 -33.5 -83 -43.5s-68.5 -15 -108.5 -15c-48 0 -89.167 5.16699 -123.5 15.5
s-65.5 21.833 -93.5 34.5v99z" />
    <glyph glyph-name="egrave" unicode="&#xe8;" horiz-adv-x="1590" 
d="M1121 277l-0.00195312 -128.003c-26.667 -20.667 -57.334 -41.167 -92.001 -61.5s-72.334 -38.666 -113.001 -54.999s-83.667 -29.666 -129 -39.999s-91.333 -15.5 -138 -15.5c-75.333 0 -145.833 12.333 -211.5 37s-122.667 61.167 -171 109.5s-86.5 108 -114.5 179
s-42 152.5 -42 244.5c0 84 13.333 162 40 234s63.834 134.333 111.501 187s104.5 94 170.5 124s138.333 45 217 45c74.667 0 141.334 -11.667 200.001 -35s108.334 -55 149.001 -95s71.834 -86.833 93.501 -140.5s32.5 -110.5 32.5 -170.5
c0 -6.66699 -0.166992 -15.167 -0.5 -25.5s-0.833008 -21.166 -1.5 -32.499s-1.66699 -22.333 -3 -33s-3 -19.667 -5 -27h-786c0 -146.667 34.667 -256.5 104 -329.5s166 -109.5 290 -109.5c38.667 0 76 4.66699 112 14s69.667 21 101 35s60 29 86 45s48 30.667 66 44h34z
M899.998 693.997c0 50.667 -4.66602 95.834 -13.999 135.501s-24.5 73.167 -45.5 100.5s-48.167 48.166 -81.5 62.499s-74 21.5 -122 21.5c-41.333 0 -79.5 -7 -114.5 -21s-65.833 -34.667 -92.5 -62s-48.334 -60.833 -65.001 -100.5s-27 -85.167 -31 -136.5h566z
M779.999 1225l-119.001 84.5029l-87.5 62l-64.5 47l-51 40.5c-14 10.667 -25.833 20.5 -35.5 29.5s-17.834 18.167 -24.501 27.5s-11.5 19.333 -14.5 30s-4.5 22.667 -4.5 36c0 11.333 2.33301 22.333 7 33s11.334 20 20.001 28s18.834 14.5 30.501 19.5s24.5 7.5 38.5 7.5
s27 -1.33301 39 -4s23.667 -7.33398 35 -14.001s22.833 -15.834 34.5 -27.501s24.167 -26.834 37.5 -45.501l39.5 -56l46 -65.5l58 -82l75.5 -105.5z" />
    <glyph glyph-name="eacute" unicode="&#xe9;" horiz-adv-x="1590" 
d="M1121 277l-0.00195312 -128.003c-26.667 -20.667 -57.334 -41.167 -92.001 -61.5s-72.334 -38.666 -113.001 -54.999s-83.667 -29.666 -129 -39.999s-91.333 -15.5 -138 -15.5c-75.333 0 -145.833 12.333 -211.5 37s-122.667 61.167 -171 109.5s-86.5 108 -114.5 179
s-42 152.5 -42 244.5c0 84 13.333 162 40 234s63.834 134.333 111.501 187s104.5 94 170.5 124s138.333 45 217 45c74.667 0 141.334 -11.667 200.001 -35s108.334 -55 149.001 -95s71.834 -86.833 93.501 -140.5s32.5 -110.5 32.5 -170.5
c0 -6.66699 -0.166992 -15.167 -0.5 -25.5s-0.833008 -21.166 -1.5 -32.499s-1.66699 -22.333 -3 -33s-3 -19.667 -5 -27h-786c0 -146.667 34.667 -256.5 104 -329.5s166 -109.5 290 -109.5c38.667 0 76 4.66699 112 14s69.667 21 101 35s60 29 86 45s48 30.667 66 44h34z
M899.998 693.997c0 50.667 -4.66602 95.834 -13.999 135.501s-24.5 73.167 -45.5 100.5s-48.167 48.166 -81.5 62.499s-74 21.5 -122 21.5c-41.333 0 -79.5 -7 -114.5 -21s-65.833 -34.667 -92.5 -62s-48.334 -60.833 -65.001 -100.5s-27 -85.167 -31 -136.5h566z
M417.999 1270l75.499 105.497l58 82l46 65.5l39.5 56c13.333 18.667 25.833 33.834 37.5 45.501s23.167 20.834 34.5 27.501s23 11.334 35 14.001s25 4 39 4s26.833 -2.5 38.5 -7.5s21.834 -11.5 30.501 -19.5s15.334 -17.333 20.001 -28s7 -21.667 7 -33
c0 -13.333 -1.5 -25.333 -4.5 -36s-7.83301 -20.667 -14.5 -30s-14.834 -18.5 -24.501 -27.5s-21.5 -18.833 -35.5 -29.5l-51 -40.5l-64.5 -47l-87.5 -62l-119 -84.5z" />
    <glyph glyph-name="ecircumflex" unicode="&#xea;" horiz-adv-x="1590" 
d="M1121 277l-0.00195312 -128.003c-26.667 -20.667 -57.334 -41.167 -92.001 -61.5s-72.334 -38.666 -113.001 -54.999s-83.667 -29.666 -129 -39.999s-91.333 -15.5 -138 -15.5c-75.333 0 -145.833 12.333 -211.5 37s-122.667 61.167 -171 109.5s-86.5 108 -114.5 179
s-42 152.5 -42 244.5c0 84 13.333 162 40 234s63.834 134.333 111.501 187s104.5 94 170.5 124s138.333 45 217 45c74.667 0 141.334 -11.667 200.001 -35s108.334 -55 149.001 -95s71.834 -86.833 93.501 -140.5s32.5 -110.5 32.5 -170.5
c0 -6.66699 -0.166992 -15.167 -0.5 -25.5s-0.833008 -21.166 -1.5 -32.499s-1.66699 -22.333 -3 -33s-3 -19.667 -5 -27h-786c0 -146.667 34.667 -256.5 104 -329.5s166 -109.5 290 -109.5c38.667 0 76 4.66699 112 14s69.667 21 101 35s60 29 86 45s48 30.667 66 44h34z
M899.998 693.997c0 50.667 -4.66602 95.834 -13.999 135.501s-24.5 73.167 -45.5 100.5s-48.167 48.166 -81.5 62.499s-74 21.5 -122 21.5c-41.333 0 -79.5 -7 -114.5 -21s-65.833 -34.667 -92.5 -62s-48.334 -60.833 -65.001 -100.5s-27 -85.167 -31 -136.5h566z
M504.999 1577c18.667 26.667 37.501 48.5 56.501 65.5s43.167 25.5 72.5 25.5s53.666 -8.5 72.999 -25.5s38.333 -38.5 57 -64.5l218 -308l-60 -45l-287 250l-288 -250l-60 45z" />
    <glyph glyph-name="edieresis" unicode="&#xeb;" horiz-adv-x="1590" 
d="M1121 277l-0.00195312 -128.003c-26.667 -20.667 -57.334 -41.167 -92.001 -61.5s-72.334 -38.666 -113.001 -54.999s-83.667 -29.666 -129 -39.999s-91.333 -15.5 -138 -15.5c-75.333 0 -145.833 12.333 -211.5 37s-122.667 61.167 -171 109.5s-86.5 108 -114.5 179
s-42 152.5 -42 244.5c0 84 13.333 162 40 234s63.834 134.333 111.501 187s104.5 94 170.5 124s138.333 45 217 45c74.667 0 141.334 -11.667 200.001 -35s108.334 -55 149.001 -95s71.834 -86.833 93.501 -140.5s32.5 -110.5 32.5 -170.5
c0 -6.66699 -0.166992 -15.167 -0.5 -25.5s-0.833008 -21.166 -1.5 -32.499s-1.66699 -22.333 -3 -33s-3 -19.667 -5 -27h-786c0 -146.667 34.667 -256.5 104 -329.5s166 -109.5 290 -109.5c38.667 0 76 4.66699 112 14s69.667 21 101 35s60 29 86 45s48 30.667 66 44h34z
M899.998 693.997c0 50.667 -4.66602 95.834 -13.999 135.501s-24.5 73.167 -45.5 100.5s-48.167 48.166 -81.5 62.499s-74 21.5 -122 21.5c-41.333 0 -79.5 -7 -114.5 -21s-65.833 -34.667 -92.5 -62s-48.334 -60.833 -65.001 -100.5s-27 -85.167 -31 -136.5h566z
M861.999 1289c-17.333 0 -33.833 2.66602 -49.5 7.99902s-29.5 13 -41.5 23s-21.667 22.333 -29 37s-11 31.334 -11 50.001c0 20.667 3.66699 38.667 11 54s17 28.166 29 38.499s25.833 18.166 41.5 23.499s32.167 8 49.5 8c20 0 38.5 -2.33301 55.5 -7
s31.5 -11.667 43.5 -21s21.333 -21.166 28 -35.499s10 -31.166 10 -50.499c0 -20 -3.5 -38 -10.5 -54s-16.667 -29.5 -29 -40.5s-26.833 -19.333 -43.5 -25s-34.667 -8.5 -54 -8.5zM399.999 1289c-17.333 0 -33.833 2.66602 -49.5 7.99902s-29.5 13 -41.5 23
s-21.667 22.333 -29 37s-11 31.334 -11 50.001c0 20.667 3.66699 38.667 11 54s17 28.166 29 38.499s25.833 18.166 41.5 23.499s32.167 8 49.5 8c20 0 38.5 -2.33301 55.5 -7s31.5 -11.667 43.5 -21s21.333 -21.166 28 -35.499s10 -31.166 10 -50.499
c0 -20 -3.5 -38 -10.5 -54s-16.667 -29.5 -29 -40.5s-26.833 -19.333 -43.5 -25s-34.667 -8.5 -54 -8.5z" />
    <glyph glyph-name="igrave" unicode="&#xec;" horiz-adv-x="1128" 
d="M100 82l163.001 43.999c11.333 3.33301 20.833 8.5 28.5 15.5s11.5 17.167 11.5 30.5v709c0 13.333 -3.83301 23.5 -11.5 30.5s-16.834 12.167 -27.501 15.5l-162 54v85l410 50v-944c0 -13.333 4 -23.666 12 -30.999s16.667 -12.333 26 -15l163 -44v-82h-613v82z
M470.001 1225l-119.001 84.5029l-87.5 62l-64.5 47l-51 40.5c-14 10.667 -25.833 20.5 -35.5 29.5s-17.834 18.167 -24.501 27.5s-11.5 19.333 -14.5 30s-4.5 22.667 -4.5 36c0 11.333 2.33301 22.333 7 33s11.334 20 20.001 28s18.834 14.5 30.501 19.5s24.5 7.5 38.5 7.5
s27 -1.33301 39 -4s23.667 -7.33398 35 -14.001s22.833 -15.834 34.5 -27.501s24.167 -26.834 37.5 -45.501l39.5 -56l46 -65.5l58 -82l75.5 -105.5z" />
    <glyph glyph-name="iacute" unicode="&#xed;" horiz-adv-x="1128" 
d="M100 82l163.001 43.999c11.333 3.33301 20.833 8.5 28.5 15.5s11.5 17.167 11.5 30.5v709c0 13.333 -3.83301 23.5 -11.5 30.5s-16.834 12.167 -27.501 15.5l-162 54v85l410 50v-944c0 -13.333 4 -23.666 12 -30.999s16.667 -12.333 26 -15l163 -44v-82h-613v82z
M177.001 1270l75.499 105.497l58 82l46 65.5l39.5 56c13.333 18.667 25.833 33.834 37.5 45.501s23.167 20.834 34.5 27.501s23 11.334 35 14.001s25 4 39 4s26.833 -2.5 38.5 -7.5s21.834 -11.5 30.501 -19.5s15.334 -17.333 20.001 -28s7 -21.667 7 -33
c0 -13.333 -1.5 -25.333 -4.5 -36s-7.83301 -20.667 -14.5 -30s-14.834 -18.5 -24.501 -27.5s-21.5 -18.833 -35.5 -29.5l-51 -40.5l-64.5 -47l-87.5 -62l-119 -84.5z" />
    <glyph glyph-name="icircumflex" unicode="&#xee;" horiz-adv-x="1128" 
d="M100 82l163.001 43.999c11.333 3.33301 20.833 8.5 28.5 15.5s11.5 17.167 11.5 30.5v709c0 13.333 -3.83301 23.5 -11.5 30.5s-16.834 12.167 -27.501 15.5l-162 54v85l410 50v-944c0 -13.333 4 -23.666 12 -30.999s16.667 -12.333 26 -15l163 -44v-82h-613v82z
M239.001 1577c18.667 26.667 37.501 48.5 56.501 65.5s43.167 25.5 72.5 25.5s53.666 -8.5 72.999 -25.5s38.333 -38.5 57 -64.5l218 -308l-60 -45l-287 250l-288 -250l-60 45z" />
    <glyph glyph-name="idieresis" unicode="&#xef;" horiz-adv-x="1128" 
d="M589 1289c-17.333 0 -33.833 2.66602 -49.5 7.99902s-29.5 13 -41.5 23s-21.667 22.333 -29 37s-11 31.334 -11 50.001c0 20.667 3.66699 38.667 11 54s17 28.166 29 38.499s25.833 18.166 41.5 23.499s32.167 8 49.5 8c20 0 38.5 -2.33301 55.5 -7
s31.5 -11.667 43.5 -21s21.333 -21.166 28 -35.499s10 -31.166 10 -50.499c0 -20 -3.5 -38 -10.5 -54s-16.667 -29.5 -29 -40.5s-26.833 -19.333 -43.5 -25s-34.667 -8.5 -54 -8.5zM141 1289c-17.333 0 -33.833 2.66602 -49.5 7.99902s-29.5 13 -41.5 23
s-21.667 22.333 -29 37s-11 31.334 -11 50.001c0 20.667 3.66699 38.667 11 54s17 28.166 29 38.499s25.833 18.166 41.5 23.499s32.167 8 49.5 8c20 0 38.5 -2.33301 55.5 -7s31.5 -11.667 43.5 -21s21.333 -21.166 28 -35.499s10 -31.166 10 -50.499
c0 -20 -3.5 -38 -10.5 -54s-16.667 -29.5 -29 -40.5s-26.833 -19.333 -43.5 -25s-34.667 -8.5 -54 -8.5zM100 81.998l163.001 43.999c11.333 3.33301 20.833 8.5 28.5 15.5s11.5 17.167 11.5 30.5v709c0 13.333 -3.83301 23.5 -11.5 30.5s-16.834 12.167 -27.501 15.5
l-162 54v85l410 50v-944c0 -13.333 4 -23.666 12 -30.999s16.667 -12.333 26 -15l163 -44v-82h-613v82z" />
    <glyph glyph-name="eth" unicode="&#xf0;" horiz-adv-x="1631" 
d="M417 1258l199.999 110.001c-22 17.333 -48.833 36.333 -80.5 57s-66.5 40.667 -104.5 60v23l118 50c21.333 -9.33301 42.333 -19.5 63 -30.5s40.5 -22.333 59.5 -34s36.333 -23.167 52 -34.5s29.167 -22 40.5 -32l234 131v-120l-149 -82c52 -44.667 98 -92.667 138 -144
s73.667 -105.666 101 -162.999s48 -118.166 62 -182.499s21 -131.833 21 -202.5c0 -102 -11.667 -195.167 -35 -279.5s-57.833 -156.833 -103.5 -217.5s-102.5 -107.834 -170.5 -141.501s-146.333 -50.5 -235 -50.5c-68 0 -132.833 11.333 -194.5 34
s-115.834 56.334 -162.501 101.001s-83.834 100.334 -111.501 167.001s-41.5 144 -41.5 232c0 77.333 12.333 148.166 37 212.499s59.167 119.666 103.5 165.999s97.333 82.333 159 108s129.5 38.5 203.5 38.5c38 0 72.667 -3.83301 104 -11.5
s59.666 -17.334 84.999 -29.001s47.5 -24.667 66.5 -39s35.5 -28.5 49.5 -42.5c-11.333 39.333 -25.666 76.666 -42.999 111.999s-36.666 68.833 -57.999 100.5s-43.666 61.167 -66.999 88.5s-46.666 53 -69.999 77l-271 -156v124zM931.999 830.001
c-13.333 8.66699 -30.499 16.834 -51.499 24.501s-43.167 14.167 -66.5 19.5s-46.333 9.66602 -69 12.999s-42.334 5 -59.001 5c-60 0 -111.5 -9.16699 -154.5 -27.5s-78.333 -43.833 -106 -76.5s-48 -71.667 -61 -117s-19.5 -95 -19.5 -149
c0 -34.667 2.16699 -69.167 6.5 -103.5s11.333 -67.166 21 -98.499s22.167 -60.5 37.5 -87.5s33.833 -50.5 55.5 -70.5s46.834 -35.667 75.501 -47s61.334 -17 98.001 -17c56.667 0 105 11.833 145 35.5s72.667 58.167 98 103.5s43.666 101 54.999 167s17 141.333 17 226
c0 16 -0.666992 33 -2 51s-3 35.833 -5 53.5s-4.33301 34.667 -7 51s-5.33398 31.166 -8.00098 44.499z" />
    <glyph glyph-name="ntilde" unicode="&#xf1;" horiz-adv-x="1767" 
d="M105 82l126.998 44.002c11.333 4 20.5 9.33301 27.5 16s10.5 16.667 10.5 30v721c0 13.333 -3.83301 23.166 -11.5 29.499s-16.5 11.833 -26.5 16.5l-125 54v85l350 50v-173h16c31.333 40 62.5 72 93.5 96s61.667 42.333 92 55s60.333 21 90 25s58.834 6 87.501 6
c48 0 93.5 -7 136.5 -21s80.667 -36 113 -66s57.833 -68.333 76.5 -115s28 -102.334 28 -167.001v-591c0 -16 3.5 -27.667 10.5 -35s16.167 -12.666 27.5 -15.999l112 -44v-82h-500v82l100 44c11.333 5.33301 21 11.166 29 17.499s12 17.5 12 33.5v498
c0 48 -3 90.333 -9 127s-17.5 67.667 -34.5 93s-41.167 44.5 -72.5 57.5s-72 19.5 -122 19.5c-22 0 -45.167 -1.5 -69.5 -4.5s-48.166 -8.33301 -71.499 -16s-45.666 -18.167 -66.999 -31.5s-40 -30 -56 -50v-698c0 -13.333 4.16699 -23.5 12.5 -30.5
s17.166 -12.167 26.499 -15.5l93 -44v-82h-506v82zM351.998 1276c4.66699 36.667 14.1689 71.332 28.502 103.999s32.333 61.334 54 86.001s46.167 44.334 73.5 59.001s56.666 22 87.999 22c20.667 0 44.667 -4.16699 72 -12.5s56 -20.833 86 -37.5
c34 -18 61.333 -30.667 82 -38s37 -11 49 -11c14.667 0 27.667 3 39 9s21 14.167 29 24.5s14.667 22.333 20 36s9.66602 28.5 12.999 44.5h99c-4 -36 -12.833 -70.333 -26.5 -103s-31 -61.334 -52 -86.001s-45.167 -44.334 -72.5 -59.001s-56.666 -22 -87.999 -22
c-10.667 0 -21.334 0.666992 -32.001 2s-22 4 -34 8s-25.333 9.33301 -40 16s-31 15.334 -49 26.001c-32 18 -59.167 30.833 -81.5 38.5s-39.833 11.5 -52.5 11.5c-29.333 0 -53 -11.667 -71 -35s-30 -51 -36 -83h-98z" />
    <glyph glyph-name="ograve" unicode="&#xf2;" horiz-adv-x="1665" 
d="M657 -25c-80 0 -153.169 13.3311 -219.502 39.998s-123.166 64.834 -170.499 114.501s-84 110.334 -110 182.001s-39 152.5 -39 242.5c0 82.667 12.833 159.5 38.5 230.5s62.334 132.667 110.001 185s105.334 93.333 173.001 123s143.5 44.5 227.5 44.5
c91.333 0 170.833 -15.667 238.5 -47s123.667 -73.5 168 -126.5s77.5 -114.5 99.5 -184.5s33 -143.667 33 -221c0 -82 -12.833 -158.5 -38.5 -229.5s-62.167 -132.667 -109.5 -185s-104.833 -93.5 -172.5 -123.5s-143.834 -45 -228.501 -45zM671.998 97.998
c58.667 0 107.67 13.499 147.003 40.499s70.5 61.667 93.5 104s39.333 89.333 49 141s14.5 102.5 14.5 152.5c0 60.667 -5.83301 119.667 -17.5 177s-30.5 108.333 -56.5 153s-59.5 80.5 -100.5 107.5s-90.833 40.5 -149.5 40.5c-39.333 0 -74 -6.16699 -104 -18.5
s-56.333 -29.166 -79 -50.499s-41.667 -46.166 -57 -74.499s-27.833 -58.5 -37.5 -90.5s-16.5 -65.167 -20.5 -99.5s-6 -67.833 -6 -100.5c0 -36.667 2.16699 -74 6.5 -112s11.666 -74.833 21.999 -110.5s23.666 -69.167 39.999 -100.5s36.5 -58.833 60.5 -82.5
s52.167 -42.334 84.5 -56.001s69.166 -20.5 110.499 -20.5zM808.001 1225l-119.001 84.5029l-87.5 62l-64.5 47l-51 40.5c-14 10.667 -25.833 20.5 -35.5 29.5s-17.834 18.167 -24.501 27.5s-11.5 19.333 -14.5 30s-4.5 22.667 -4.5 36c0 11.333 2.33301 22.333 7 33
s11.334 20 20.001 28s18.834 14.5 30.501 19.5s24.5 7.5 38.5 7.5s27 -1.33301 39 -4s23.667 -7.33398 35 -14.001s22.833 -15.834 34.5 -27.501s24.167 -26.834 37.5 -45.501l39.5 -56l46 -65.5l58 -82l75.5 -105.5z" />
    <glyph glyph-name="oacute" unicode="&#xf3;" horiz-adv-x="1665" 
d="M657 -25c-80 0 -153.169 13.3311 -219.502 39.998s-123.166 64.834 -170.499 114.501s-84 110.334 -110 182.001s-39 152.5 -39 242.5c0 82.667 12.833 159.5 38.5 230.5s62.334 132.667 110.001 185s105.334 93.333 173.001 123s143.5 44.5 227.5 44.5
c91.333 0 170.833 -15.667 238.5 -47s123.667 -73.5 168 -126.5s77.5 -114.5 99.5 -184.5s33 -143.667 33 -221c0 -82 -12.833 -158.5 -38.5 -229.5s-62.167 -132.667 -109.5 -185s-104.833 -93.5 -172.5 -123.5s-143.834 -45 -228.501 -45zM671.998 97.998
c58.667 0 107.67 13.499 147.003 40.499s70.5 61.667 93.5 104s39.333 89.333 49 141s14.5 102.5 14.5 152.5c0 60.667 -5.83301 119.667 -17.5 177s-30.5 108.333 -56.5 153s-59.5 80.5 -100.5 107.5s-90.833 40.5 -149.5 40.5c-39.333 0 -74 -6.16699 -104 -18.5
s-56.333 -29.166 -79 -50.499s-41.667 -46.166 -57 -74.499s-27.833 -58.5 -37.5 -90.5s-16.5 -65.167 -20.5 -99.5s-6 -67.833 -6 -100.5c0 -36.667 2.16699 -74 6.5 -112s11.666 -74.833 21.999 -110.5s23.666 -69.167 39.999 -100.5s36.5 -58.833 60.5 -82.5
s52.167 -42.334 84.5 -56.001s69.166 -20.5 110.499 -20.5zM456.001 1270l75.499 105.497l58 82l46 65.5l39.5 56c13.333 18.667 25.833 33.834 37.5 45.501s23.167 20.834 34.5 27.501s23 11.334 35 14.001s25 4 39 4s26.833 -2.5 38.5 -7.5s21.834 -11.5 30.501 -19.5
s15.334 -17.333 20.001 -28s7 -21.667 7 -33c0 -13.333 -1.5 -25.333 -4.5 -36s-7.83301 -20.667 -14.5 -30s-14.834 -18.5 -24.501 -27.5s-21.5 -18.833 -35.5 -29.5l-51 -40.5l-64.5 -47l-87.5 -62l-119 -84.5z" />
    <glyph glyph-name="ocircumflex" unicode="&#xf4;" horiz-adv-x="1665" 
d="M657 -25c-80 0 -153.169 13.3311 -219.502 39.998s-123.166 64.834 -170.499 114.501s-84 110.334 -110 182.001s-39 152.5 -39 242.5c0 82.667 12.833 159.5 38.5 230.5s62.334 132.667 110.001 185s105.334 93.333 173.001 123s143.5 44.5 227.5 44.5
c91.333 0 170.833 -15.667 238.5 -47s123.667 -73.5 168 -126.5s77.5 -114.5 99.5 -184.5s33 -143.667 33 -221c0 -82 -12.833 -158.5 -38.5 -229.5s-62.167 -132.667 -109.5 -185s-104.833 -93.5 -172.5 -123.5s-143.834 -45 -228.501 -45zM671.998 97.998
c58.667 0 107.67 13.499 147.003 40.499s70.5 61.667 93.5 104s39.333 89.333 49 141s14.5 102.5 14.5 152.5c0 60.667 -5.83301 119.667 -17.5 177s-30.5 108.333 -56.5 153s-59.5 80.5 -100.5 107.5s-90.833 40.5 -149.5 40.5c-39.333 0 -74 -6.16699 -104 -18.5
s-56.333 -29.166 -79 -50.499s-41.667 -46.166 -57 -74.499s-27.833 -58.5 -37.5 -90.5s-16.5 -65.167 -20.5 -99.5s-6 -67.833 -6 -100.5c0 -36.667 2.16699 -74 6.5 -112s11.666 -74.833 21.999 -110.5s23.666 -69.167 39.999 -100.5s36.5 -58.833 60.5 -82.5
s52.167 -42.334 84.5 -56.001s69.166 -20.5 110.499 -20.5zM533.001 1577c18.667 26.667 37.501 48.5 56.501 65.5s43.167 25.5 72.5 25.5s53.666 -8.5 72.999 -25.5s38.333 -38.5 57 -64.5l218 -308l-60 -45l-287 250l-288 -250l-60 45z" />
    <glyph glyph-name="otilde" unicode="&#xf5;" horiz-adv-x="1665" 
d="M657 -25c-80 0 -153.169 13.3311 -219.502 39.998s-123.166 64.834 -170.499 114.501s-84 110.334 -110 182.001s-39 152.5 -39 242.5c0 82.667 12.833 159.5 38.5 230.5s62.334 132.667 110.001 185s105.334 93.333 173.001 123s143.5 44.5 227.5 44.5
c91.333 0 170.833 -15.667 238.5 -47s123.667 -73.5 168 -126.5s77.5 -114.5 99.5 -184.5s33 -143.667 33 -221c0 -82 -12.833 -158.5 -38.5 -229.5s-62.167 -132.667 -109.5 -185s-104.833 -93.5 -172.5 -123.5s-143.834 -45 -228.501 -45zM671.998 97.998
c58.667 0 107.67 13.499 147.003 40.499s70.5 61.667 93.5 104s39.333 89.333 49 141s14.5 102.5 14.5 152.5c0 60.667 -5.83301 119.667 -17.5 177s-30.5 108.333 -56.5 153s-59.5 80.5 -100.5 107.5s-90.833 40.5 -149.5 40.5c-39.333 0 -74 -6.16699 -104 -18.5
s-56.333 -29.166 -79 -50.499s-41.667 -46.166 -57 -74.499s-27.833 -58.5 -37.5 -90.5s-16.5 -65.167 -20.5 -99.5s-6 -67.833 -6 -100.5c0 -36.667 2.16699 -74 6.5 -112s11.666 -74.833 21.999 -110.5s23.666 -69.167 39.999 -100.5s36.5 -58.833 60.5 -82.5
s52.167 -42.334 84.5 -56.001s69.166 -20.5 110.499 -20.5zM296.001 1276c4.66699 36.667 14.1689 71.332 28.502 103.999s32.333 61.334 54 86.001s46.167 44.334 73.5 59.001s56.666 22 87.999 22c20.667 0 44.667 -4.16699 72 -12.5s56 -20.833 86 -37.5
c34 -18 61.333 -30.667 82 -38s37 -11 49 -11c14.667 0 27.667 3 39 9s21 14.167 29 24.5s14.667 22.333 20 36s9.66602 28.5 12.999 44.5h99c-4 -36 -12.833 -70.333 -26.5 -103s-31 -61.334 -52 -86.001s-45.167 -44.334 -72.5 -59.001s-56.666 -22 -87.999 -22
c-10.667 0 -21.334 0.666992 -32.001 2s-22 4 -34 8s-25.333 9.33301 -40 16s-31 15.334 -49 26.001c-32 18 -59.167 30.833 -81.5 38.5s-39.833 11.5 -52.5 11.5c-29.333 0 -53 -11.667 -71 -35s-30 -51 -36 -83h-98z" />
    <glyph glyph-name="odieresis" unicode="&#xf6;" horiz-adv-x="1665" 
d="M657 -25c-80 0 -153.169 13.3311 -219.502 39.998s-123.166 64.834 -170.499 114.501s-84 110.334 -110 182.001s-39 152.5 -39 242.5c0 82.667 12.833 159.5 38.5 230.5s62.334 132.667 110.001 185s105.334 93.333 173.001 123s143.5 44.5 227.5 44.5
c91.333 0 170.833 -15.667 238.5 -47s123.667 -73.5 168 -126.5s77.5 -114.5 99.5 -184.5s33 -143.667 33 -221c0 -82 -12.833 -158.5 -38.5 -229.5s-62.167 -132.667 -109.5 -185s-104.833 -93.5 -172.5 -123.5s-143.834 -45 -228.501 -45zM671.998 97.998
c58.667 0 107.67 13.499 147.003 40.499s70.5 61.667 93.5 104s39.333 89.333 49 141s14.5 102.5 14.5 152.5c0 60.667 -5.83301 119.667 -17.5 177s-30.5 108.333 -56.5 153s-59.5 80.5 -100.5 107.5s-90.833 40.5 -149.5 40.5c-39.333 0 -74 -6.16699 -104 -18.5
s-56.333 -29.166 -79 -50.499s-41.667 -46.166 -57 -74.499s-27.833 -58.5 -37.5 -90.5s-16.5 -65.167 -20.5 -99.5s-6 -67.833 -6 -100.5c0 -36.667 2.16699 -74 6.5 -112s11.666 -74.833 21.999 -110.5s23.666 -69.167 39.999 -100.5s36.5 -58.833 60.5 -82.5
s52.167 -42.334 84.5 -56.001s69.166 -20.5 110.499 -20.5zM890.001 1289c-17.333 0 -33.833 2.66602 -49.5 7.99902s-29.5 13 -41.5 23s-21.667 22.333 -29 37s-11 31.334 -11 50.001c0 20.667 3.66699 38.667 11 54s17 28.166 29 38.499s25.833 18.166 41.5 23.499
s32.167 8 49.5 8c20 0 38.5 -2.33301 55.5 -7s31.5 -11.667 43.5 -21s21.333 -21.166 28 -35.499s10 -31.166 10 -50.499c0 -20 -3.5 -38 -10.5 -54s-16.667 -29.5 -29 -40.5s-26.833 -19.333 -43.5 -25s-34.667 -8.5 -54 -8.5zM428.001 1289
c-17.333 0 -33.833 2.66602 -49.5 7.99902s-29.5 13 -41.5 23s-21.667 22.333 -29 37s-11 31.334 -11 50.001c0 20.667 3.66699 38.667 11 54s17 28.166 29 38.499s25.833 18.166 41.5 23.499s32.167 8 49.5 8c20 0 38.5 -2.33301 55.5 -7s31.5 -11.667 43.5 -21
s21.333 -21.166 28 -35.499s10 -31.166 10 -50.499c0 -20 -3.5 -38 -10.5 -54s-16.667 -29.5 -29 -40.5s-26.833 -19.333 -43.5 -25s-34.667 -8.5 -54 -8.5z" />
    <glyph glyph-name="divide" unicode="&#xf7;" horiz-adv-x="1896" 
d="M778 931c-20 0 -39 3.83301 -57 11.5s-33.667 18.167 -47 31.5s-23.833 29 -31.5 47s-11.5 37.333 -11.5 58c0 20 3.83301 38.833 11.5 56.5s18.167 33 31.5 46s29 23.333 47 31s37 11.5 57 11.5c20.667 0 40 -3.83301 58 -11.5s33.667 -18 47 -31
s23.833 -28.333 31.5 -46s11.5 -36.5 11.5 -56.5c0 -20.667 -3.83301 -40 -11.5 -58s-18.167 -33.667 -31.5 -47s-29 -23.833 -47 -31.5s-37.333 -11.5 -58 -11.5zM201 704h1153v-154h-1153v154zM631 168c0 20.667 3.83301 40 11.5 58s18.167 33.667 31.5 47
s29 23.833 47 31.5s37 11.5 57 11.5c20.667 0 40 -3.83301 58 -11.5s33.667 -18.167 47 -31.5s23.833 -29 31.5 -47s11.5 -37.333 11.5 -58c0 -20 -3.83301 -38.833 -11.5 -56.5s-18.167 -33 -31.5 -46s-29 -23.333 -47 -31s-37.333 -11.5 -58 -11.5
c-20 0 -39 3.83301 -57 11.5s-33.667 18 -47 31s-23.833 28.333 -31.5 46s-11.5 36.5 -11.5 56.5z" />
    <glyph glyph-name="oslash" unicode="&#xf8;" horiz-adv-x="1665" 
d="M317 90c-62.667 50.667 -111.501 115.167 -146.501 193.5s-52.5 168.5 -52.5 270.5c0 82.667 12.833 159.5 38.5 230.5s62.334 132.667 110.001 185s105.334 93.333 173.001 123s143.5 44.5 227.5 44.5c52 0 99.333 -5.5 142 -16.5s83 -26.5 121 -46.5l82 132h106
l-113 -182c33.333 -27.333 62.5 -58.5 87.5 -93.5s46 -72.5 63 -112.5s29.667 -82 38 -126s12.5 -88.667 12.5 -134c0 -82 -12.833 -158.5 -38.5 -229.5s-62.167 -132.667 -109.5 -185s-104.833 -93.5 -172.5 -123.5s-143.834 -45 -228.501 -45c-50 0 -97 5.5 -141 16.5
s-85.333 27.167 -124 48.5l-96 -154h-106zM846.999 941c-24.667 23.333 -52.8311 41.3311 -84.498 53.998s-68.5 19 -110.5 19c-38.667 0 -73.334 -6.16699 -104.001 -18.5s-57.334 -29.166 -80.001 -50.499s-42 -46.166 -58 -74.499s-29 -58.5 -39 -90.5
s-17.167 -65.167 -21.5 -99.5s-6.5 -67.833 -6.5 -100.5c0 -28 1.33301 -56.833 4 -86.5s6.83398 -59 12.501 -88s13.167 -57.333 22.5 -85s20.666 -53.167 33.999 -76.5zM475.002 172.998c24.667 -23.333 53.166 -41.667 85.499 -55s69.5 -20 111.5 -20
c39.333 0 74.333 6.16699 105 18.5s57.334 29.166 80.001 50.499s42 46.333 58 75s28.833 59.334 38.5 92.001s16.667 66.167 21 100.5s6.5 68.166 6.5 101.499c0 62 -5.83301 122.333 -17.5 181s-30.5 110.334 -56.5 155.001z" />
    <glyph glyph-name="ugrave" unicode="&#xf9;" horiz-adv-x="1741" 
d="M235 893c0 13.333 -3.83008 23.332 -11.4971 29.999s-16.167 12 -25.5 16l-126 54v85l372 50v-687c0 -47.333 2.83301 -89.5 8.5 -126.5s16.667 -68.167 33 -93.5s39.833 -44.5 70.5 -57.5s71 -19.5 121 -19.5c22.667 0 46.167 1.5 70.5 4.5s48.166 8.33301 71.499 16
s45.5 18 66.5 31s39.5 29.5 55.5 49.5v648c0 13.333 -3.83301 23.166 -11.5 29.499s-16.834 11.833 -27.501 16.5l-125 54v85l373 50v-913c0 -13.333 3.83301 -23.166 11.5 -29.499s16.5 -11.833 26.5 -16.5l125 -54v-85l-350 -50v0v182h-15
c-31.333 -40.667 -62.5 -73 -93.5 -97s-61.833 -42.333 -92.5 -55s-60.834 -21 -90.501 -25s-58.834 -6 -87.501 -6c-48 0 -93.333 7 -136 21s-79.667 35.833 -111 65.5s-56.166 67.834 -74.499 114.501s-27.5 102.667 -27.5 168v545zM836.003 1225l-119.001 84.5029
l-87.5 62l-64.5 47l-51 40.5c-14 10.667 -25.833 20.5 -35.5 29.5s-17.834 18.167 -24.501 27.5s-11.5 19.333 -14.5 30s-4.5 22.667 -4.5 36c0 11.333 2.33301 22.333 7 33s11.334 20 20.001 28s18.834 14.5 30.501 19.5s24.5 7.5 38.5 7.5s27 -1.33301 39 -4
s23.667 -7.33398 35 -14.001s22.833 -15.834 34.5 -27.501s24.167 -26.834 37.5 -45.501l39.5 -56l46 -65.5l58 -82l75.5 -105.5z" />
    <glyph glyph-name="uacute" unicode="&#xfa;" horiz-adv-x="1741" 
d="M235 893c0 13.333 -3.83008 23.332 -11.4971 29.999s-16.167 12 -25.5 16l-126 54v85l372 50v-687c0 -47.333 2.83301 -89.5 8.5 -126.5s16.667 -68.167 33 -93.5s39.833 -44.5 70.5 -57.5s71 -19.5 121 -19.5c22.667 0 46.167 1.5 70.5 4.5s48.166 8.33301 71.499 16
s45.5 18 66.5 31s39.5 29.5 55.5 49.5v648c0 13.333 -3.83301 23.166 -11.5 29.499s-16.834 11.833 -27.501 16.5l-125 54v85l373 50v-913c0 -13.333 3.83301 -23.166 11.5 -29.499s16.5 -11.833 26.5 -16.5l125 -54v-85l-350 -50v0v182h-15
c-31.333 -40.667 -62.5 -73 -93.5 -97s-61.833 -42.333 -92.5 -55s-60.834 -21 -90.501 -25s-58.834 -6 -87.501 -6c-48 0 -93.333 7 -136 21s-79.667 35.833 -111 65.5s-56.166 67.834 -74.499 114.501s-27.5 102.667 -27.5 168v545zM494.003 1270l75.499 105.497l58 82
l46 65.5l39.5 56c13.333 18.667 25.833 33.834 37.5 45.501s23.167 20.834 34.5 27.501s23 11.334 35 14.001s25 4 39 4s26.833 -2.5 38.5 -7.5s21.834 -11.5 30.501 -19.5s15.334 -17.333 20.001 -28s7 -21.667 7 -33c0 -13.333 -1.5 -25.333 -4.5 -36
s-7.83301 -20.667 -14.5 -30s-14.834 -18.5 -24.501 -27.5s-21.5 -18.833 -35.5 -29.5l-51 -40.5l-64.5 -47l-87.5 -62l-119 -84.5z" />
    <glyph glyph-name="ucircumflex" unicode="&#xfb;" horiz-adv-x="1741" 
d="M235 893c0 13.333 -3.83008 23.332 -11.4971 29.999s-16.167 12 -25.5 16l-126 54v85l372 50v-687c0 -47.333 2.83301 -89.5 8.5 -126.5s16.667 -68.167 33 -93.5s39.833 -44.5 70.5 -57.5s71 -19.5 121 -19.5c22.667 0 46.167 1.5 70.5 4.5s48.166 8.33301 71.499 16
s45.5 18 66.5 31s39.5 29.5 55.5 49.5v648c0 13.333 -3.83301 23.166 -11.5 29.499s-16.834 11.833 -27.501 16.5l-125 54v85l373 50v-913c0 -13.333 3.83301 -23.166 11.5 -29.499s16.5 -11.833 26.5 -16.5l125 -54v-85l-350 -50v0v182h-15
c-31.333 -40.667 -62.5 -73 -93.5 -97s-61.833 -42.333 -92.5 -55s-60.834 -21 -90.501 -25s-58.834 -6 -87.501 -6c-48 0 -93.333 7 -136 21s-79.667 35.833 -111 65.5s-56.166 67.834 -74.499 114.501s-27.5 102.667 -27.5 168v545zM561.003 1577
c18.667 26.667 37.501 48.5 56.501 65.5s43.167 25.5 72.5 25.5s53.666 -8.5 72.999 -25.5s38.333 -38.5 57 -64.5l218 -308l-60 -45l-287 250l-288 -250l-60 45z" />
    <glyph glyph-name="udieresis" unicode="&#xfc;" horiz-adv-x="1741" 
d="M235 893c0 13.333 -3.83008 23.332 -11.4971 29.999s-16.167 12 -25.5 16l-126 54v85l372 50v-687c0 -47.333 2.83301 -89.5 8.5 -126.5s16.667 -68.167 33 -93.5s39.833 -44.5 70.5 -57.5s71 -19.5 121 -19.5c22.667 0 46.167 1.5 70.5 4.5s48.166 8.33301 71.499 16
s45.5 18 66.5 31s39.5 29.5 55.5 49.5v648c0 13.333 -3.83301 23.166 -11.5 29.499s-16.834 11.833 -27.501 16.5l-125 54v85l373 50v-913c0 -13.333 3.83301 -23.166 11.5 -29.499s16.5 -11.833 26.5 -16.5l125 -54v-85l-350 -50v0v182h-15
c-31.333 -40.667 -62.5 -73 -93.5 -97s-61.833 -42.333 -92.5 -55s-60.834 -21 -90.501 -25s-58.834 -6 -87.501 -6c-48 0 -93.333 7 -136 21s-79.667 35.833 -111 65.5s-56.166 67.834 -74.499 114.501s-27.5 102.667 -27.5 168v545zM917.003 1289
c-17.333 0 -33.833 2.66602 -49.5 7.99902s-29.5 13 -41.5 23s-21.667 22.333 -29 37s-11 31.334 -11 50.001c0 20.667 3.66699 38.667 11 54s17 28.166 29 38.499s25.833 18.166 41.5 23.499s32.167 8 49.5 8c20 0 38.5 -2.33301 55.5 -7s31.5 -11.667 43.5 -21
s21.333 -21.166 28 -35.499s10 -31.166 10 -50.499c0 -20 -3.5 -38 -10.5 -54s-16.667 -29.5 -29 -40.5s-26.833 -19.333 -43.5 -25s-34.667 -8.5 -54 -8.5zM455.003 1289c-17.333 0 -33.833 2.66602 -49.5 7.99902s-29.5 13 -41.5 23s-21.667 22.333 -29 37
s-11 31.334 -11 50.001c0 20.667 3.66699 38.667 11 54s17 28.166 29 38.499s25.833 18.166 41.5 23.499s32.167 8 49.5 8c20 0 38.5 -2.33301 55.5 -7s31.5 -11.667 43.5 -21s21.333 -21.166 28 -35.499s10 -31.166 10 -50.499c0 -20 -3.5 -38 -10.5 -54
s-16.667 -29.5 -29 -40.5s-26.833 -19.333 -43.5 -25s-34.667 -8.5 -54 -8.5z" />
    <glyph glyph-name="yacute" unicode="&#xfd;" horiz-adv-x="1635" 
d="M108 -255l52.999 -0.00195312c8.66699 -4.66699 20 -9.5 34 -14.5s28.333 -9.66699 43 -14s28.5 -7.83301 41.5 -10.5s22.833 -4 29.5 -4c36 0 65.667 2.66699 89 8s43.666 14.666 60.999 27.999c12 9.33301 23.167 21.333 33.5 36s21 33.667 32 57s23.167 52 36.5 86
l46 122l-71 112l-353 792c-5.33301 12 -12 21.5 -20 28.5s-17.333 12.5 -28 16.5l-81 40v80h485v-80l-150 -54l256 -562l47 -125h22l250 650l-134 91v80h416v-80l-94 -70c-7.33301 -5.33301 -16.166 -12.166 -26.499 -20.499s-17.166 -17.166 -20.499 -26.499l-422 -1083
c-25.333 -65.333 -52.833 -119.166 -82.5 -161.499s-61.5 -76 -95.5 -101s-69.833 -42.333 -107.5 -52s-76.834 -14.5 -117.501 -14.5c-7.33301 0 -18.5 0.666992 -33.5 2s-31.333 3 -49 5s-34.667 4.5 -51 7.5s-29.166 6.16699 -38.499 9.5v222zM460.999 1270
l75.499 105.497l58 82l46 65.5l39.5 56c13.333 18.667 25.833 33.834 37.5 45.501s23.167 20.834 34.5 27.501s23 11.334 35 14.001s25 4 39 4s26.833 -2.5 38.5 -7.5s21.834 -11.5 30.501 -19.5s15.334 -17.333 20.001 -28s7 -21.667 7 -33
c0 -13.333 -1.5 -25.333 -4.5 -36s-7.83301 -20.667 -14.5 -30s-14.834 -18.5 -24.501 -27.5s-21.5 -18.833 -35.5 -29.5l-51 -40.5l-64.5 -47l-87.5 -62l-119 -84.5z" />
    <glyph glyph-name="thorn" unicode="&#xfe;" horiz-adv-x="1700" 
d="M58 -420l131.996 46.998c11.333 4 20.5 9 27.5 15s10.5 15.667 10.5 29v1692c0 13.333 -4.16699 23.333 -12.5 30s-16.833 12 -25.5 16l-138 64v85h385v-544l-4 -69l8 11.5l8 11.5c29.333 38.667 60.5 69.167 93.5 91.5s65.333 39.333 97 51s61.334 19 89.001 22
s50.834 4.5 69.501 4.5c68.667 0 130.334 -13.5 185.001 -40.5s101 -64.333 139 -112s67.167 -104.167 87.5 -169.5s30.5 -136 30.5 -212c0 -84.667 -12 -164.334 -36 -239.001s-58.667 -139.667 -104 -195s-100.666 -99.166 -165.999 -131.499s-139 -48.5 -221 -48.5
c-32 0 -61.833 3 -89.5 9s-53 14 -76 24s-43.667 21.5 -62 34.5s-34.5 26.5 -48.5 40.5v-48v-376c0 -13.333 4 -23.166 12 -29.499s17 -11.166 27 -14.499l160 -49v-81h-578v81zM436.996 179.998c16 -9.33301 34.998 -17.167 56.998 -23.5s44.5 -11.5 67.5 -15.5
s45.167 -6.83301 66.5 -8.5s39 -2.5 53 -2.5c57.333 0 107.166 10.5 149.499 31.5s77.333 49.833 105 86.5s48.334 79.5 62.001 128.5s20.5 101.167 20.5 156.5c0 62.667 -6.5 121.167 -19.5 175.5s-33.333 101.5 -61 141.5s-62.5 71.5 -104.5 94.5s-92 34.5 -150 34.5
c-17.333 0 -37 -2 -59 -6s-44.167 -10.5 -66.5 -19.5s-44.166 -21.167 -65.499 -36.5s-39.666 -34 -54.999 -56v-681z" />
    <glyph glyph-name="ydieresis" unicode="&#xff;" horiz-adv-x="1635" 
d="M108 -255l52.999 -0.00195312c8.66699 -4.66699 20 -9.5 34 -14.5s28.333 -9.66699 43 -14s28.5 -7.83301 41.5 -10.5s22.833 -4 29.5 -4c36 0 65.667 2.66699 89 8s43.666 14.666 60.999 27.999c12 9.33301 23.167 21.333 33.5 36s21 33.667 32 57s23.167 52 36.5 86
l46 122l-71 112l-353 792c-5.33301 12 -12 21.5 -20 28.5s-17.333 12.5 -28 16.5l-81 40v80h485v-80l-150 -54l256 -562l47 -125h22l250 650l-134 91v80h416v-80l-94 -70c-7.33301 -5.33301 -16.166 -12.166 -26.499 -20.499s-17.166 -17.166 -20.499 -26.499l-422 -1083
c-25.333 -65.333 -52.833 -119.166 -82.5 -161.499s-61.5 -76 -95.5 -101s-69.833 -42.333 -107.5 -52s-76.834 -14.5 -117.501 -14.5c-7.33301 0 -18.5 0.666992 -33.5 2s-31.333 3 -49 5s-34.667 4.5 -51 7.5s-29.166 6.16699 -38.499 9.5v222zM882.999 1289
c-17.333 0 -33.833 2.66602 -49.5 7.99902s-29.5 13 -41.5 23s-21.667 22.333 -29 37s-11 31.334 -11 50.001c0 20.667 3.66699 38.667 11 54s17 28.166 29 38.499s25.833 18.166 41.5 23.499s32.167 8 49.5 8c20 0 38.5 -2.33301 55.5 -7s31.5 -11.667 43.5 -21
s21.333 -21.166 28 -35.499s10 -31.166 10 -50.499c0 -20 -3.5 -38 -10.5 -54s-16.667 -29.5 -29 -40.5s-26.833 -19.333 -43.5 -25s-34.667 -8.5 -54 -8.5zM420.999 1289c-17.333 0 -33.833 2.66602 -49.5 7.99902s-29.5 13 -41.5 23s-21.667 22.333 -29 37
s-11 31.334 -11 50.001c0 20.667 3.66699 38.667 11 54s17 28.166 29 38.499s25.833 18.166 41.5 23.499s32.167 8 49.5 8c20 0 38.5 -2.33301 55.5 -7s31.5 -11.667 43.5 -21s21.333 -21.166 28 -35.499s10 -31.166 10 -50.499c0 -20 -3.5 -38 -10.5 -54
s-16.667 -29.5 -29 -40.5s-26.833 -19.333 -43.5 -25s-34.667 -8.5 -54 -8.5z" />
    <glyph glyph-name="Amacron" unicode="&#x100;" horiz-adv-x="1856" 
d="M16 83l107 52c11.333 5.33301 21.333 13 30 23s15 20.333 19 31l410 1042l116 242h136l510 -1289c4 -10 9.83301 -20.333 17.5 -31s16.5 -18 26.5 -22l112 -48v-83h-543v83l167 66l-138 351h-543l-130 -345l170 -72v-83h-467v83zM932 659l-165 403l-36 135h-22l-211 -538
h434zM410 1844h715v-142h-715v142z" />
    <glyph glyph-name="amacron" unicode="&#x101;" horiz-adv-x="1631" 
d="M845 167c-29.333 -40.667 -61.165 -73.334 -95.498 -98.001s-68.833 -43.667 -103.5 -57s-68.5 -22.166 -101.5 -26.499s-62.833 -6.5 -89.5 -6.5c-52 0 -98.167 8.83301 -138.5 26.5s-74.333 41 -102 70s-48.834 62.333 -63.501 100s-22 76.834 -22 117.501
c0 47.333 8.33301 89.5 25 126.5s38.834 69.5 66.501 97.5s59.667 51.833 96 71.5s74.333 35.667 114 48s79.667 21.333 120 27s78.166 8.5 113.499 8.5c7.33301 0 19.333 -0.666992 36 -2s34.167 -3 52.5 -5s35.5 -4 51.5 -6s27.667 -3.33301 35 -4v138
c0 39.333 -5.5 72.333 -16.5 99s-26.167 48.167 -45.5 64.5s-42.333 28 -69 35s-55.667 10.5 -87 10.5c-34 0 -68.667 -6.16699 -104 -18.5s-69.166 -27 -101.499 -44s-62.333 -34.833 -90 -53.5l-69.5 -46h-45v207l95 32c31.333 10.667 64.5 20.334 99.5 29.001
s72.333 15.667 112 21s84.167 8 133.5 8c50.667 0 100 -4.83301 148 -14.5s90.5 -27.5 127.5 -53.5s66.667 -62 89 -108s33.5 -105.333 33.5 -178v-565c0 -13.333 3 -25.5 9 -36.5s13.667 -20.5 23 -28.5s20 -14.167 32 -18.5s23.667 -6.5 35 -6.5c8 0 16 1 24 3
s16.333 4.66699 25 8s17.167 7.16602 25.5 11.499l24.5 12.5h18v-95c-10 -7.33301 -23.333 -16 -40 -26s-34.834 -19.667 -54.501 -29s-39.334 -17.333 -59.001 -24s-37.5 -10 -53.5 -10c-32.667 0 -61.334 4 -86.001 12s-45.167 19.833 -61.5 35.5
s-28.666 35.167 -36.999 58.5s-12.5 50.666 -12.5 81.999h-16zM839.001 550c-72.667 0 -138.999 -2.66992 -198.999 -8.00293s-111.333 -15.833 -154 -31.5s-75.834 -38 -99.501 -67s-35.5 -67.5 -35.5 -115.5c0 -38 6.33301 -69.667 19 -95s28.667 -45.333 48 -60
s41 -25 65 -31s47.333 -9 70 -9s47.5 2.33301 74.5 7s53.667 11.834 80 21.501s51 21.834 74 36.501s42.167 32.334 57.5 53.001v299zM270.002 1496h715v-142h-715v142z" />
    <glyph glyph-name="Abreve" unicode="&#x102;" horiz-adv-x="1856" 
d="M16 83l107 52c11.333 5.33301 21.333 13 30 23s15 20.333 19 31l410 1042l116 242h136l510 -1289c4 -10 9.83301 -20.333 17.5 -31s16.5 -18 26.5 -22l112 -48v-83h-543v83l167 66l-138 351h-543l-130 -345l170 -72v-83h-467v83zM932 659l-165 403l-36 135h-22l-211 -538
h434zM502 1976c11.333 -36 23.334 -68.8311 36.001 -98.498s28.667 -55.334 48 -77.001s43.333 -38.5 72 -50.5s65 -18 109 -18c42.667 0 78.167 5.66699 106.5 17s52.166 27.666 71.499 48.999s35.666 47 48.999 77s26 63.667 38 101l86 -14
c-20 -134.667 -58.667 -233.667 -116 -297s-135.666 -95 -234.999 -95s-178 32 -236 96s-96.333 162.667 -115 296z" />
    <glyph glyph-name="abreve" unicode="&#x103;" horiz-adv-x="1631" 
d="M845 167c-29.333 -40.667 -61.165 -73.334 -95.498 -98.001s-68.833 -43.667 -103.5 -57s-68.5 -22.166 -101.5 -26.499s-62.833 -6.5 -89.5 -6.5c-52 0 -98.167 8.83301 -138.5 26.5s-74.333 41 -102 70s-48.834 62.333 -63.501 100s-22 76.834 -22 117.501
c0 47.333 8.33301 89.5 25 126.5s38.834 69.5 66.501 97.5s59.667 51.833 96 71.5s74.333 35.667 114 48s79.667 21.333 120 27s78.166 8.5 113.499 8.5c7.33301 0 19.333 -0.666992 36 -2s34.167 -3 52.5 -5s35.5 -4 51.5 -6s27.667 -3.33301 35 -4v138
c0 39.333 -5.5 72.333 -16.5 99s-26.167 48.167 -45.5 64.5s-42.333 28 -69 35s-55.667 10.5 -87 10.5c-34 0 -68.667 -6.16699 -104 -18.5s-69.166 -27 -101.499 -44s-62.333 -34.833 -90 -53.5l-69.5 -46h-45v207l95 32c31.333 10.667 64.5 20.334 99.5 29.001
s72.333 15.667 112 21s84.167 8 133.5 8c50.667 0 100 -4.83301 148 -14.5s90.5 -27.5 127.5 -53.5s66.667 -62 89 -108s33.5 -105.333 33.5 -178v-565c0 -13.333 3 -25.5 9 -36.5s13.667 -20.5 23 -28.5s20 -14.167 32 -18.5s23.667 -6.5 35 -6.5c8 0 16 1 24 3
s16.333 4.66699 25 8s17.167 7.16602 25.5 11.499l24.5 12.5h18v-95c-10 -7.33301 -23.333 -16 -40 -26s-34.834 -19.667 -54.501 -29s-39.334 -17.333 -59.001 -24s-37.5 -10 -53.5 -10c-32.667 0 -61.334 4 -86.001 12s-45.167 19.833 -61.5 35.5
s-28.666 35.167 -36.999 58.5s-12.5 50.666 -12.5 81.999h-16zM839.001 550c-72.667 0 -138.999 -2.66992 -198.999 -8.00293s-111.333 -15.833 -154 -31.5s-75.834 -38 -99.501 -67s-35.5 -67.5 -35.5 -115.5c0 -38 6.33301 -69.667 19 -95s28.667 -45.333 48 -60
s41 -25 65 -31s47.333 -9 70 -9s47.5 2.33301 74.5 7s53.667 11.834 80 21.501s51 21.834 74 36.501s42.167 32.334 57.5 53.001v299zM362.002 1668c11.333 -36 23.334 -68.8311 36.001 -98.498s28.667 -55.334 48 -77.001s43.333 -38.5 72 -50.5s65 -18 109 -18
c42.667 0 78.167 5.66699 106.5 17s52.166 27.666 71.499 48.999s35.666 47 48.999 77s26 63.667 38 101l86 -14c-20 -134.667 -58.667 -233.667 -116 -297s-135.666 -95 -234.999 -95s-178 32 -236 96s-96.333 162.667 -115 296z" />
    <glyph glyph-name="Aogonek" unicode="&#x104;" horiz-adv-x="1856" 
d="M16 83l107 51.9971c11.333 5.33301 21.333 13 30 23s15 20.333 19 31l410 1042l116 242h136l510 -1289c4 -10 9.83301 -20.333 17.5 -31s16.5 -18 26.5 -22l112 -48v-83h-215c-18 -13.333 -35 -27.666 -51 -42.999s-30 -32 -42 -50s-21.333 -37.667 -28 -59
s-10 -44.333 -10 -69c0 -16 2.5 -31.5 7.5 -46.5s12.667 -28.333 23 -40s23.166 -21 38.499 -28s33 -10.5 53 -10.5c17.333 0 35.833 3.16699 55.5 9.5s37.167 13.5 52.5 21.5h17v-112c-57.333 -23.333 -110.666 -35 -159.999 -35c-44 0 -81.5 5.83301 -112.5 17.5
s-56 26.834 -75 45.501s-32.833 39.834 -41.5 63.501s-13 47.167 -13 70.5c0 28.667 5.16699 55.5 15.5 80.5s23.833 48.167 40.5 69.5s35.667 41.5 57 60.5s43 37.167 65 54.5h-220v83l167 66l-138 351h-543l-130 -345l170 -72v-83h-467v83zM932 658.997l-165 403l-36 135
h-22l-211 -538h434z" />
    <glyph glyph-name="aogonek" unicode="&#x105;" horiz-adv-x="1631" 
d="M1191 -315v-112.004c-57.333 -23.333 -110.666 -35 -159.999 -35c-44 0 -81.5 5.83301 -112.5 17.5s-56 26.834 -75 45.501s-32.833 39.834 -41.5 63.501s-13 47.167 -13 70.5c0 28 4.83301 54.167 14.5 78.5s22.5 47.166 38.5 68.499s34.333 41.333 55 60
s41.667 36.334 63 53.001c-33.333 12.667 -58.166 33.167 -74.499 61.5s-24.5 65.166 -24.5 110.499h-16c-29.333 -40.667 -61.166 -73.334 -95.499 -98.001s-68.833 -43.667 -103.5 -57s-68.5 -22.166 -101.5 -26.499s-62.833 -6.5 -89.5 -6.5
c-52 0 -98.167 8.83301 -138.5 26.5s-74.333 41 -102 70s-48.834 62.333 -63.501 100s-22 76.834 -22 117.501c0 47.333 8.33301 89.5 25 126.5s38.834 69.5 66.501 97.5s59.667 51.833 96 71.5s74.333 35.667 114 48s79.667 21.333 120 27s78.166 8.5 113.499 8.5
c7.33301 0 19.333 -0.666992 36 -2s34.167 -3 52.5 -5s35.5 -4 51.5 -6s27.667 -3.33301 35 -4v138c0 39.333 -5.5 72.333 -16.5 99s-26.167 48.167 -45.5 64.5s-42.333 28 -69 35s-55.667 10.5 -87 10.5c-34 0 -68.667 -6.16699 -104 -18.5s-69.166 -27 -101.499 -44
s-62.333 -34.833 -90 -53.5l-69.5 -46h-45v207l95 32c31.333 10.667 64.5 20.334 99.5 29.001s72.333 15.667 112 21s84.167 8 133.5 8c50.667 0 100 -4.83301 148 -14.5s90.5 -27.5 127.5 -53.5s66.667 -62 89 -108s33.5 -105.333 33.5 -178v-233.5v-154.5v-102v-75
c0 -13.333 3 -25.5 9 -36.5s13.667 -20.5 23 -28.5s20 -14.167 32 -18.5s23.667 -6.5 35 -6.5c8 0 16 1 24 3s16.333 4.66699 25 8s17.167 7.16602 25.5 11.499l24.5 12.5h18v-95c-10 -7.33301 -23.333 -16 -40 -26s-34.834 -19.667 -54.501 -29
s-39.334 -17.333 -59.001 -24s-37.5 -10 -53.5 -10h-4.5h-4.5c-30 -25.333 -55 -54.166 -75 -86.499s-30 -70.166 -30 -113.499c0 -16 2.5 -31.5 7.5 -46.5s12.667 -28.333 23 -40s23.166 -21 38.499 -28s33 -10.5 53 -10.5c17.333 0 35.833 3.16699 55.5 9.5
s37.167 13.5 52.5 21.5h17zM839 549.996c-72.667 0 -138.999 -2.66992 -198.999 -8.00293s-111.333 -15.833 -154 -31.5s-75.834 -38 -99.501 -67s-35.5 -67.5 -35.5 -115.5c0 -38 6.33301 -69.667 19 -95s28.667 -45.333 48 -60s41 -25 65 -31s47.333 -9 70 -9
s47.5 2.33301 74.5 7s53.667 11.834 80 21.501s51 21.834 74 36.501s42.167 32.334 57.5 53.001v299z" />
    <glyph glyph-name="Cacute" unicode="&#x106;" horiz-adv-x="1823" 
d="M1370 335l0.00195312 -148c-29.333 -24 -63.333 -48.833 -102 -74.5s-80.5 -49.167 -125.5 -70.5s-93 -38.833 -144 -52.5s-103.5 -20.5 -157.5 -20.5c-108 0 -206.5 16.667 -295.5 50s-165.167 82 -228.5 146s-112.333 142.833 -147 236.5s-52 200.834 -52 321.501
c0 116 18 220.833 54 314.5s86.333 173.5 151 239.5s141.5 116.833 230.5 152.5s186.167 53.5 291.5 53.5c38 0 79.667 -2.5 125 -7.5s90.666 -11.333 135.999 -19s88.666 -15.667 129.999 -24s77 -15.833 107 -22.5v-380h-136l-31 214
c-1.33301 9.33301 -7.33301 17.833 -18 25.5s-20 13.5 -28 17.5c-22.667 10.667 -45.167 20 -67.5 28s-45.333 14.667 -69 20s-48.167 9.16602 -73.5 11.499s-52.333 3.5 -81 3.5c-71.333 0 -136.5 -11.833 -195.5 -35.5s-109.5 -59.5 -151.5 -107.5
s-74.667 -108.333 -98 -181s-35 -158 -35 -256c0 -208.667 46.5 -366.5 139.5 -473.5s227.5 -160.5 403.5 -160.5c48 0 92.5 7.5 133.5 22.5s78.5 33 112.5 54s64.5 42.833 91.5 65.5l69.5 57h61zM604.002 1618l75.499 105.497l58 82l46 65.5l39.5 56
c13.333 18.667 25.833 33.834 37.5 45.501s23.167 20.834 34.5 27.501s23 11.334 35 14.001s25 4 39 4s26.833 -2.5 38.5 -7.5s21.834 -11.5 30.501 -19.5s15.334 -17.333 20.001 -28s7 -21.667 7 -33c0 -13.333 -1.5 -25.333 -4.5 -36s-7.83301 -20.667 -14.5 -30
s-14.834 -18.5 -24.501 -27.5s-21.5 -18.833 -35.5 -29.5l-51 -40.5l-64.5 -47l-87.5 -62l-119 -84.5z" />
    <glyph glyph-name="cacute" unicode="&#x107;" horiz-adv-x="1487" 
d="M1070 284l0.00292969 -127.001c-26 -20.667 -54.333 -41.667 -85 -63s-64 -40.666 -100 -57.999s-74.667 -31.5 -116 -42.5s-85.666 -16.5 -132.999 -16.5c-80 0 -152 13.833 -216 41.5s-118.5 66.334 -163.5 116.001s-79.5 109.167 -103.5 178.5s-36 146 -36 230
c0 59.333 8 115.166 24 167.499s38 100.333 66 144s61 83 99 118s78.833 64.5 122.5 88.5s89.167 42.333 136.5 55s94.666 19 141.999 19c39.333 0 75.666 -3.16699 108.999 -9.5s63.5 -14 90.5 -23s50.5 -18.167 70.5 -27.5l50 -23v-216h-51
c-27.333 15.333 -54 31.666 -80 48.999s-53.5 33.333 -82.5 48s-60.333 26.834 -94 36.501s-71.834 14.5 -114.501 14.5c-12 0 -25.667 -1.5 -41 -4.5s-30.833 -7.33301 -46.5 -13s-30.5 -12.667 -44.5 -21s-25.667 -17.833 -35 -28.5
c-12 -12.667 -23.667 -27.167 -35 -43.5s-21.5 -37.333 -30.5 -63s-16.167 -57.5 -21.5 -95.5s-8 -84.667 -8 -140c0 -68.667 7.66699 -130 23 -184s37.833 -99.667 67.5 -137s66.5 -65.833 110.5 -85.5s95 -29.5 153 -29.5c36 0 70.167 5 102.5 15
s62.666 22.167 90.999 36.5s54.5 30 78.5 47l65 46.5h36zM435.003 1270l75.499 105.497l58 82l46 65.5l39.5 56c13.333 18.667 25.833 33.834 37.5 45.501s23.167 20.834 34.5 27.501s23 11.334 35 14.001s25 4 39 4s26.833 -2.5 38.5 -7.5s21.834 -11.5 30.501 -19.5
s15.334 -17.333 20.001 -28s7 -21.667 7 -33c0 -13.333 -1.5 -25.333 -4.5 -36s-7.83301 -20.667 -14.5 -30s-14.834 -18.5 -24.501 -27.5s-21.5 -18.833 -35.5 -29.5l-51 -40.5l-64.5 -47l-87.5 -62l-119 -84.5z" />
    <glyph glyph-name="Ccircumflex" unicode="&#x108;" horiz-adv-x="1823" 
d="M1370 335l0.00195312 -148c-29.333 -24 -63.333 -48.833 -102 -74.5s-80.5 -49.167 -125.5 -70.5s-93 -38.833 -144 -52.5s-103.5 -20.5 -157.5 -20.5c-108 0 -206.5 16.667 -295.5 50s-165.167 82 -228.5 146s-112.333 142.833 -147 236.5s-52 200.834 -52 321.501
c0 116 18 220.833 54 314.5s86.333 173.5 151 239.5s141.5 116.833 230.5 152.5s186.167 53.5 291.5 53.5c38 0 79.667 -2.5 125 -7.5s90.666 -11.333 135.999 -19s88.666 -15.667 129.999 -24s77 -15.833 107 -22.5v-380h-136l-31 214
c-1.33301 9.33301 -7.33301 17.833 -18 25.5s-20 13.5 -28 17.5c-22.667 10.667 -45.167 20 -67.5 28s-45.333 14.667 -69 20s-48.167 9.16602 -73.5 11.499s-52.333 3.5 -81 3.5c-71.333 0 -136.5 -11.833 -195.5 -35.5s-109.5 -59.5 -151.5 -107.5
s-74.667 -108.333 -98 -181s-35 -158 -35 -256c0 -208.667 46.5 -366.5 139.5 -473.5s227.5 -160.5 403.5 -160.5c48 0 92.5 7.5 133.5 22.5s78.5 33 112.5 54s64.5 42.833 91.5 65.5l69.5 57h61zM705.002 1925c18.667 26.667 37.501 48.5 56.501 65.5
s43.167 25.5 72.5 25.5s53.666 -8.5 72.999 -25.5s38.333 -38.5 57 -64.5l218 -308l-60 -45l-287 250l-288 -250l-60 45z" />
    <glyph glyph-name="ccircumflex" unicode="&#x109;" horiz-adv-x="1487" 
d="M1070 284l0.00292969 -127.001c-26 -20.667 -54.333 -41.667 -85 -63s-64 -40.666 -100 -57.999s-74.667 -31.5 -116 -42.5s-85.666 -16.5 -132.999 -16.5c-80 0 -152 13.833 -216 41.5s-118.5 66.334 -163.5 116.001s-79.5 109.167 -103.5 178.5s-36 146 -36 230
c0 59.333 8 115.166 24 167.499s38 100.333 66 144s61 83 99 118s78.833 64.5 122.5 88.5s89.167 42.333 136.5 55s94.666 19 141.999 19c39.333 0 75.666 -3.16699 108.999 -9.5s63.5 -14 90.5 -23s50.5 -18.167 70.5 -27.5l50 -23v-216h-51
c-27.333 15.333 -54 31.666 -80 48.999s-53.5 33.333 -82.5 48s-60.333 26.834 -94 36.501s-71.834 14.5 -114.501 14.5c-12 0 -25.667 -1.5 -41 -4.5s-30.833 -7.33301 -46.5 -13s-30.5 -12.667 -44.5 -21s-25.667 -17.833 -35 -28.5
c-12 -12.667 -23.667 -27.167 -35 -43.5s-21.5 -37.333 -30.5 -63s-16.167 -57.5 -21.5 -95.5s-8 -84.667 -8 -140c0 -68.667 7.66699 -130 23 -184s37.833 -99.667 67.5 -137s66.5 -65.833 110.5 -85.5s95 -29.5 153 -29.5c36 0 70.167 5 102.5 15
s62.666 22.167 90.999 36.5s54.5 30 78.5 47l65 46.5h36zM519.003 1577c18.667 26.667 37.501 48.5 56.501 65.5s43.167 25.5 72.5 25.5s53.666 -8.5 72.999 -25.5s38.333 -38.5 57 -64.5l218 -308l-60 -45l-287 250l-288 -250l-60 45z" />
    <glyph glyph-name="Cdotaccent" unicode="&#x10a;" horiz-adv-x="1823" 
d="M1370 335l0.00195312 -148c-29.333 -24 -63.333 -48.833 -102 -74.5s-80.5 -49.167 -125.5 -70.5s-93 -38.833 -144 -52.5s-103.5 -20.5 -157.5 -20.5c-108 0 -206.5 16.667 -295.5 50s-165.167 82 -228.5 146s-112.333 142.833 -147 236.5s-52 200.834 -52 321.501
c0 116 18 220.833 54 314.5s86.333 173.5 151 239.5s141.5 116.833 230.5 152.5s186.167 53.5 291.5 53.5c38 0 79.667 -2.5 125 -7.5s90.666 -11.333 135.999 -19s88.666 -15.667 129.999 -24s77 -15.833 107 -22.5v-380h-136l-31 214
c-1.33301 9.33301 -7.33301 17.833 -18 25.5s-20 13.5 -28 17.5c-22.667 10.667 -45.167 20 -67.5 28s-45.333 14.667 -69 20s-48.167 9.16602 -73.5 11.499s-52.333 3.5 -81 3.5c-71.333 0 -136.5 -11.833 -195.5 -35.5s-109.5 -59.5 -151.5 -107.5
s-74.667 -108.333 -98 -181s-35 -158 -35 -256c0 -208.667 46.5 -366.5 139.5 -473.5s227.5 -160.5 403.5 -160.5c48 0 92.5 7.5 133.5 22.5s78.5 33 112.5 54s64.5 42.833 91.5 65.5l69.5 57h61zM831.002 1638c-20 0 -39.168 3.00098 -57.501 9.00098
s-34.5 14.5 -48.5 25.5s-25.167 24.667 -33.5 41s-12.5 35.166 -12.5 56.499c0 22.667 4.16699 42.5 12.5 59.5s19.5 31.333 33.5 43s30.167 20.334 48.5 26.001s37.5 8.5 57.5 8.5c24 0 45.667 -2.5 65 -7.5s35.833 -12.833 49.5 -23.5s24.334 -23.834 32.001 -39.501
s11.5 -34.167 11.5 -55.5c0 -22.667 -4 -42.834 -12 -60.501s-19 -32.667 -33 -45s-30.667 -21.666 -50 -27.999s-40.333 -9.5 -63 -9.5z" />
    <glyph glyph-name="cdotaccent" unicode="&#x10b;" horiz-adv-x="1487" 
d="M1070 284l0.00292969 -127.001c-26 -20.667 -54.333 -41.667 -85 -63s-64 -40.666 -100 -57.999s-74.667 -31.5 -116 -42.5s-85.666 -16.5 -132.999 -16.5c-80 0 -152 13.833 -216 41.5s-118.5 66.334 -163.5 116.001s-79.5 109.167 -103.5 178.5s-36 146 -36 230
c0 59.333 8 115.166 24 167.499s38 100.333 66 144s61 83 99 118s78.833 64.5 122.5 88.5s89.167 42.333 136.5 55s94.666 19 141.999 19c39.333 0 75.666 -3.16699 108.999 -9.5s63.5 -14 90.5 -23s50.5 -18.167 70.5 -27.5l50 -23v-216h-51
c-27.333 15.333 -54 31.666 -80 48.999s-53.5 33.333 -82.5 48s-60.333 26.834 -94 36.501s-71.834 14.5 -114.501 14.5c-12 0 -25.667 -1.5 -41 -4.5s-30.833 -7.33301 -46.5 -13s-30.5 -12.667 -44.5 -21s-25.667 -17.833 -35 -28.5
c-12 -12.667 -23.667 -27.167 -35 -43.5s-21.5 -37.333 -30.5 -63s-16.167 -57.5 -21.5 -95.5s-8 -84.667 -8 -140c0 -68.667 7.66699 -130 23 -184s37.833 -99.667 67.5 -137s66.5 -65.833 110.5 -85.5s95 -29.5 153 -29.5c36 0 70.167 5 102.5 15
s62.666 22.167 90.999 36.5s54.5 30 78.5 47l65 46.5h36zM662.003 1289c-20 0 -39.168 3.00098 -57.501 9.00098s-34.5 14.5 -48.5 25.5s-25.167 24.667 -33.5 41s-12.5 35.166 -12.5 56.499c0 22.667 4.16699 42.5 12.5 59.5s19.5 31.333 33.5 43
s30.167 20.334 48.5 26.001s37.5 8.5 57.5 8.5c24 0 45.667 -2.5 65 -7.5s35.833 -12.833 49.5 -23.5s24.334 -23.834 32.001 -39.501s11.5 -34.167 11.5 -55.5c0 -22.667 -4 -42.834 -12 -60.501s-19 -32.667 -33 -45s-30.667 -21.666 -50 -27.999s-40.333 -9.5 -63 -9.5z
" />
    <glyph glyph-name="Ccaron" unicode="&#x10c;" horiz-adv-x="1823" 
d="M1370 335l0.00195312 -148c-29.333 -24 -63.333 -48.833 -102 -74.5s-80.5 -49.167 -125.5 -70.5s-93 -38.833 -144 -52.5s-103.5 -20.5 -157.5 -20.5c-108 0 -206.5 16.667 -295.5 50s-165.167 82 -228.5 146s-112.333 142.833 -147 236.5s-52 200.834 -52 321.501
c0 116 18 220.833 54 314.5s86.333 173.5 151 239.5s141.5 116.833 230.5 152.5s186.167 53.5 291.5 53.5c38 0 79.667 -2.5 125 -7.5s90.666 -11.333 135.999 -19s88.666 -15.667 129.999 -24s77 -15.833 107 -22.5v-380h-136l-31 214
c-1.33301 9.33301 -7.33301 17.833 -18 25.5s-20 13.5 -28 17.5c-22.667 10.667 -45.167 20 -67.5 28s-45.333 14.667 -69 20s-48.167 9.16602 -73.5 11.499s-52.333 3.5 -81 3.5c-71.333 0 -136.5 -11.833 -195.5 -35.5s-109.5 -59.5 -151.5 -107.5
s-74.667 -108.333 -98 -181s-35 -158 -35 -256c0 -208.667 46.5 -366.5 139.5 -473.5s227.5 -160.5 403.5 -160.5c48 0 92.5 7.5 133.5 22.5s78.5 33 112.5 54s64.5 42.833 91.5 65.5l69.5 57h61zM487.002 1971l59.999 45l288 -250l287 250l60 -45l-218 -308
c-18.667 -26 -37.667 -47.5 -57 -64.5s-43.666 -25.5 -72.999 -25.5s-53.5 8.5 -72.5 25.5s-37.833 38.833 -56.5 65.5z" />
    <glyph glyph-name="ccaron" unicode="&#x10d;" horiz-adv-x="1487" 
d="M1070 284l0.00292969 -127.001c-26 -20.667 -54.333 -41.667 -85 -63s-64 -40.666 -100 -57.999s-74.667 -31.5 -116 -42.5s-85.666 -16.5 -132.999 -16.5c-80 0 -152 13.833 -216 41.5s-118.5 66.334 -163.5 116.001s-79.5 109.167 -103.5 178.5s-36 146 -36 230
c0 59.333 8 115.166 24 167.499s38 100.333 66 144s61 83 99 118s78.833 64.5 122.5 88.5s89.167 42.333 136.5 55s94.666 19 141.999 19c39.333 0 75.666 -3.16699 108.999 -9.5s63.5 -14 90.5 -23s50.5 -18.167 70.5 -27.5l50 -23v-216h-51
c-27.333 15.333 -54 31.666 -80 48.999s-53.5 33.333 -82.5 48s-60.333 26.834 -94 36.501s-71.834 14.5 -114.501 14.5c-12 0 -25.667 -1.5 -41 -4.5s-30.833 -7.33301 -46.5 -13s-30.5 -12.667 -44.5 -21s-25.667 -17.833 -35 -28.5
c-12 -12.667 -23.667 -27.167 -35 -43.5s-21.5 -37.333 -30.5 -63s-16.167 -57.5 -21.5 -95.5s-8 -84.667 -8 -140c0 -68.667 7.66699 -130 23 -184s37.833 -99.667 67.5 -137s66.5 -65.833 110.5 -85.5s95 -29.5 153 -29.5c36 0 70.167 5 102.5 15
s62.666 22.167 90.999 36.5s54.5 30 78.5 47l65 46.5h36zM318.003 1623l59.999 45l288 -250l287 250l60 -45l-218 -308c-18.667 -26 -37.667 -47.5 -57 -64.5s-43.666 -25.5 -72.999 -25.5s-53.5 8.5 -72.5 25.5s-37.833 38.833 -56.5 65.5z" />
    <glyph glyph-name="Dcaron" unicode="&#x10e;" horiz-adv-x="2000" 
d="M131 83l161.996 56c9.33301 3.33301 17.5 8.5 24.5 15.5s10.5 17.833 10.5 32.5v1080c0 13.333 -3.5 23.333 -10.5 30s-15.167 11.667 -24.5 15l-162 58v81h681c48.667 0 100.334 -4.5 155.001 -13.5s109.167 -24.5 163.5 -46.5s106.333 -51 156 -87
s93.334 -81.167 131.001 -135.5s67.834 -118.5 90.501 -192.5s34 -159.667 34 -257c0 -124 -19.167 -231.167 -57.5 -321.5s-90.666 -165 -156.999 -224s-144 -102.667 -233 -131s-184.5 -42.5 -286.5 -42.5h-677v83zM809.996 134c84.667 0 157.833 12.332 219.5 36.999
s112.5 60.667 152.5 108s69.5 105.5 88.5 174.5s28.5 147.5 28.5 235.5c0 96.667 -13 183.834 -39 261.501s-63 143.667 -111 198s-106 96 -174 125s-144 43.5 -228 43.5h-200v-1183h263zM399.995 1971l59.999 45l288 -250l287 250l60 -45l-218 -308
c-18.667 -26 -37.667 -47.5 -57 -64.5s-43.666 -25.5 -72.999 -25.5s-53.5 8.5 -72.5 25.5s-37.833 38.833 -56.5 65.5z" />
    </font>
</defs>
</svg>
